<svg width="437" height="483" viewBox="0 0 437 483" fill="none" xmlns="http://www.w3.org/2000/svg">
<path d="M166.273 210.286V231.429H187.364V210.286H208.455H229.545V231.429H250.636V210.286H271.727V189.143H292.818V231.429H313.909V252.571H335V316H313.909V400.571H292.818V442.857H271.727V464H187.364H166.273V442.857H145.182V400.571H124.091V316H103V294.857V231.429H124.091V252.571H145.182V210.286H166.273Z" fill="#FF5A00"/>
<path d="M103 146.857V125.714H124.091V146.857H103Z" fill="#FF5A00"/>
<path d="M187.364 210.286V189.143H208.455V210.286H187.364Z" fill="#FF5A00"/>
<path d="M250.636 210.286V146.857H271.727V210.286H250.636Z" fill="#FF5A00"/>
<path d="M271.727 104.571V83.4286H292.818V104.571H271.727Z" fill="#FF5A00"/>
<path d="M229.545 125.714V104.571H250.636V125.714H229.545Z" fill="#FF5A00"/>
<path d="M313.909 83.4286V62.2857H335V83.4286H313.909Z" fill="#FF5A00"/>
<path d="M187.364 104.571V83.4286H208.455V104.571H187.364Z" fill="#FF5A00"/>
<path d="M166.273 125.714V104.571H187.364V125.714H166.273Z" fill="#FF5A00"/>
<path d="M166.273 210.286V168H187.364V210.286H166.273Z" fill="#FF5A00"/>
<path d="M166.273 231.429V210.286H187.364V231.429H166.273Z" fill="#FF5A00"/>
<path d="M229.545 210.286V168H250.636V210.286H229.545Z" fill="#FF5A00"/>
<path d="M145.182 41.1429V20H166.273V41.1429H145.182Z" fill="#FF5A00"/>
<path d="M103 210.286V168H124.091V189.143H145.182V231.429H124.091V210.286H103Z" fill="#FF5A00"/>
<path d="M103 210.286V168H124.091V189.143H145.182V231.429H124.091V210.286H103Z" fill="#FF5A00"/>
<path d="M187.364 189.143V125.714H208.455V146.857H229.545V168V210.286H208.455V189.143H187.364Z" fill="#FF5A00"/>
<path d="M313.909 231.429V168H335V231.429H313.909Z" fill="#FF5A00"/>
<path d="M145.182 189.143V125.714H166.273V189.143H145.182Z" fill="#FF5A00"/>
<path d="M313.909 146.857V104.571H335V146.857H313.909Z" fill="#FF5A00"/>
<path d="M271.727 168V125.714H292.818V168H271.727Z" fill="#FF5A00"/>
<path d="M145.182 104.571V62.2857H166.273V104.571H145.182Z" fill="#FF5A00"/>
<path d="M166.273 231.429H145.182V252.571H124.091V294.857V316H145.182V294.857H166.273V231.429Z" fill="#FF7A00"/>
<path d="M271.727 294.857V210.286H250.636H229.545H208.455V273.714H187.364V252.571H166.273V273.714V294.857H145.182H124.091V337.143H145.182V400.571H166.273V421.714H187.364V379.429H166.273V358.286V337.143H187.364H208.455V316V294.857H271.727Z" fill="#FF9D00"/>
<path d="M229.545 442.857H187.364V379.429H166.273V337.143H208.455V294.857H271.727V273.714H292.818V316H271.727V337.143H292.818V358.286H271.727V400.571H229.545V442.857Z" fill="#FFD600"/>
<path d="M313.909 273.714V358.286H292.818V400.571H250.636V421.714V442.857H229.545V421.714V379.429H271.727V358.286H292.818V337.143H271.727V316H292.818V273.714H313.909Z" fill="#FF9D00"/>
<path d="M124.091 379.429V337.143H145.182V379.429H124.091Z" fill="#FF7A00"/>
<path d="M187.364 273.714V252.571H166.273V231.429H187.364V189.143H208.455V231.429H229.545V252.571H208.455V273.714H187.364Z" fill="#FF7A00"/>
<path d="M313.909 273.714H292.818H271.727V231.429H250.636V189.143H271.727V210.286H292.818V252.571H313.909V273.714Z" fill="#FF7A00"/>
<path d="M271.727 379.429H292.818V421.714H271.727V442.857H187.364V421.714H250.636V400.571H271.727V379.429Z" fill="#FF7A00"/>
<path d="M208.455 379.429V337.143H229.545V294.857H250.636V379.429H208.455Z" fill="#FFF1CD"/>
<path d="M229.545 284.286V316H208.455V252.571H229.545V284.286Z" fill="#FFBF00"/>
<path d="M208.455 316V337.143H187.364V294.857H208.455V316Z" fill="#FFBF00"/>
<path d="M187.364 337.143V358.286H166.273V316H187.364V337.143Z" fill="#FFBF00"/>
<path d="M271.727 273.714V294.857H250.636V252.571H271.727V273.714Z" fill="#FFBF00"/>
</svg>
