<svg width="66" height="126" viewBox="0 0 66 126" fill="none" xmlns="http://www.w3.org/2000/svg">
<path d="M18 42V48H24V42H30V48H36V54H42V42H48V36H54V66H60V54H66V96H60V108H54V120H48V126H24H18V120H12V108H6V96H0V78V48H6V60H12V42H18Z" fill="#FF5A00"/>
<path d="M0 42V36H6V42H0Z" fill="#FF5A00"/>
<path d="M24 36V30H30V36H24Z" fill="#FF5A00"/>
<path d="M48 30V24H54V30H48Z" fill="#FF5A00"/>
<path d="M12 18V12H18V18H12Z" fill="#FF5A00"/>
<path d="M12 36V24H18V36H12Z" fill="#FF5A00"/>
<path d="M60 48V36H66V48H60Z" fill="#FF5A00"/>
<path d="M18 60H12V66H6V78V84H12V78H18V60Z" fill="#FF7A00"/>
<path d="M48 78V54H42V60H36V54H30V72H24V66H18V72V78H12H6V90H12V108H18V114H24V102H18V96V90H24H30V84V78H48Z" fill="#FF9D00"/>
<path d="M36 120H24V102H18V90H30V78H48V72H54V84H48V90H54V96H48V108H36V120Z" fill="#FFD600"/>
<path d="M60 72V96H54V108H42V114V120H36V114V102H48V96H54V90H48V84H54V72H60Z" fill="#FF9D00"/>
<path d="M6 102V90H12V102H6Z" fill="#FF7A00"/>
<path d="M24 72V66H18V60H24V54H30V66V72H24Z" fill="#FF7A00"/>
<path d="M60 72H54H48V54H54V66H60V72Z" fill="#FF7A00"/>
<path d="M48 102H54V114H48V120H24V114H42V108H48V102Z" fill="#FF7A00"/>
<path d="M30 78V96H24V102H18V84H24V78H30Z" fill="#FFBF00"/>
<path d="M36 108V114H30H24V102H30V108H36Z" fill="#FFBF00"/>
<path d="M54 78V84H48V78H36V75V66H42V72H48V66H54V78Z" fill="#FFBF00"/>
<path d="M36 78V84H30V72H36V78Z" fill="#FFBF00"/>
<path d="M30 96V90V84H36V78H42V72H48V84H42V96H36H30Z" fill="#FFF1CD"/>
</svg>
