<svg width="66" height="126" viewBox="0 0 66 126" fill="none" xmlns="http://www.w3.org/2000/svg">
<path d="M18 54V60H24V54H36V60H42V54H48V48H54V72H60V66H66V102H60V114H54V120H48V126H24H18V120H12V114H6V102H0V78V60H6V72H12V54H18Z" fill="#FF5A00"/>
<path d="M60 60V54H66V60H60Z" fill="#FF5A00"/>
<path d="M12 48V42H18V48H12Z" fill="#FF5A00"/>
<path d="M12 78V84H6V96H12V108V114H24V102H18V96V90H24H30V84V78H48V60H42V66H36V60H30V72H24V66H18V78H12Z" fill="#FF9D00"/>
<path d="M60 102V78H54V84H48V90H54V96H48V108H36V114V120H42V114H54V108V102H60Z" fill="#FF9D00"/>
<path d="M36 120H24V102H18V90H30V78H48V72H54V84H48V90H54V96H48V108H36V120Z" fill="#FFD600"/>
<path d="M30 102V96H36V78H48V84H42V102H30Z" fill="#FFF1CD"/>
<path d="M18 66H12V72H6V84H12V78H18V66Z" fill="#FF7A00"/>
<path d="M6 108V96H12V108H6Z" fill="#FF7A00"/>
<path d="M24 66V60H30V66V72H24V66Z" fill="#FF7A00"/>
<path d="M42 120V114H48V102H54V114H48V120H42Z" fill="#FF7A00"/>
<path d="M30 78V96H24V102H18V84H24V78H30Z" fill="#FFBF00"/>
<path d="M36 114V120H30H24V108H30V114H36Z" fill="#FFBF00"/>
<path d="M54 78V84H48V78H36V75V72H48H54V78Z" fill="#FFBF00"/>
<path d="M36 78V84H30V72H36V78Z" fill="#FFBF00"/>
</svg>
