<svg width="66" height="126" viewBox="0 0 66 126" fill="none" xmlns="http://www.w3.org/2000/svg">
<path d="M18 66V60H48V66H54V78H60V88H66V108H60V120H48V126H24H18V120H6V108H0V90H6V78H12V66H18Z" fill="#FF5A00"/>
<path d="M18 84H12V90H6V102H12V108V114H24V102H18V96V90H24H30V84V78H54V72H48V66H42H36H30V72H24H18V84Z" fill="#FF9D00"/>
<path d="M60 102V84H54H48V90H54V96H48V108H36V114V120H42V114H54V108V102H60Z" fill="#FF9D00"/>
<path d="M36 120H24V102H18V90H30V78H48H54V84H48V90H54V96H48V108H36V120Z" fill="#FFD600"/>
<path d="M36 102V96H33H30V84H42V96H48V102H36Z" fill="#FFF1CD"/>
<path d="M12 72H18V84H12V90H6V84H12V72Z" fill="#FF7A00"/>
<path d="M6 114V102H12V114H6Z" fill="#FF7A00"/>
<path d="M24 72V66H27H30V72H24Z" fill="#FF7A00"/>
<path d="M42 120V114H54V102H60V120H42Z" fill="#FF7A00"/>
<path d="M30 84V96H24V102H18V90H24V84H30Z" fill="#FFBF00"/>
<path d="M24 120V108H30V114H42V120H36H30H24Z" fill="#FFBF00"/>
<path d="M54 81V84H48V78H54V81Z" fill="#FFBF00"/>
<path d="M30 78V72H36V78H30Z" fill="#FFBF00"/>
<path d="M18 108V102H24V108H18Z" fill="#FFBF00"/>
<path d="M12 96V90H18V96H12Z" fill="#FFBF00"/>
<path d="M30 78V72H36V78H30Z" fill="#FFBF00"/>
</svg>
