<svg width="66" height="126" viewBox="0 0 66 126" fill="none" xmlns="http://www.w3.org/2000/svg">
<path d="M18 54V60H24V54H30H36V60H42V54H48V48H54V60H60V66H66V84H60V108H54V120H48V126H24H18V120H12V108H6V84H0V78V60H6V66H12V54H18Z" fill="#FF5A00"/>
<path d="M0 36V30H6V36H0Z" fill="#FF5A00"/>
<path d="M24 54V48H30V54H24Z" fill="#FF5A00"/>
<path d="M42 54V36H48V54H42Z" fill="#FF5A00"/>
<path d="M48 24V18H54V24H48Z" fill="#FF5A00"/>
<path d="M36 30V24H42V30H36Z" fill="#FF5A00"/>
<path d="M60 18V12H66V18H60Z" fill="#FF5A00"/>
<path d="M24 24V18H30V24H24Z" fill="#FF5A00"/>
<path d="M18 30V24H24V30H18Z" fill="#FF5A00"/>
<path d="M18 54V42H24V54H18Z" fill="#FF5A00"/>
<path d="M18 60V54H24V60H18Z" fill="#FF5A00"/>
<path d="M36 54V42H42V54H36Z" fill="#FF5A00"/>
<path d="M12 6V0H18V6H12Z" fill="#FF5A00"/>
<path d="M0 54V42H6V48H12V60H6V54H0Z" fill="#FF5A00"/>
<path d="M0 54V42H6V48H12V60H6V54H0Z" fill="#FF5A00"/>
<path d="M24 48V30H30V36H36V42V54H30V48H24Z" fill="#FF5A00"/>
<path d="M60 60V42H66V60H60Z" fill="#FF5A00"/>
<path d="M12 48V30H18V48H12Z" fill="#FF5A00"/>
<path d="M60 36V24H66V36H60Z" fill="#FF5A00"/>
<path d="M48 42V30H54V42H48Z" fill="#FF5A00"/>
<path d="M12 24V12H18V24H12Z" fill="#FF5A00"/>
<path d="M18 60H12V66H6V78V84H12V78H18V60Z" fill="#FF7A00"/>
<path d="M48 78V54H42H36H30V72H24V66H18V72V78H12H6V90H12V108H18V114H24V102H18V96V90H24H30V84V78H48Z" fill="#FF9D00"/>
<path d="M36 120H24V102H18V90H30V78H48V72H54V84H48V90H54V96H48V108H36V120Z" fill="#FFD600"/>
<path d="M60 72V96H54V108H42V114V120H36V114V102H48V96H54V90H48V84H54V72H60Z" fill="#FF9D00"/>
<path d="M6 102V90H12V102H6Z" fill="#FF7A00"/>
<path d="M24 72V66H18V60H24V48H30V60H36V66H30V72H24Z" fill="#FF7A00"/>
<path d="M60 72H54H48V60H42V48H48V54H54V66H60V72Z" fill="#FF7A00"/>
<path d="M48 102H54V114H48V120H24V114H42V108H48V102Z" fill="#FF7A00"/>
<path d="M30 102V90H36V78H42V102H30Z" fill="#FFF1CD"/>
<path d="M36 75V84H30V66H36V75Z" fill="#FFBF00"/>
<path d="M30 84V90H24V78H30V84Z" fill="#FFBF00"/>
<path d="M24 90V96H18V84H24V90Z" fill="#FFBF00"/>
<path d="M48 72V78H42V66H48V72Z" fill="#FFBF00"/>
</svg>
