<svg width="437" height="483" viewBox="0 0 437 483" fill="none" xmlns="http://www.w3.org/2000/svg">
<path d="M165.273 169V190.143H186.364V169H207.455V190.143H228.545V211.286H249.636V169H270.727V147.857H291.818V253.571H312.909V211.286H334V359.286H312.909V401.571H291.818V443.857H270.727V465H186.364H165.273V443.857H144.182V401.571H123.091V359.286H102V295.857V190.143H123.091V232.429H144.182V169H165.273Z" fill="#FF5A00"/>
<path d="M102 169V147.857H123.091V169H102Z" fill="#FF5A00"/>
<path d="M186.364 147.857V126.714H207.455V147.857H186.364Z" fill="#FF5A00"/>
<path d="M270.727 126.714V105.571H291.818V126.714H270.727Z" fill="#FF5A00"/>
<path d="M144.182 84.4286V63.2857H165.273V84.4286H144.182Z" fill="#FF5A00"/>
<path d="M144.182 147.857V105.571H165.273V147.857H144.182Z" fill="#FF5A00"/>
<path d="M312.909 190.143V147.857H334V190.143H312.909Z" fill="#FF5A00"/>
<path d="M165.273 232.429H144.182V253.571H123.091V295.857V317H144.182V295.857H165.273V232.429Z" fill="#FF7A00"/>
<path d="M270.727 295.857V211.286H249.636V232.429H228.545V211.286H207.455V274.714H186.364V253.571H165.273V274.714V295.857H144.182H123.091V338.143H144.182V401.571H165.273V422.714H186.364V380.429H165.273V359.286V338.143H186.364H207.455V317V295.857H270.727Z" fill="#FF9D00"/>
<path d="M228.545 443.857H186.364V380.429H165.273V338.143H207.455V295.857H270.727V274.714H291.818V317H270.727V338.143H291.818V359.286H270.727V401.571H228.545V443.857Z" fill="#FFD600"/>
<path d="M312.909 274.714V359.286H291.818V401.571H249.636V422.714V443.857H228.545V422.714V380.429H270.727V359.286H291.818V338.143H270.727V317H291.818V274.714H312.909Z" fill="#FF9D00"/>
<path d="M123.091 380.429V338.143H144.182V380.429H123.091Z" fill="#FF7A00"/>
<path d="M186.364 274.714V253.571H165.273V232.429H186.364V211.286H207.455V253.571V274.714H186.364Z" fill="#FF7A00"/>
<path d="M312.909 274.714H291.818H270.727V211.286H291.818V253.571H312.909V274.714Z" fill="#FF7A00"/>
<path d="M270.727 380.429H291.818V422.714H270.727V443.857H186.364V422.714H249.636V401.571H270.727V380.429Z" fill="#FF7A00"/>
<path d="M207.455 295.857V359.286H186.364V380.429H165.273V317H186.364V295.857H207.455Z" fill="#FFBF00"/>
<path d="M228.545 401.571V422.714H207.455H186.364V380.429H207.455V401.571H228.545Z" fill="#FFBF00"/>
<path d="M291.818 295.857V317H270.727V295.857H228.545V285.286V253.571H249.636V274.714H270.727V253.571H291.818V295.857Z" fill="#FFBF00"/>
<path d="M228.545 295.857V317H207.455V274.714H228.545V295.857Z" fill="#FFBF00"/>
<path d="M207.455 359.286V338.143V317H228.545V295.857H249.636V274.714H270.727V317H249.636V359.286H228.545H207.455Z" fill="#FFF1CD"/>
</svg>
