<svg width="66" height="126" viewBox="0 0 66 126" fill="none" xmlns="http://www.w3.org/2000/svg">
<path d="M54 120H48V126H24H18V120H12V102H6V84V54H12V60H18V54H24V60H30H42V54H48V60V66H54V72H60V84V102H54V120Z" fill="#FF5A00"/>
<path d="M60 24V18H66V24H60Z" fill="#FF5A00"/>
<path d="M48 18V12H54V18H48Z" fill="#FF5A00"/>
<path d="M60 42V30H66V42H60Z" fill="#FF5A00"/>
<path d="M48 48V36H54V48H48Z" fill="#FF5A00"/>
<path d="M36 42V30H42V42H36Z" fill="#FF5A00"/>
<path d="M6 42V36H12V42H6Z" fill="#FF5A00"/>
<path d="M0 24V18H6V24H0Z" fill="#FF5A00"/>
<path d="M24 24V18H30V24H24Z" fill="#FF5A00"/>
<path d="M12 12V6H18V12H12Z" fill="#FF5A00"/>
<path d="M42 30V24H48V30H42Z" fill="#FF5A00"/>
<path d="M30 30V24H36V30H30Z" fill="#FF5A00"/>
<path d="M54 54V48H60V54H54Z" fill="#FF5A00"/>
<path d="M54 102V96H60V102H54Z" fill="#FF5A00"/>
<path d="M24 54V48H30V54H24Z" fill="#FF5A00"/>
<path d="M24 48V42H30V48H24Z" fill="#FF5A00"/>
<path d="M36 60V54H42V60H36Z" fill="#FF5A00"/>
<path d="M18 48V42H24V48H18Z" fill="#FF5A00"/>
<path d="M30 42V36H36V42H30Z" fill="#FF5A00"/>
<path d="M30 48V42H36V48H30Z" fill="#FF5A00"/>
<path d="M42 48V42H48V48H42Z" fill="#FF5A00"/>
<path d="M48 54V48H54V54H48Z" fill="#FF5A00"/>
<path d="M18 42V36H24V42H18Z" fill="#FF5A00"/>
<path d="M12 36V24H18V36H12Z" fill="#FF5A00"/>
<path d="M0 66V48H6V66H0Z" fill="#FF5A00"/>
<path d="M60 66V54H66V66H60Z" fill="#FF5A00"/>
<path d="M18 78H12V90H6V102H12V108V114H24V102H18V96V90H24H30V84V78H48V72H42V66H36V60H30V72H24V66H18V78Z" fill="#FF9D00"/>
<path d="M60 102V78H54V84H48V90H54V96H48V108H36V114V120H42V114H54V108V102H60Z" fill="#FF9D00"/>
<path d="M36 120H24V102H18V90H30V78H48V72H54V84V96H48V108H36V120Z" fill="#FFD600"/>
<path d="M30 102V96H36V78H42V102H30Z" fill="#FFF1CD"/>
<path d="M18 66H12V72H6V90H12V78H18V66Z" fill="#FF7A00"/>
<path d="M6 102V96H12V102V114H18V120H12V114V102H6Z" fill="#FF7A00"/>
<path d="M42 60V54H48V60H42Z" fill="#FF7A00"/>
<path d="M18 66V60H24V66H18Z" fill="#FF7A00"/>
<path d="M18 60V54H24V60H18Z" fill="#FF7A00"/>
<path d="M48 72V66H54V72H48Z" fill="#FF7A00"/>
<path d="M54 78V72H60V78H54Z" fill="#FF7A00"/>
<path d="M24 66V60H30V66V72H24V66Z" fill="#FF7A00"/>
<path d="M42 120V114H48V120H42Z" fill="#FF7A00"/>
<path d="M24 78H30V90H24V96V102H18V90H24V78Z" fill="#FFBF00"/>
<path d="M36 114V120H30H24V108H30V114H36Z" fill="#FFBF00"/>
<path d="M54 78V84H48V72H54V78Z" fill="#FFBF00"/>
<path d="M36 75V84H30V66H36V75Z" fill="#FFBF00"/>
<path d="M54 60V54H60V60H54Z" fill="#FF5A00"/>
</svg>
