<svg width="66" height="126" viewBox="0 0 66 126" fill="none" xmlns="http://www.w3.org/2000/svg">
<path d="M18 66V60H48V66H54V72H60V78H66V108H60V120H48V126H24H18V120H6V108H0V78H6V72H12V66H18Z" fill="#FF5A00"/>
<path d="M18 84H12V90H6V102H12V108V114H24V102H18V96V90H24H30V84V78H48V72H42V66H36V60H30V72H24V66H18V84Z" fill="#FF9D00"/>
<path d="M60 102V78H54V84H48V90H54V96H48V108H36V114V120H42V114H54V108V102H60Z" fill="#FF9D00"/>
<path d="M36 120H24V102H18V90H30V78H48V72H54V84H48V90H54V96H48V108H36V120Z" fill="#FFD600"/>
<path d="M30 102V96H36V84H42V102H30Z" fill="#FFF1CD"/>
<path d="M18 72H12V78H6V90H12V84H18V72Z" fill="#FF7A00"/>
<path d="M6 114V102H12V114H18V120H6V114Z" fill="#FF7A00"/>
<path d="M24 66V60H30V66V72H24V66Z" fill="#FF7A00"/>
<path d="M42 120V114H54V102H60V120H42Z" fill="#FF7A00"/>
<path d="M30 84V96H24V102H18V90H24V84H30Z" fill="#FFBF00"/>
<path d="M36 114V120H30H24V108H30V114H36Z" fill="#FFBF00"/>
<path d="M54 78V84H48V72H54V78Z" fill="#FFBF00"/>
<path d="M36 78V84H30V72H36V78Z" fill="#FFBF00"/>
</svg>
