<svg width="437" height="483" viewBox="0 0 437 483" fill="none" xmlns="http://www.w3.org/2000/svg">
<path d="M166.273 252.571V231.429H271.727V252.571H292.818V294.857H313.909V358.286H335V400.571H313.909V442.857H271.727V464H187.364H166.273V442.857H124.091V400.571H103V358.286H124.091V294.857H145.182V252.571H166.273Z" fill="#FF5A00"/>
<path d="M313.909 62.2857V41.1429H335V62.2857H313.909Z" fill="#FF5A00"/>
<path d="M103 168V146.857H124.091V168H103Z" fill="#FF5A00"/>
<path d="M145.182 104.571V83.4286H166.273V104.571H145.182Z" fill="#FF5A00"/>
<path d="M229.545 83.4286V62.2857H250.636V83.4286H229.545Z" fill="#FF5A00"/>
<path d="M271.727 125.714V104.571H292.818V125.714H271.727Z" fill="#FF5A00"/>
<path d="M313.909 146.857V125.714H335V146.857H313.909Z" fill="#FF5A00"/>
<path d="M166.273 316H145.182V337.143H124.091V379.429H145.182V400.571V421.714H187.364V379.429H166.273V358.286V337.143H187.364H208.455V316V294.857H271.727V273.714H250.636V252.571H229.545V231.429H208.455V273.714H187.364V252.571H166.273V316Z" fill="#FF9D00"/>
<path d="M313.909 379.429V316H292.818H271.727V337.143H292.818V358.286H271.727V400.571H229.545V421.714V442.857H250.636V421.714H292.818V400.571V379.429H313.909Z" fill="#FF9D00"/>
<path d="M229.545 442.857H187.364V379.429H166.273V337.143H208.455V294.857H271.727H292.818V316H271.727V337.143H292.818V358.286H271.727V400.571H229.545V442.857Z" fill="#FFD600"/>
<path d="M208.455 379.429V358.286H229.545V316H250.636V379.429H208.455Z" fill="#FFF1CD"/>
<path d="M166.273 273.714H145.182V294.857H124.091V337.143H145.182V316H166.273V273.714Z" fill="#FF7A00"/>
<path d="M124.091 421.714V379.429H145.182V421.714H166.273V442.857H145.182V421.714H124.091Z" fill="#FF7A00"/>
<path d="M187.364 252.571V231.429H208.455V252.571V273.714H187.364V252.571Z" fill="#FF7A00"/>
<path d="M250.636 442.857V421.714H292.818V379.429H313.909V421.714H292.818V442.857H250.636Z" fill="#FF7A00"/>
<path d="M208.455 316V358.286H187.364V379.429H166.273V337.143H187.364V316H208.455Z" fill="#FFBF00"/>
<path d="M229.545 421.714V442.857H208.455H187.364V400.571H208.455V421.714H229.545Z" fill="#FFBF00"/>
<path d="M292.818 294.857V316H271.727V294.857H292.818Z" fill="#FFBF00"/>
<path d="M229.545 294.857V316H208.455V273.714H229.545V294.857Z" fill="#FFBF00"/>
</svg>
