<svg width="437" height="483" viewBox="0 0 437 483" fill="none" xmlns="http://www.w3.org/2000/svg">
<path d="M292.818 442.857H271.727V464H187.364H166.273V442.857H145.182V379.429H124.091V316V210.286H145.182V231.429H166.273V210.286H187.364V231.429H208.455H250.636V210.286H271.727V231.429V252.571H292.818V273.714H313.909V316V379.429H292.818V442.857Z" fill="#FF5A00"/>
<path d="M313.909 104.571V83.4286H335V104.571H313.909Z" fill="#FF5A00"/>
<path d="M271.727 83.4286V62.2857H292.818V83.4286H271.727Z" fill="#FF5A00"/>
<path d="M313.909 168V125.714H335V168H313.909Z" fill="#FF5A00"/>
<path d="M271.727 189.143V146.857H292.818V189.143H271.727Z" fill="#FF5A00"/>
<path d="M229.545 168V125.714H250.636V168H229.545Z" fill="#FF5A00"/>
<path d="M124.091 168V146.857H145.182V168H124.091Z" fill="#FF5A00"/>
<path d="M103 104.571V83.4286H124.091V104.571H103Z" fill="#FF5A00"/>
<path d="M187.364 104.571V83.4286H208.455V104.571H187.364Z" fill="#FF5A00"/>
<path d="M145.182 62.2857V41.1429H166.273V62.2857H145.182Z" fill="#FF5A00"/>
<path d="M250.636 125.714V104.571H271.727V125.714H250.636Z" fill="#FF5A00"/>
<path d="M208.455 125.714V104.571H229.545V125.714H208.455Z" fill="#FF5A00"/>
<path d="M292.818 210.286V189.143H313.909V210.286H292.818Z" fill="#FF5A00"/>
<path d="M292.818 379.429V358.286H313.909V379.429H292.818Z" fill="#FF5A00"/>
<path d="M187.364 210.286V189.143H208.455V210.286H187.364Z" fill="#FF5A00"/>
<path d="M187.364 189.143V168H208.455V189.143H187.364Z" fill="#FF5A00"/>
<path d="M229.545 231.429V210.286H250.636V231.429H229.545Z" fill="#FF5A00"/>
<path d="M166.273 189.143V168H187.364V189.143H166.273Z" fill="#FF5A00"/>
<path d="M208.455 168V146.857H229.545V168H208.455Z" fill="#FF5A00"/>
<path d="M208.455 189.143V168H229.545V189.143H208.455Z" fill="#FF5A00"/>
<path d="M250.636 189.143V168H271.727V189.143H250.636Z" fill="#FF5A00"/>
<path d="M271.727 210.286V189.143H292.818V210.286H271.727Z" fill="#FF5A00"/>
<path d="M166.273 168V146.857H187.364V168H166.273Z" fill="#FF5A00"/>
<path d="M145.182 146.857V104.571H166.273V146.857H145.182Z" fill="#FF5A00"/>
<path d="M103 252.571V189.143H124.091V252.571H103Z" fill="#FF5A00"/>
<path d="M313.909 252.571V210.286H335V252.571H313.909Z" fill="#FF5A00"/>
<path d="M166.273 294.857H145.182V337.143H124.091V379.429H145.182V400.571V421.714H187.364V379.429H166.273V358.286V337.143H187.364H208.455V316V294.857H271.727V273.714H250.636V252.571H229.545V231.429H208.455V273.714H187.364V252.571H166.273V294.857Z" fill="#FF9D00"/>
<path d="M313.909 379.429V294.857H292.818V316H271.727V337.143H292.818V358.286H271.727V400.571H229.545V421.714V442.857H250.636V421.714H292.818V400.571V379.429H313.909Z" fill="#FF9D00"/>
<path d="M229.545 442.857H187.364V379.429H166.273V337.143H208.455V294.857H271.727V273.714H292.818V316V358.286H271.727V400.571H229.545V442.857Z" fill="#FFD600"/>
<path d="M208.455 379.429V358.286H229.545V294.857H250.636V379.429H208.455Z" fill="#FFF1CD"/>
<path d="M166.273 252.571H145.182V273.714H124.091V337.143H145.182V294.857H166.273V252.571Z" fill="#FF7A00"/>
<path d="M124.091 379.429V358.286H145.182V379.429V421.714H166.273V442.857H145.182V421.714V379.429H124.091Z" fill="#FF7A00"/>
<path d="M250.636 231.429V210.286H271.727V231.429H250.636Z" fill="#FF7A00"/>
<path d="M166.273 252.571V231.429H187.364V252.571H166.273Z" fill="#FF7A00"/>
<path d="M166.273 231.429V210.286H187.364V231.429H166.273Z" fill="#FF7A00"/>
<path d="M271.727 273.714V252.571H292.818V273.714H271.727Z" fill="#FF7A00"/>
<path d="M292.818 294.857V273.714H313.909V294.857H292.818Z" fill="#FF7A00"/>
<path d="M187.364 252.571V231.429H208.455V252.571V273.714H187.364V252.571Z" fill="#FF7A00"/>
<path d="M250.636 442.857V421.714H271.727V442.857H250.636Z" fill="#FF7A00"/>
<path d="M187.364 294.857H208.455V337.143H187.364V358.286V379.429H166.273V337.143H187.364V294.857Z" fill="#FFBF00"/>
<path d="M229.545 421.714V442.857H208.455H187.364V400.571H208.455V421.714H229.545Z" fill="#FFBF00"/>
<path d="M292.818 294.857V316H271.727V273.714H292.818V294.857Z" fill="#FFBF00"/>
<path d="M229.545 284.286V316H208.455V252.571H229.545V284.286Z" fill="#FFBF00"/>
<path d="M292.818 231.429V210.286H313.909V231.429H292.818Z" fill="#FF5A00"/>
</svg>
