<svg xmlns="http://www.w3.org/2000/svg" width="437" height="483" fill="none"><path fill="#FF5A00" d="M166.273 210.286v21.143h21.091v-21.143h42.181v21.143h21.091v-21.143h21.091v-21.143h21.091v42.286h21.091v21.142H335V316h-21.091v84.571h-21.091v42.286h-21.091V464H166.273v-21.143h-21.091v-42.286h-21.091V316H103v-84.571h21.091v21.142h21.091v-42.285h21.091ZM103 146.857v-21.143h21.091v21.143H103Z"/><path fill="#FF5A00" d="M187.364 210.286v-21.143h21.091v21.143h-21.091Zm63.272 0v-63.429h21.091v63.429h-21.091Zm21.091-105.715V83.429h21.091v21.142h-21.091Zm-42.182 21.143v-21.143h21.091v21.143h-21.091Zm84.364-42.285V62.286H335v21.143h-21.091Zm-126.545 21.142V83.429h21.091v21.142h-21.091Zm-21.091 21.143v-21.143h21.091v21.143h-21.091Zm0 84.572V168h21.091v42.286h-21.091Zm0 21.143v-21.143h21.091v21.143h-21.091Z"/><path fill="#FF5A00" d="M229.545 210.286V168h21.091v42.286h-21.091ZM145.182 41.143V20h21.091v21.143h-21.091ZM103 210.286V168h21.091v21.143h21.091v42.286h-21.091v-21.143H103Z"/><path fill="#FF5A00" d="M103 210.286V168h21.091v21.143h21.091v42.286h-21.091v-21.143H103Zm84.364-21.143v-63.429h21.091v21.143h21.09v63.429h-21.09v-21.143h-21.091Zm126.545 42.286V168H335v63.429h-21.091Z"/><path fill="#FF5A00" d="M145.182 189.143v-63.429h21.091v63.429h-21.091Zm168.727-42.286v-42.286H335v42.286h-21.091ZM271.727 168v-42.286h21.091V168h-21.091Zm-126.545-63.429V62.286h21.091v42.285h-21.091Z"/><path fill="#FF7A00" d="M166.273 231.429h-21.091v21.142h-21.091V316h21.091v-21.143h21.091v-63.428Z"/><path fill="#FF9D00" d="M271.727 294.857v-84.571h-63.272v63.428h-21.091v-21.143h-21.091v42.286h-42.182v42.286h21.091v63.428h21.091v21.143h21.091v-42.285h-21.091v-42.286h42.182v-42.286h63.272Z"/><path fill="#FFD600" d="M229.545 442.857h-42.181v-63.428h-21.091v-42.286h42.182v-42.286h63.272v-21.143h21.091V316h-21.091v21.143h21.091v21.143h-21.091v42.285h-42.182v42.286Z"/><path fill="#FF9D00" d="M313.909 273.714v84.572h-21.091v42.285h-42.182v42.286h-21.091v-63.428h42.182v-21.143h21.091v-21.143h-21.091V316h21.091v-42.286h21.091Z"/><path fill="#FF7A00" d="M124.091 379.429v-42.286h21.091v42.286h-21.091Zm63.273-105.715v-21.143h-21.091v-21.142h21.091v-42.286h21.091v42.286h21.09v21.142h-21.09v21.143h-21.091Zm126.545 0h-42.182v-42.285h-21.091v-42.286h21.091v21.143h21.091v42.285h21.091v21.143Zm-42.182 105.715h21.091v42.285h-21.091v21.143h-84.363v-21.143h63.272v-21.143h21.091v-21.142Z"/><path fill="#FFF1CD" d="M208.455 379.429v-42.286h21.09v-42.286h21.091v84.572h-42.181Z"/><path fill="#FFBF00" d="M229.545 284.286V316h-21.09v-63.429h21.09v31.715Z"/><path fill="#FFBF00" d="M208.455 316v21.143h-21.091v-42.286h21.091V316Zm-21.091 21.143v21.143h-21.091V316h21.091v21.143Zm84.363-63.429v21.143h-21.091v-42.286h21.091v21.143Z"/></svg>