<svg xmlns="http://www.w3.org/2000/svg" width="437" height="483" fill="none"><path fill="#FF5A00" d="M292.818 442.857h-21.091V464H166.273v-21.143h-21.091v-63.428h-21.091V210.286h21.091v21.143h21.091v-21.143h21.091v21.143h63.272v-21.143h21.091v42.285h21.091v21.143h21.091v105.715h-21.091v63.428Zm21.091-338.286V83.429H335v21.142h-21.091Zm-42.182-21.142V62.286h21.091v21.143h-21.091ZM313.909 168v-42.286H335V168h-21.091Zm-42.182 21.143v-42.286h21.091v42.286h-21.091ZM229.545 168v-42.286h21.091V168h-21.091Zm-105.454 0v-21.143h21.091V168h-21.091ZM103 104.571V83.429h21.091v21.142H103Zm84.364 0V83.429h21.091v21.142h-21.091Zm-42.182-42.285V41.143h21.091v21.143h-21.091Zm105.454 63.428v-21.143h21.091v21.143h-21.091Zm-42.181 0v-21.143h21.09v21.143h-21.09Zm84.363 84.572v-21.143h21.091v21.143h-21.091Z"/><path fill="#FF5A00" d="M292.818 379.429v-21.143h21.091v21.143h-21.091ZM187.364 210.286v-21.143h21.091v21.143h-21.091Zm0-21.143V168h21.091v21.143h-21.091Zm42.181 42.286v-21.143h21.091v21.143h-21.091Zm-63.272-42.286V168h21.091v21.143h-21.091ZM208.455 168v-21.143h21.09V168h-21.09Zm0 21.143V168h21.09v21.143h-21.09Zm42.181 0V168h21.091v21.143h-21.091Zm21.091 21.143v-21.143h21.091v21.143h-21.091ZM166.273 168v-21.143h21.091V168h-21.091Zm-21.091-21.143v-42.286h21.091v42.286h-21.091ZM103 252.571v-63.428h21.091v63.428H103Zm210.909 0v-42.285H335v42.285h-21.091Z"/><path fill="#FF9D00" d="M166.273 294.857h-21.091v42.286h-21.091v42.286h21.091v42.285h42.182v-42.285h-21.091v-42.286h42.182v-42.286h63.272v-21.143h-21.091v-21.143h-21.091v-21.142h-21.09v42.285h-21.091v-21.143h-21.091v42.286Zm147.636 84.572v-84.572h-21.091V316h-21.091v21.143h21.091v21.143h-21.091v42.285h-42.182v42.286h21.091v-21.143h42.182v-42.285h21.091Z"/><path fill="#FFD600" d="M229.545 442.857h-42.181v-63.428h-21.091v-42.286h42.182v-42.286h63.272v-21.143h21.091v84.572h-21.091v42.285h-42.182v42.286Z"/><path fill="#FFF1CD" d="M208.455 379.429v-21.143h21.09v-63.429h21.091v84.572h-42.181Z"/><path fill="#FF7A00" d="M166.273 252.571h-21.091v21.143h-21.091v63.429h21.091v-42.286h21.091v-42.286Zm-42.182 126.858v-21.143h21.091v63.428h21.091v21.143h-21.091v-63.428h-21.091Zm126.545-148v-21.143h21.091v21.143h-21.091Zm-84.363 21.142v-21.142h21.091v21.142h-21.091Zm0-21.142v-21.143h21.091v21.143h-21.091Zm105.454 42.285v-21.143h21.091v21.143h-21.091Zm21.091 21.143v-21.143h21.091v21.143h-21.091Zm-105.454-42.286v-21.142h21.091v42.285h-21.091v-21.143Zm63.272 190.286v-21.143h21.091v21.143h-21.091Z"/><path fill="#FFBF00" d="M187.364 294.857h21.091v42.286h-21.091v42.286h-21.091v-42.286h21.091v-42.286Zm42.181 126.857v21.143h-42.181v-42.286h21.091v21.143h21.09Zm63.273-126.857V316h-21.091v-42.286h21.091v21.143Z"/><path fill="#FFBF00" d="M229.545 284.286V316h-21.09v-63.429h21.09v31.715Z"/><path fill="#FF5A00" d="M292.818 231.429v-21.143h21.091v21.143h-21.091Z"/></svg>