<svg xmlns="http://www.w3.org/2000/svg" width="437" height="483" fill="none"><path fill="#FF5A00" d="M165.273 169v21.143h21.091V169h21.091v21.143h21.09v21.143h21.091V169h21.091v-21.143h21.091v105.714h21.091v-42.285H334v148h-21.091v42.285h-21.091v42.286h-21.091V465H165.273v-21.143h-21.091v-42.286h-21.091v-42.285H102V190.143h21.091v42.286h21.091V169h21.091ZM102 169v-21.143h21.091V169H102Zm84.364-21.143v-21.143h21.091v21.143h-21.091Zm84.363-21.143v-21.143h21.091v21.143h-21.091ZM144.182 84.429V63.286h21.091v21.143h-21.091Zm0 63.428v-42.286h21.091v42.286h-21.091Z"/><path fill="#FF5A00" d="M312.909 190.143v-42.286H334v42.286h-21.091Z"/><path fill="#FF7A00" d="M165.273 232.429h-21.091v21.142h-21.091V317h21.091v-21.143h21.091v-63.428Z"/><path fill="#FF9D00" d="M270.727 295.857v-84.571h-21.091v21.143h-21.091v-21.143h-21.09v63.428h-21.091v-21.143h-21.091v42.286h-42.182v42.286h21.091v63.428h21.091v21.143h21.091v-42.285h-21.091v-42.286h42.182v-42.286h63.272Z"/><path fill="#FFD600" d="M228.545 443.857h-42.181v-63.428h-21.091v-42.286h42.182v-42.286h63.272v-21.143h21.091V317h-21.091v21.143h21.091v21.143h-21.091v42.285h-42.182v42.286Z"/><path fill="#FF9D00" d="M312.909 274.714v84.572h-21.091v42.285h-42.182v42.286h-21.091v-63.428h42.182v-21.143h21.091v-21.143h-21.091V317h21.091v-42.286h21.091Z"/><path fill="#FF7A00" d="M123.091 380.429v-42.286h21.091v42.286h-21.091Zm63.273-105.715v-21.143h-21.091v-21.142h21.091v-21.143h21.091v63.428h-21.091Zm126.545 0h-42.182v-63.428h21.091v42.285h21.091v21.143Zm-42.182 105.715h21.091v42.285h-21.091v21.143h-84.363v-21.143h63.272v-21.143h21.091v-21.142Z"/><path fill="#FFBF00" d="M207.455 295.857v63.429h-21.091v21.143h-21.091V317h21.091v-21.143h21.091Zm21.09 105.714v21.143h-42.181v-42.285h21.091v21.142h21.09Zm63.273-105.714V317h-21.091v-21.143h-42.182v-42.286h21.091v21.143h21.091v-21.143h21.091v42.286Z"/><path fill="#FFBF00" d="M228.545 295.857V317h-21.09v-42.286h21.09v21.143Z"/><path fill="#FFF1CD" d="M207.455 359.286V317h21.09v-21.143h21.091v-21.143h21.091V317h-21.091v42.286h-42.181Z"/></svg>