<svg xmlns="http://www.w3.org/2000/svg" width="437" height="483" fill="none"><path fill="#FF5A00" d="M165.273 252.571v-21.142h105.454v21.142h21.091v21.143h21.091v21.143H334v105.714h-21.091v42.286h-42.182V464H165.273v-21.143h-42.182v-42.286H102V294.857h21.091v-21.143h21.091v-21.143h21.091Z"/><path fill="#FF9D00" d="M165.273 316h-21.091v21.143h-21.091v42.286h21.091v42.285h42.182v-42.285h-21.091v-42.286h42.182v-42.286h63.272v-21.143h-21.091v-21.143h-21.091v-21.142h-21.09v42.285h-21.091v-21.143h-21.091V316Zm147.636 63.429v-84.572h-21.091V316h-21.091v21.143h21.091v21.143h-21.091v42.285h-42.182v42.286h21.091v-21.143h42.182v-42.285h21.091Z"/><path fill="#FFD600" d="M228.545 442.857h-42.181v-63.428h-21.091v-42.286h42.182v-42.286h63.272v-21.143h21.091V316h-21.091v21.143h21.091v21.143h-21.091v42.285h-42.182v42.286Z"/><path fill="#FFF1CD" d="M207.455 379.429v-21.143h21.09V316h21.091v63.429h-42.181Z"/><path fill="#FF7A00" d="M165.273 273.714h-21.091v21.143h-21.091v42.286h21.091V316h21.091v-42.286Zm-42.182 148v-42.285h21.091v42.285h21.091v21.143h-42.182v-21.143Zm63.273-169.143v-21.142h21.091v42.285h-21.091v-21.143Zm63.272 190.286v-21.143h42.182v-42.285h21.091v63.428h-63.273Z"/><path fill="#FFBF00" d="M207.455 316v42.286h-21.091v21.143h-21.091v-42.286h21.091V316h21.091Zm21.09 105.714v21.143h-42.181v-42.286h21.091v21.143h21.09Zm63.273-126.857V316h-21.091v-42.286h21.091v21.143Zm-63.273 0V316h-21.09v-42.286h21.09v21.143Z"/></svg>