<svg xmlns="http://www.w3.org/2000/svg" width="437" height="483" fill="none"><path fill="#FF5A00" d="M165.273 210.286v21.143h21.091v-21.143h42.181v21.143h21.091v-21.143h21.091v-21.143h21.091v84.571h21.091v-21.143H334v126.858h-21.091v42.285h-21.091v21.143h-21.091V464H165.273v-21.143h-21.091v-21.143h-21.091v-42.285H102v-148h21.091v42.285h21.091v-63.428h21.091Z"/><path fill="#FF5A00" d="M312.909 231.429v-21.143H334v21.143h-21.091Zm-168.727-42.286V168h21.091v21.143h-21.091Z"/><path fill="#FF9D00" d="M144.182 294.857V316h-21.091v42.286h21.091v63.428h42.182v-42.285h-21.091v-42.286h42.182v-42.286h63.272v-63.428h-21.091v21.142h-21.091v-21.142h-21.09v42.285h-21.091v-21.143h-21.091v42.286h-21.091Zm168.727 84.572v-84.572h-21.091V316h-21.091v21.143h21.091v21.143h-21.091v42.285h-42.182v42.286h21.091v-21.143h42.182v-42.285h21.091Z"/><path fill="#FFD600" d="M228.545 442.857h-42.181v-63.428h-21.091v-42.286h42.182v-42.286h63.272v-21.143h21.091V316h-21.091v21.143h21.091v21.143h-21.091v42.285h-42.182v42.286Z"/><path fill="#FFF1CD" d="M207.455 379.429v-21.143h21.09v-63.429h42.182V316h-21.091v63.429h-42.181Z"/><path fill="#FF7A00" d="M165.273 252.571h-21.091v21.143h-21.091V316h21.091v-21.143h21.091v-42.286Zm-42.182 148v-42.285h21.091v42.285h-21.091Zm63.273-148v-21.142h21.091v42.285h-21.091v-21.143Zm63.272 190.286v-21.143h21.091v-42.285h21.091v42.285h-21.091v21.143h-21.091Z"/><path fill="#FFBF00" d="M207.455 294.857v63.429h-21.091v21.143h-21.091V316h21.091v-21.143h21.091Zm21.09 126.857v21.143h-42.181v-42.286h21.091v21.143h21.09Zm63.273-126.857V316h-21.091v-21.143h-42.182v-21.143h63.273v21.143Z"/><path fill="#FFBF00" d="M228.545 294.857V316h-21.09v-42.286h21.09v21.143Z"/></svg>