<svg xmlns="http://www.w3.org/2000/svg" width="437" height="483" fill="none"><path fill="#FF5A00" d="M166.273 253.571v-21.142h105.454v21.142h21.091v42.286h21.091v35.238H335v70.476h-21.091v42.286h-42.182V465H166.273v-21.143h-42.182v-42.286H103v-63.428h21.091v-42.286h21.091v-42.286h21.091Z"/><path fill="#FF9D00" d="M166.273 317h-21.091v21.143h-21.091v42.286h21.091v42.285h42.182v-42.285h-21.091v-42.286h42.182v-42.286h84.363v-21.143h-21.091v-21.143h-63.272v21.143h-42.182V317Z"/><path fill="#FF9D00" d="M313.909 380.429V317h-42.182v21.143h21.091v21.143h-21.091v42.285h-42.182v42.286h21.091v-21.143h42.182v-42.285h21.091Z"/><path fill="#FFD600" d="M229.545 443.857h-42.181v-63.428h-21.091v-42.286h42.182v-42.286h84.363V317h-21.091v21.143h21.091v21.143h-21.091v42.285h-42.182v42.286Z"/><path fill="#FFF1CD" d="M229.545 380.429v-21.143h-21.09V317h42.181v42.286h21.091v21.143h-42.182Z"/><path fill="#FF7A00" d="M145.182 274.714h21.091V317h-21.091v21.143h-21.091V317h21.091v-42.286Zm-21.091 148v-42.285h21.091v42.285h-21.091Zm63.273-148v-21.143h21.091v21.143h-21.091Zm63.272 169.143v-21.143h42.182v-42.285h21.091v63.428h-63.273Z"/><path fill="#FFBF00" d="M208.455 317v42.286h-21.091v21.143h-21.091v-42.286h21.091V317h21.091Zm-21.091 126.857v-42.286h21.091v21.143h42.181v21.143h-63.272Zm105.454-137.428V317h-21.091v-21.143h21.091v10.572Zm-84.363-10.572v-21.143h21.09v21.143h-21.09Zm-42.182 105.714v-21.142h21.091v21.142h-21.091Zm-21.091-42.285v-21.143h21.091v21.143h-21.091Z"/><path fill="#FFBF00" d="M208.455 295.857v-21.143h21.09v21.143h-21.09Z"/></svg>