<svg xmlns="http://www.w3.org/2000/svg" width="27" height="60" fill="none"><path fill="#000" d="M4 2V1h19v1H4ZM3 3h1V2H3v1Zm0 23h1V8H3v18Zm1 1h1V8H4v19Zm2 2h1V8H6v21Zm2 1h1v1H8v-1Zm10 1h1V8h-1v23ZM7 30h1V8H7v22Zm12 0h1V8h-1v22Z"/><path fill="#fff" d="M18 8H9v23h1v1h1v1h1v1h3v-1h1v-1h1v-1h1V8Z"/><path fill="#000" d="M20 29h1V8h-1v21ZM5 28h1V8H5v20Zm16 0h1V8h-1v20Zm1-1h1V8h-1v19Zm1-1h1V8h-1v18Zm2-18h1V4h-1v4Zm-1-4h1V3h-1v1Zm-1-1h1V2h-1v1Z"/><path fill="#000" d="M1 8h25V7H1v1Z"/><path fill="#000" d="M1 8h1V4H1v4Zm1-4h1V3H2v1Zm15 28h1v-1h-1v1Zm-1 1h1v-1h-1v1Zm-1 1h1v-1h-1v1Zm-1 1h1v-1h-1v1Zm-1 0h1v-1h-1v1ZM4 45h5v-1H4v1Zm14 0h5v-1h-5v1ZM1 46h3v-1H1v1Zm22 0h3v-1h-3v1ZM9 44h1v-2H9v2Zm8 0h1v-2h-1v2Zm-7-2h1v-2h-1v2Zm6 0h1v-2h-1v2ZM7 52h1v-2H7v2Zm12 0h1v-2h-1v2ZM5 58h1v-2H5v2Zm16 0h1v-2h-1v2ZM6 56h1v-4H6v4Zm14 0h1v-4h-1v4Zm-9-16h1v-2h-1v2Zm4 0h1v-2h-1v2Zm-1-2h1v-1h-1v1Zm-2 0h1v-1h-1v1ZM1 47h1v-1H1v1Zm24 0h1v-1h-1v1ZM2 48h1v-1H2v1Zm22 0h1v-1h-1v1Zm-14 8h1v-1h-1v1Zm6 0h1v-1h-1v1Zm-7 1h1v-1H9v1Zm8 0h1v-1h-1v1Zm-4-3h1v-1h-1v1Zm-7 5h1v-1H6v1Zm14 0h1v-1h-1v1ZM3 49h2v-1H3v1Zm19 0h2v-1h-2v1Zm-11 6h2v-1h-2v1Zm3 0h2v-1h-2v1Zm-7 3h2v-1H7v1Zm11 0h2v-1h-2v1ZM5 50h2v-1H5v1Zm15 0h2v-1h-2v1Zm-7-13h1v-1h-1v1Zm0-1h1v-1h-1v1Zm-1-1h1v-1h-1v1Zm-1-1h1v-1h-1v1Zm-1-1h1v-1h-1v1Zm-1-1h1v-1H9v1Z"/><path fill="#929292" d="M23 2H4v1H3v1H2v3h23V4h-1V3h-1V2Z"/><path fill="#D9D9D9" d="M4 4h2v1H4V4Z"/><path fill="#D0CFCF" d="M8 3V2h2v1H8Z"/><path fill="#D9D9D9" d="M7 4V3H6v1h1ZM4 6V5H3v1h1Z"/><path fill="#FEBB38" d="M14 37h-1v1h-1v2h-1v2h-1v2H9v1H4v1H2v1h1v1h2v1h2v1h1v2H7v4H6v2h1v-1h2v-1h1v-1h1v-1h2v-1h1v1h2v1h1v1h1v1h2v1h1v-2h-1v-4h-1v-2h1v-1h2v-1h2v-1h1v-1h-2v-1h-5v-1h-1v-2h-1v-2h-1v-2h-1v-1Z"/><path fill="#FFE073" d="M12 44h-1v1h-1v4H9v4h1v-3h1v-1h1v-2h-1v-1h1v-2Z"/><path fill="#E2E2E2" d="M18 8H9v23h1v1h1v1h1v1h3v-1h1v-1h1v-1h1V8Z"/><path fill="#18AE9C" d="M12 18v-1h1v1h-1Zm0 4v-1h1v1h-1Zm0-1v-1h1v1h-1Zm0-1v-1h1v1h-1Zm0-1v-1h1v1h-1Zm0-2v-1h1v1h-1Zm0-1v-1h1v1h-1Zm-1 1v-1h1v1h-1Zm-1 1v-1h1v1h-1Z"/><path fill="#E2E2E2" d="M8 30h1V8H8v22Zm10 0h1V8h-1v22Z"/><path fill="#18AE9C" d="M14 21v-5h1v5h-1Zm1-5v-1h1v1h-1Zm0 6v-1h1v1h-1Zm1-1v-5h1v5h-1Z"/><path fill="#000" d="M4 2V1h19v1H4ZM3 3h1V2H3v1Zm0 23h1V8H3v18Zm1 1h1V8H4v19Zm2 2h1V8H6v21Zm2 1h1v1H8v-1Zm10 1h1V8h-1v23ZM7 30h1V8H7v22Zm12 0h1V8h-1v22Z"/><path fill="#fff" d="M18 8H9v23h1v1h1v1h1v1h3v-1h1v-1h1v-1h1V8Z"/><path fill="#000" d="M20 29h1V8h-1v21ZM5 28h1V8H5v20Zm16 0h1V8h-1v20Zm1-1h1V8h-1v19Zm1-1h1V8h-1v18Zm2-18h1V4h-1v4Zm-1-4h1V3h-1v1Zm-1-1h1V2h-1v1Z"/><path fill="#000" d="M1 8h25V7H1v1Z"/><path fill="#000" d="M1 8h1V4H1v4Zm1-4h1V3H2v1Zm15 28h1v-1h-1v1Zm-1 1h1v-1h-1v1Zm-1 1h1v-1h-1v1Zm-1 1h1v-1h-1v1Zm-1 0h1v-1h-1v1ZM4 45h5v-1H4v1Zm14 0h5v-1h-5v1ZM1 46h3v-1H1v1Zm22 0h3v-1h-3v1ZM9 44h1v-2H9v2Zm8 0h1v-2h-1v2Zm-7-2h1v-2h-1v2Zm6 0h1v-2h-1v2ZM7 52h1v-2H7v2Zm12 0h1v-2h-1v2ZM5 58h1v-2H5v2Zm16 0h1v-2h-1v2ZM6 56h1v-4H6v4Zm14 0h1v-4h-1v4Zm-9-16h1v-2h-1v2Zm4 0h1v-2h-1v2Zm-1-2h1v-1h-1v1Zm-2 0h1v-1h-1v1ZM1 47h1v-1H1v1Zm24 0h1v-1h-1v1ZM2 48h1v-1H2v1Zm22 0h1v-1h-1v1Zm-14 8h1v-1h-1v1Zm6 0h1v-1h-1v1Zm-7 1h1v-1H9v1Zm8 0h1v-1h-1v1Zm-4-3h1v-1h-1v1Zm-7 5h1v-1H6v1Zm14 0h1v-1h-1v1ZM3 49h2v-1H3v1Zm19 0h2v-1h-2v1Zm-11 6h2v-1h-2v1Zm3 0h2v-1h-2v1Zm-7 3h2v-1H7v1Zm11 0h2v-1h-2v1ZM5 50h2v-1H5v1Zm15 0h2v-1h-2v1Zm-7-13h1v-1h-1v1Zm0-1h1v-1h-1v1Zm-1-1h1v-1h-1v1Zm-1-1h1v-1h-1v1Zm-1-1h1v-1h-1v1Zm-1-1h1v-1H9v1Z"/><path fill="#929292" d="M23 2H4v1H3v1H2v3h23V4h-1V3h-1V2Z"/><path fill="#D9D9D9" d="M4 4h2v1H4V4Z"/><path fill="#D0CFCF" d="M8 3V2h2v1H8Z"/><path fill="#D9D9D9" d="M7 4V3H6v1h1ZM4 6V5H3v1h1Z"/><path fill="#FEBB38" d="M14 37h-1v1h-1v2h-1v2h-1v2H9v1H4v1H2v1h1v1h2v1h2v1h1v2H7v4H6v2h1v-1h2v-1h1v-1h1v-1h2v-1h1v1h2v1h1v1h1v1h2v1h1v-2h-1v-4h-1v-2h1v-1h2v-1h2v-1h1v-1h-2v-1h-5v-1h-1v-2h-1v-2h-1v-2h-1v-1Z"/><path fill="#FFE073" d="M12 44h-1v1h-1v4H9v4h1v-3h1v-1h1v-2h-1v-1h1v-2Z"/><path fill="#E2E2E2" d="M18 8H9v23h1v1h1v1h1v1h3v-1h1v-1h1v-1h1V8Z"/><path fill="#18AE9C" d="M12 18v-1h1v1h-1Zm0 4v-1h1v1h-1Zm0-1v-1h1v1h-1Zm0-1v-1h1v1h-1Zm0-1v-1h1v1h-1Zm0-2v-1h1v1h-1Zm0-1v-1h1v1h-1Zm-1 1v-1h1v1h-1Zm-1 1v-1h1v1h-1Z"/><path fill="#E2E2E2" d="M8 30h1V8H8v22Zm10 0h1V8h-1v22Z"/><path fill="#18AE9C" d="M14 21v-5h1v5h-1Zm1-5v-1h1v1h-1Zm0 6v-1h1v1h-1Zm1-1v-5h1v5h-1Z"/></svg>