<svg xmlns="http://www.w3.org/2000/svg" width="291" height="287" fill="none"><path fill="#EDEDED" d="M164 41h20v20h-20V41Zm0 20h20v20h-20V61Zm20 20h20v20h-20V81Zm0-20h20v20h-20V61Zm20 20h20v20h-20V81Zm0 20h20v20h-20v-20Zm-20 0h20v20h-20v-20Zm-20-20h20v20h-20V81Zm-20-20h20v20h-20V61Zm0-20h20v20h-20V41Z"/><path stroke="#EDEDED" stroke-width="5" d="M164 41h20v20m-20-20v20m0-20h-20v20m40 0h-20m20 0v20m0-20h20v20m-40-20v20m0-20h-20m40 20h-20m20 0h20m-20 0v20m-20-20v20h20m-20-20h-20V61m60 20v20m0-20h20v20m-20 0h-20m20 0h20m-20 0v20m-20-20v20h20m20-20v20h-20"/><path fill="#949494" d="M44 61h20v20H44V61ZM24 81h20v20H24V81Zm0 60h20v20H24v-20Zm0 20h20v20H24v-20Zm0 20h20v20H24v-20Zm100 60h20v20h-20v-20Zm60 0h20v20h-20v-20Zm-20 0h20v20h-20v-20Zm-20 0h20v20h-20v-20Zm-40-20h20v20h-20v-20Zm0 20h20v20h-20v-20Zm-20-20h20v20H84v-20Zm0 20h20v20H84v-20Zm-20-40h20v20H64v-20Zm0 20h20v20H64v-20Zm-20-40h20v20H44v-20Zm0 20h20v20H44v-20Zm0-40h20v20H44v-20Zm-20-40h20v20H24v-20Zm0-20h20v20H24v-20Z"/><path stroke="#949494" stroke-width="5" d="M44 81h20V61H44v20Zm0 0H24v20m20-20v20m0 0H24m20 0v20m-20-20v20m0 20h20m-20 0v20m0-20v-20m20 20v20m0-20v-20m0 40H24m20 0v20m0-20h20v20m-40-20v20m20 0H24m20 0v20m0-20h20m-40 0v20h20m0 0h20m-20 0v20h20m60 20h20m-20 0v20m0-20v-20h-20m20 20h-20m40 0v20m0-20h20m-20 20h-20m20 0h20m-40 0h-20m80-20h20v20h-20m0-20v20m0-20h-20m20 20h-20m0-20v20m-60-40v20m0-20H84m20 20v20m0-20H84m20 20H84v-20m0-20v20m0-20v-20H64m20 20H64m20 20H64v-20m0-20v20m0-20v-20m-40-60h20"/><path fill="#D9D9D9" d="M64 41h20v20H64V41Zm40-20h20v20h-20V21Zm0 20h20v20h-20V41Zm20-20h20v20h-20V21Zm40 0h20v20h-20V21Zm20 0h20v20h-20V21Zm0 20h20v20h-20V41Zm20 0h20v20h-20V41Zm0 20h20v20h-20V61Zm20 0h20v20h-20V61Zm0 60h20v20h-20v-20Zm0-20h20v20h-20v-20Zm0 40h20v20h-20v-20Zm0 40h20v20h-20v-20Zm0-100h20v20h-20V81Zm0 80h20v20h-20v-20Zm20-40h20v20h-20v-20Zm0-20h20v20h-20v-20Zm0 40h20v20h-20v-20Zm0-60h20v20h-20V81Zm0 80h20v20h-20v-20Zm-40-20h20v20h-20v-20Zm0-20h20v20h-20v-20Zm0 40h20v20h-20v-20Zm0 40h20v20h-20v-20Zm-20 20h20v20h-20v-20Zm60-40h20v20h-20v-20Zm-20 20h20v20h-20v-20Zm-20 20h20v20h-20v-20ZM84 201h20v20H84v-20Zm40 20h20v20h-20v-20Zm-40-60h20v20H84v-20Zm-20 0h20v20H64v-20Zm20-20h20v20H84v-20Zm-20-20h20v20H64v-20Zm0-20h20v20H64v-20Zm20 0h20v20H84v-20ZM64 81h20v20H64V81Zm20 0h20v20H84V81ZM64 61h20v20H64V61Zm20 60h20v20H84v-20Zm0-60h20v20H84V61ZM44 81h20v20H44V81Zm0 60h20v20H44v-20Zm0-20h20v20H44v-20Zm0-20h20v20H44v-20Zm20 40h20v20H64v-20Zm20 40h20v20H84v-20Zm-20 0h20v20H64v-20Zm40 0h20v20h-20v-20Zm0 20h20v20h-20v-20Zm20 0h20v20h-20v-20Zm20 20h20v20h-20v-20Zm20 0h20v20h-20v-20Zm40-40h20v20h-20v-20ZM104 61h20v20h-20V61Zm0 40h20v20h-20v-20Zm0-20h20v20h-20V81Zm0 40h20v20h-20v-20Zm0 40h20v20h-20v-20Zm0-20h20v20h-20v-20Zm20-80h20v20h-20V61Zm0 20h20v20h-20V81Zm0 40h20v20h-20v-20Zm0-20h20v20h-20v-20Zm0 40h20v20h-20v-20Zm0 40h20v20h-20v-20Zm0-20h20v20h-20v-20Zm20-80h20v20h-20V81Zm0 20h20v20h-20v-20Zm0 40h20v20h-20v-20Zm0-20h20v20h-20v-20Zm0 40h20v20h-20v-20Zm0 40h20v20h-20v-20Zm0-20h20v20h-20v-20Zm20-80h20v20h-20v-20Zm0 20h20v20h-20v-20Zm0 40h20v20h-20v-20Zm0-20h20v20h-20v-20Zm0 60h20v20h-20v-20Zm0-20h20v20h-20v-20Zm20-60h20v20h-20v-20Zm0 20h20v20h-20v-20Zm0 40h20v20h-20v-20Zm0 20h20v20h-20v-20Zm0-40h20v20h-20v-20ZM124 41h20v20h-20V41Zm20-20h20v20h-20V21Zm-60 0h20v20H84V21Zm0 20h20v20H84V41Z"/><path stroke="#D9D9D9" stroke-width="5" d="M84 41H64v20m20-20v20m0-20h20m-20 0V21h20M84 61H64m20 0v20m0-20h20m-40 0v20m40-60h20m-20 0v20m20-20v20m0-20h20m-20 20h-20m20 0v20m0-20h20m-40 0v20m20 0h-20m20 0v20m0-20h20m-40 0v20m40-60v20m0-20h20m-20 20v20m0-20h20m0-20h20m-20 0v20m20-20v20m0-20h20v20m-20 0h-20m20 0h20m-20 0v20h20m0-20v20m0-20h20v20m-20 0h20m-20 0v20h20m0-20v20m0-20h20v20m-20 0h20m-20 0v20m20-20v20m0-20h20v20m-40 20h20m-20 0v20m0-20v-20m0 20h-20m40 0v20m0-20v-20m0 20h20m-20 20h-20m20 0v20m0-20h20m-40 0v20m0-20h-20m20-40h20m0 0h20m-20 60h-20m20 0v20m0-20h20m-40 0v20m0-20h-20m20 20h20m-20 0v20m0-20h-20m40 0v20m0-20h20m-20 20h-20m20 0h20v-20m-20 20v20h-20m0-20h-20m20 0v20m40-100v20m0-20v-20m0 40v20m0 0v20m-60-40v20m0-20v-20m0 20h-20m20 20v20m0-20h-20m20-40h-20m20 60v20m0-20h-20m20 20v20m0-20h-20m40 20h-20m20 0v20h-20m0-20h-20m20 0v20m-20-20v20m0-20h-20m20 0v-20m20 40h-20m0 0h-20m-80-40h20m-20 0v20h20m-20-20v-20m0 20H64v-20m40 20v20m0-20v-20m0 20h20m-20 20h20m0 0h20m-20 0v20h20m-20-20v-20m20 20v20m0-20v-20m0 20h20m-20 20h20m-80-80h20m-20 0v20m0-20H64m20 0v-20m20 20v20m0-20v-20m0 20h20m-20 20H84m20 0h20m-40 0H64m0-20v20m0-20v-20m0 20H44v-20m40 0h20m-20 0v-20m0 20H64m40 0v-20m0 20h20m-60-20h20m-20 0v20m0-20v-20m0 20H44m40 0v-20m0 20h20m-40 20H44m20-40h20m-20 0V81m0 20H44m40 0h20m-20 0V81m20 20v20m0-20V81m0 20h20m-20 20h20M64 81h20m-20 0H44v20m40-20h20m0 0h20m-80 20v20m0 20v-20m80 60v20m0-20v-20m0 20h20m-20 20h20m0 0v-20m0 20h20m0 20v20m0-20v-20M124 81v20m0-20h20m-20 20v20m0-20h20m-20 20v20m0-20h20m-20 20v20m0-20h20m-20 20h20m0-100v20m0 0v20m0-20h20v20m-20 0v20m0-20h20m-20 20v20m0-20h20m-20 20v20m0-20h20m-20 20v20m0-20h20m-20 20h20m0-80v20m0-20h20v20m-20 0v20m0-20h20m-20 20v20m0-20h20m-20 20v20m0-20h20m-20 20v20m0-20h20m-20 20h20m0-80v20m0 0v20m0 0v20m0 0v20"/></svg>