<svg width="437" height="483" viewBox="0 0 437 483" fill="none" xmlns="http://www.w3.org/2000/svg">
<rect x="55" y="179" width="338" height="84" fill="#7B15A0"/>
<rect x="77" y="259" width="295" height="173" fill="#7B15A0"/>
<rect x="77" y="259" width="295" height="173" fill="#7B15A0"/>
<rect x="77" y="200" width="295" height="42" fill="#C55CF4"/>
<rect x="95" y="276" width="64" height="136" fill="#C55CF4"/>
<rect x="95" y="276" width="64" height="136" fill="#C55CF4"/>
<rect x="95" y="276" width="64" height="136" fill="#C55CF4"/>
<rect x="287" y="276" width="64" height="136" fill="#C55CF4"/>
<rect x="287" y="276" width="64" height="136" fill="#C55CF4"/>
<rect x="287" y="276" width="64" height="136" fill="#C55CF4"/>
<rect x="77" y="263" width="295" height="21" fill="#550A7C"/>
<rect x="98" y="136" width="85" height="22" fill="#FFB600"/>
<rect x="98" y="136" width="85" height="22" fill="#FFB600"/>
<rect x="98" y="136" width="85" height="22" fill="#FFB600"/>
<rect x="98" y="136" width="85" height="22" fill="#FFB600"/>
<rect x="98" y="136" width="85" height="22" fill="#FFB600"/>
<rect x="98" y="136" width="85" height="22" fill="#FFB600"/>
<rect x="98" y="136" width="85" height="22" fill="#FFB600"/>
<rect x="98" y="136" width="85" height="22" fill="#FFB600"/>
<rect x="118" y="115" width="65" height="64" fill="#FFB600"/>
<rect x="118" y="115" width="65" height="64" fill="#FFB600"/>
<rect x="118" y="115" width="65" height="64" fill="#FFB600"/>
<rect x="118" y="115" width="65" height="64" fill="#FFB600"/>
<rect x="118" y="115" width="65" height="64" fill="#FFB600"/>
<rect x="118" y="115" width="65" height="64" fill="#FFB600"/>
<rect x="118" y="115" width="65" height="64" fill="#FFB600"/>
<rect x="118" y="115" width="65" height="64" fill="#FFB600"/>
<rect x="137" y="94" width="65" height="64" fill="#FFB600"/>
<rect x="137" y="94" width="65" height="64" fill="#FFB600"/>
<rect x="137" y="94" width="65" height="64" fill="#FFB600"/>
<rect x="137" y="94" width="65" height="64" fill="#FFB600"/>
<rect x="137" y="94" width="65" height="64" fill="#FFB600"/>
<rect x="137" y="94" width="65" height="64" fill="#FFB600"/>
<rect x="137" y="94" width="65" height="64" fill="#FFB600"/>
<rect x="137" y="94" width="65" height="64" fill="#FFB600"/>
<rect x="265" y="94" width="65" height="64" fill="#FFB600"/>
<rect x="265" y="94" width="65" height="64" fill="#FFB600"/>
<rect x="265" y="94" width="65" height="64" fill="#FFB600"/>
<rect x="265" y="94" width="65" height="64" fill="#FFB600"/>
<rect x="265" y="94" width="65" height="64" fill="#FFB600"/>
<rect x="265" y="94" width="65" height="64" fill="#FFB600"/>
<rect x="265" y="94" width="65" height="64" fill="#FFB600"/>
<rect x="265" y="94" width="65" height="64" fill="#FFB600"/>
<rect x="246" y="115" width="106" height="43" fill="#FFB600"/>
<rect x="246" y="115" width="106" height="43" fill="#FFB600"/>
<rect x="246" y="115" width="106" height="43" fill="#FFB600"/>
<rect x="246" y="115" width="106" height="43" fill="#FFB600"/>
<rect x="246" y="115" width="106" height="43" fill="#FFB600"/>
<rect x="246" y="115" width="106" height="43" fill="#FFB600"/>
<rect x="246" y="115" width="106" height="43" fill="#FFB600"/>
<rect x="246" y="115" width="106" height="43" fill="#FFB600"/>
<rect x="287" y="94" width="43" height="85" fill="#FFB600"/>
<rect x="287" y="94" width="43" height="85" fill="#FFB600"/>
<rect x="287" y="94" width="43" height="85" fill="#FFB600"/>
<rect x="287" y="94" width="43" height="85" fill="#FFB600"/>
<rect x="287" y="94" width="43" height="85" fill="#FFB600"/>
<rect x="287" y="94" width="43" height="85" fill="#FFB600"/>
<rect x="287" y="94" width="43" height="85" fill="#FFB600"/>
<rect x="287" y="94" width="43" height="85" fill="#FFB600"/>
<rect x="202" y="137" width="64" height="63" fill="#FFB600"/>
<rect x="202" y="137" width="64" height="63" fill="#FFB600"/>
<rect x="202" y="137" width="64" height="63" fill="#FFB600"/>
<rect x="202" y="137" width="64" height="63" fill="#FFB600"/>
<rect x="202" y="137" width="64" height="63" fill="#FFB600"/>
<rect x="202" y="137" width="64" height="63" fill="#FFB600"/>
<rect x="202" y="137" width="64" height="63" fill="#FFB600"/>
<rect x="202" y="137" width="64" height="63" fill="#FFB600"/>
<rect x="183" y="179" width="83" height="253" fill="#FFB600"/>
<rect x="183" y="179" width="83" height="253" fill="#FFB600"/>
<rect x="183" y="179" width="83" height="253" fill="#FFB600"/>
<rect x="183" y="179" width="83" height="253" fill="#FFB600"/>
<rect x="183" y="179" width="83" height="253" fill="#FFB600"/>
<rect x="183" y="179" width="83" height="253" fill="#FFB600"/>
<rect x="183" y="179" width="83" height="253" fill="#FFB600"/>
<rect x="183" y="179" width="83" height="253" fill="#FFB600"/>
<rect x="246" y="412" width="23" height="212" transform="rotate(-180 246 412)" fill="#FDFF76"/>
<rect x="246" y="412" width="23" height="212" transform="rotate(-180 246 412)" fill="#FDFF76"/>
<rect x="246" y="412" width="23" height="212" transform="rotate(-180 246 412)" stroke="black"/>
<rect x="162" y="179" width="23" height="64" transform="rotate(-180 162 179)" fill="#FDFF76"/>
<rect x="162" y="179" width="23" height="64" transform="rotate(-180 162 179)" fill="#FDFF76"/>
<rect x="162" y="179" width="23" height="64" transform="rotate(-180 162 179)" stroke="black"/>
<rect x="162" y="158" width="44" height="22" transform="rotate(-180 162 158)" fill="#FDFF76"/>
<rect x="162" y="158" width="44" height="22" transform="rotate(-180 162 158)" fill="#FDFF76"/>
<rect x="162" y="158" width="44" height="22" transform="rotate(-180 162 158)" stroke="black"/>
<rect x="184" y="137" width="44" height="22" transform="rotate(-180 184 137)" fill="#FDFF76"/>
<rect x="184" y="137" width="44" height="22" transform="rotate(-180 184 137)" fill="#FDFF76"/>
<rect x="184" y="137" width="44" height="22" transform="rotate(-180 184 137)" stroke="black"/>
<rect x="330" y="137" width="64" height="22" transform="rotate(-180 330 137)" fill="#FDFF76"/>
<rect x="330" y="137" width="64" height="22" transform="rotate(-180 330 137)" fill="#FDFF76"/>
<rect x="330" y="137" width="64" height="22" transform="rotate(-180 330 137)" stroke="black"/>
<rect x="330" y="158" width="22" height="43" transform="rotate(-180 330 158)" fill="#FDFF76"/>
<rect x="330" y="158" width="22" height="43" transform="rotate(-180 330 158)" fill="#FDFF76"/>
<rect x="330" y="158" width="22" height="43" transform="rotate(-180 330 158)" stroke="black"/>
<rect x="266" y="242" width="64" height="42" transform="rotate(-180 266 242)" fill="#FDFF76"/>
<rect x="266" y="242" width="64" height="42" transform="rotate(-180 266 242)" fill="#FDFF76"/>
<rect x="266" y="242" width="64" height="42" transform="rotate(-180 266 242)" stroke="black"/>
<rect x="159" y="179" width="24" height="253" fill="#54097A"/>
<rect x="266" y="179" width="24" height="253" fill="#54097A"/>
</svg>
