<svg xmlns="http://www.w3.org/2000/svg" width="437" height="483" fill="none"><path fill="#7B15A0" d="M55 179h338v84H55z"/><path fill="#7B15A0" d="M77 259h295v173H77z"/><path fill="#7B15A0" d="M77 259h295v173H77z"/><path fill="#C55CF4" d="M77 200h295v42H77zm18 76h64v136H95z"/><path fill="#C55CF4" d="M95 276h64v136H95z"/><path fill="#C55CF4" d="M95 276h64v136H95zm192 0h64v136h-64z"/><path fill="#C55CF4" d="M287 276h64v136h-64z"/><path fill="#C55CF4" d="M287 276h64v136h-64z"/><path fill="#550A7C" d="M77 263h295v21H77z"/><path fill="#FFB600" d="M98 136h85v22H98z"/><path fill="#FFB600" d="M98 136h85v22H98z"/><path fill="#FFB600" d="M98 136h85v22H98z"/><path fill="#FFB600" d="M98 136h85v22H98z"/><path fill="#FFB600" d="M98 136h85v22H98z"/><path fill="#FFB600" d="M98 136h85v22H98z"/><path fill="#FFB600" d="M98 136h85v22H98z"/><path fill="#FFB600" d="M98 136h85v22H98z"/><path fill="#FFB600" d="M118 115h65v64h-65z"/><path fill="#FFB600" d="M118 115h65v64h-65z"/><path fill="#FFB600" d="M118 115h65v64h-65z"/><path fill="#FFB600" d="M118 115h65v64h-65z"/><path fill="#FFB600" d="M118 115h65v64h-65z"/><path fill="#FFB600" d="M118 115h65v64h-65z"/><path fill="#FFB600" d="M118 115h65v64h-65z"/><path fill="#FFB600" d="M118 115h65v64h-65z"/><path fill="#FFB600" d="M137 94h65v64h-65z"/><path fill="#FFB600" d="M137 94h65v64h-65z"/><path fill="#FFB600" d="M137 94h65v64h-65z"/><path fill="#FFB600" d="M137 94h65v64h-65z"/><path fill="#FFB600" d="M137 94h65v64h-65z"/><path fill="#FFB600" d="M137 94h65v64h-65z"/><path fill="#FFB600" d="M137 94h65v64h-65z"/><path fill="#FFB600" d="M137 94h65v64h-65zm128 0h65v64h-65z"/><path fill="#FFB600" d="M265 94h65v64h-65z"/><path fill="#FFB600" d="M265 94h65v64h-65z"/><path fill="#FFB600" d="M265 94h65v64h-65z"/><path fill="#FFB600" d="M265 94h65v64h-65z"/><path fill="#FFB600" d="M265 94h65v64h-65z"/><path fill="#FFB600" d="M265 94h65v64h-65z"/><path fill="#FFB600" d="M265 94h65v64h-65z"/><path fill="#FFB600" d="M246 115h106v43H246z"/><path fill="#FFB600" d="M246 115h106v43H246z"/><path fill="#FFB600" d="M246 115h106v43H246z"/><path fill="#FFB600" d="M246 115h106v43H246z"/><path fill="#FFB600" d="M246 115h106v43H246z"/><path fill="#FFB600" d="M246 115h106v43H246z"/><path fill="#FFB600" d="M246 115h106v43H246z"/><path fill="#FFB600" d="M246 115h106v43H246z"/><path fill="#FFB600" d="M287 94h43v85h-43z"/><path fill="#FFB600" d="M287 94h43v85h-43z"/><path fill="#FFB600" d="M287 94h43v85h-43z"/><path fill="#FFB600" d="M287 94h43v85h-43z"/><path fill="#FFB600" d="M287 94h43v85h-43z"/><path fill="#FFB600" d="M287 94h43v85h-43z"/><path fill="#FFB600" d="M287 94h43v85h-43z"/><path fill="#FFB600" d="M287 94h43v85h-43zm-85 43h64v63h-64z"/><path fill="#FFB600" d="M202 137h64v63h-64z"/><path fill="#FFB600" d="M202 137h64v63h-64z"/><path fill="#FFB600" d="M202 137h64v63h-64z"/><path fill="#FFB600" d="M202 137h64v63h-64z"/><path fill="#FFB600" d="M202 137h64v63h-64z"/><path fill="#FFB600" d="M202 137h64v63h-64z"/><path fill="#FFB600" d="M202 137h64v63h-64z"/><path fill="#FFB600" d="M183 179h83v253h-83z"/><path fill="#FFB600" d="M183 179h83v253h-83z"/><path fill="#FFB600" d="M183 179h83v253h-83z"/><path fill="#FFB600" d="M183 179h83v253h-83z"/><path fill="#FFB600" d="M183 179h83v253h-83z"/><path fill="#FFB600" d="M183 179h83v253h-83z"/><path fill="#FFB600" d="M183 179h83v253h-83z"/><path fill="#FFB600" d="M183 179h83v253h-83z"/><path fill="#FDFF76" d="M246 412h-23V200h23z"/><path fill="#FDFF76" d="M246 412h-23V200h23z"/><path stroke="#000" d="M246 412h-23V200h23z"/><path fill="#FDFF76" d="M162 179h-23v-64h23z"/><path fill="#FDFF76" d="M162 179h-23v-64h23z"/><path stroke="#000" d="M162 179h-23v-64h23z"/><path fill="#FDFF76" d="M162 158h-44v-22h44z"/><path fill="#FDFF76" d="M162 158h-44v-22h44z"/><path stroke="#000" d="M162 158h-44v-22h44z"/><path fill="#FDFF76" d="M184 137h-44v-22h44z"/><path fill="#FDFF76" d="M184 137h-44v-22h44z"/><path stroke="#000" d="M184 137h-44v-22h44z"/><path fill="#FDFF76" d="M330 137h-64v-22h64z"/><path fill="#FDFF76" d="M330 137h-64v-22h64z"/><path stroke="#000" d="M330 137h-64v-22h64z"/><path fill="#FDFF76" d="M330 158h-22v-43h22z"/><path fill="#FDFF76" d="M330 158h-22v-43h22z"/><path stroke="#000" d="M330 158h-22v-43h22z"/><path fill="#FDFF76" d="M266 242h-64v-42h64z"/><path fill="#FDFF76" d="M266 242h-64v-42h64z"/><path stroke="#000" d="M266 242h-64v-42h64z"/><path fill="#54097A" d="M159 179h24v253h-24zm107 0h24v253h-24z"/></svg>