<svg xmlns="http://www.w3.org/2000/svg" width="729" height="160" fill="none"><path fill="#CFCFCF" d="m569.5 13.5-4-13-4 13h8Zm-27.5 130L565 91l-21-77.5L526.5 65l15.5 78.5Zm56-35.5-5-17-25 52.5 5 16.5 25-52Z"/><path fill="#929292" d="M593 91h-28l-23 52.5h26L593 91Z"/><path fill="#828282" d="m661 84.5 33.5-58h-100l-16 58H661Z"/><path fill="#CFCFCF" d="m670 76-9-19-20.5 40.5 10.5 16L670 76Z"/><path fill="#929292" d="M702.5 91H729l-40 53h-22l35.5-53Z"/><path fill="#959595" d="m673 160 37.5-52H598l-25 52h100Zm-126-52h-53l-15 52h50.5l17.5-52Z"/><path fill="#858585" d="M640.5 97.5 661 57h-27.5l-19 40 26 .5Z"/><path fill="#CFCFCF" d="m633.5 57-6-15L610 80.5l4.5 16.5 19-40Zm-161-29L476 .5l5.5 27.5h-9Zm21.5 80-6.5-35.5-14.5 57 6 30.5 15-52Z"/><path fill="#929292" d="M473 129.5h-22.5l10-57h27l-14.5 57Z"/><path fill="#CFCFCF" d="m449.5 118 8.5-62c.833 5.167 2.5 15.7 2.5 16.5 0 .8-6.333 38.333-10 57l-1-11.5Z"/><path fill="#858585" d="M458 56h-29.5l2 52-.7 10h19.7l8.5-62Z"/><path fill="#959595" d="M379 160v-52h51.5l-3.5 52h-48Z"/><path fill="#929292" d="M331.5 91H360v52.5h-25s-2.5-35-3.5-52.5Z"/><path fill="#CFCFCF" d="M335 143.5 331.5 91l-1 17 4 52 .5-16.5ZM211.5 74 196 13.5l-12.5 40 20.5 62 7.5-41.5Zm-28 41.5-25-62L152 70l25.5 58.5 6-13Z"/><path fill="#8C8C8C" d="m183.5 53.5 20.5 62h-20.5l-25-62h25Z"/><path fill="#929292" d="M213 143.5 195.5 91H223l10.5 52.5H213Z"/><path fill="#959595" d="m91 160-35-52.5H.5L40 160h51Zm61-90H72.5l32.5 58.5h72.5L152 70Z"/><path fill="#CFCFCF" d="M105 128.5 72.5 70 56 107.5 91 160l14-31.5Z"/><path fill="#fff" d="M544 13.5h25.5l-4-13H658l6 13h24l6.5 13h-100l18 49.5H670l-9-19h-27.5l-6-15H679l7 15h26l17 34h-26.5l8 17H598l-5-17h-28l-21-77.5ZM424.816.5H379V108h51.5l-2-52H458l2.5 16.5h27L494 108h53L521 .5h-45l5.5 27.5H454l-2.5-14.5h-26l-.684-13ZM60 1h116l-4.287 12.5H196l-12.5 40h-25L152 70H72.5L56 107.5H.5l43-77L60 1Z"/><path fill="#CFCFCF" d="M179.5 13.5 176 1l-4.289 12.5h7.789Z"/><path fill="#858585" d="m103 42-7.5-19.5H147L138.635 42H103Z"/><path fill="#CFCFCF" d="M103 42H86.5l9-19.5L103 42Z"/><path fill="#959595" d="M233.5 160 219 108h111.5l4 52h-101Z"/><path fill="#858585" d="M315 24h-53.5l4 46h45l4.5-46Z"/><path fill="#CFCFCF" d="m264 78 1.5-8-4-46-11 54H264Z"/><path fill="#fff" fill-rule="evenodd" d="m330.5 108 1-17H360V13h-24l.5-12.5h-93L241 13h-23.5l-22 78H223l-4 17h111.5Zm-21-30 5.5-54h-53.5l-11 54h59Z" clip-rule="evenodd"/><path fill="#CFCFCF" d="m569.5 13.5-4-13-4 13h8Zm-27.5 130L565 91l-21-77.5L526.5 65l15.5 78.5Zm56-35.5-5-17-25 52.5 5 16.5 25-52Z"/><path fill="#929292" d="M593 91h-28l-23 52.5h26L593 91Z"/><path fill="#828282" d="m661 84.5 33.5-58h-100l-16 58H661Z"/><path fill="#CFCFCF" d="m670 76-9-19-20.5 40.5 10.5 16L670 76Z"/><path fill="#929292" d="M702.5 91H729l-40 53h-22l35.5-53Z"/><path fill="#959595" d="m673 160 37.5-52H598l-25 52h100Zm-126-52h-53l-15 52h50.5l17.5-52Z"/><path fill="#858585" d="M640.5 97.5 661 57h-27.5l-19 40 26 .5Z"/><path fill="#CFCFCF" d="m633.5 57-6-15L610 80.5l4.5 16.5 19-40Zm-161-29L476 .5l5.5 27.5h-9Zm21.5 80-6.5-35.5-14.5 57 6 30.5 15-52Z"/><path fill="#929292" d="M473 129.5h-22.5l10-57h27l-14.5 57Z"/><path fill="#CFCFCF" d="m449.5 118 8.5-62c.833 5.167 2.5 15.7 2.5 16.5 0 .8-6.333 38.333-10 57l-1-11.5Z"/><path fill="#858585" d="M458 56h-29.5l2 52-.7 10h19.7l8.5-62Z"/><path fill="#959595" d="M379 160v-52h51.5l-3.5 52h-48Z"/><path fill="#929292" d="M331.5 91H360v52.5h-25s-2.5-35-3.5-52.5Z"/><path fill="#CFCFCF" d="M335 143.5 331.5 91l-1 17 4 52 .5-16.5ZM211.5 74 196 13.5l-12.5 40 20.5 62 7.5-41.5Zm-28 41.5-25-62L152 70l25.5 58.5 6-13Z"/><path fill="#8C8C8C" d="m183.5 53.5 20.5 62h-20.5l-25-62h25Z"/><path fill="#929292" d="M213 143.5 195.5 91H223l10.5 52.5H213Z"/><path fill="#959595" d="m91 160-35-52.5H.5L40 160h51Zm61-90H72.5l32.5 58.5h72.5L152 70Z"/><path fill="#CFCFCF" d="M105 128.5 72.5 70 56 107.5 91 160l14-31.5Z"/><path fill="#fff" d="M544 13.5h25.5l-4-13H658l6 13h24l6.5 13h-100l18 49.5H670l-9-19h-27.5l-6-15H679l7 15h26l17 34h-26.5l8 17H598l-5-17h-28l-21-77.5ZM424.816.5H379V108h51.5l-2-52H458l2.5 16.5h27L494 108h53L521 .5h-45l5.5 27.5H454l-2.5-14.5h-26l-.684-13ZM60 1h116l-4.287 12.5H196l-12.5 40h-25L152 70H72.5L56 107.5H.5l43-77L60 1Z"/><path fill="#CFCFCF" d="M179.5 13.5 176 1l-4.289 12.5h7.789Z"/><path fill="#858585" d="m103 42-7.5-19.5H147L138.635 42H103Z"/><path fill="#CFCFCF" d="M103 42H86.5l9-19.5L103 42Z"/><path fill="#959595" d="M233.5 160 219 108h111.5l4 52h-101Z"/><path fill="#858585" d="M315 24h-53.5l4 46h45l4.5-46Z"/><path fill="#CFCFCF" d="m264 78 1.5-8-4-46-11 54H264Z"/><path fill="#fff" fill-rule="evenodd" d="m330.5 108 1-17H360V13h-24l.5-12.5h-93L241 13h-23.5l-22 78H223l-4 17h111.5Zm-21-30 5.5-54h-53.5l-11 54h59Z" clip-rule="evenodd"/><path fill="#CFCFCF" d="m569.5 13.5-4-13-4 13h8Zm-27.5 130L565 91l-21-77.5L526.5 65l15.5 78.5Zm56-35.5-5-17-25 52.5 5 16.5 25-52Z"/><path fill="#929292" d="M593 91h-28l-23 52.5h26L593 91Z"/><path fill="#828282" d="m661 84.5 33.5-58h-100l-16 58H661Z"/><path fill="#CFCFCF" d="m670 76-9-19-20.5 40.5 10.5 16L670 76Z"/><path fill="#929292" d="M702.5 91H729l-40 53h-22l35.5-53Z"/><path fill="#959595" d="m673 160 37.5-52H598l-25 52h100Zm-126-52h-53l-15 52h50.5l17.5-52Z"/><path fill="#858585" d="M640.5 97.5 661 57h-27.5l-19 40 26 .5Z"/><path fill="#CFCFCF" d="m633.5 57-6-15L610 80.5l4.5 16.5 19-40Zm-161-29L476 .5l5.5 27.5h-9Zm21.5 80-6.5-35.5-14.5 57 6 30.5 15-52Z"/><path fill="#929292" d="M473 129.5h-22.5l10-57h27l-14.5 57Z"/><path fill="#CFCFCF" d="m449.5 118 8.5-62c.833 5.167 2.5 15.7 2.5 16.5 0 .8-6.333 38.333-10 57l-1-11.5Z"/><path fill="#858585" d="M458 56h-29.5l2 52-.7 10h19.7l8.5-62Z"/><path fill="#959595" d="M379 160v-52h51.5l-3.5 52h-48Z"/><path fill="#929292" d="M331.5 91H360v52.5h-25s-2.5-35-3.5-52.5Z"/><path fill="#CFCFCF" d="M335 143.5 331.5 91l-1 17 4 52 .5-16.5Z"/><path fill="#D9D9D9" d="M336.5 13V.5L336 13h.5Z"/><path fill="#CFCFCF" d="M211.5 74 196 13.5l-12.5 40 20.5 62 7.5-41.5Zm-28 41.5-25-62L152 70l25.5 58.5 6-13Z"/><path fill="#8C8C8C" d="m183.5 53.5 20.5 62h-20.5l-25-62h25Z"/><path fill="#929292" d="M213 143.5 195.5 91H223l10.5 52.5H213Z"/><path fill="#959595" d="m91 160-35-52.5H.5L40 160h51Zm61-90H72.5l32.5 58.5h72.5L152 70Z"/><path fill="#CFCFCF" d="M105 128.5 72.5 70 56 107.5 91 160l14-31.5Z"/><path fill="#fff" d="M544 13.5h25.5l-4-13H658l6 13h24l6.5 13h-100l18 49.5H670l-9-19h-27.5l-6-15H679l7 15h26l17 34h-26.5l8 17H598l-5-17h-28l-21-77.5ZM424.816.5H379V108h51.5l-2-52H458l2.5 16.5h27L494 108h53L521 .5h-45l5.5 27.5H454l-2.5-14.5h-26l-.684-13ZM60 1h116l-4.287 12.5H196l-12.5 40h-25L152 70H72.5L56 107.5H.5l43-77L60 1Z"/><path fill="#CFCFCF" d="M179.5 13.5 176 1l-4.289 12.5h7.789Z"/><path fill="#858585" d="m103 42-7.5-19.5H147L138.635 42H103Z"/><path fill="#CFCFCF" d="M103 42H86.5l9-19.5L103 42Z"/><path fill="#959595" d="M233.5 160 219 108h111.5l4 52h-101Z"/><path fill="#858585" d="M315 24h-53.5l4 46h45l4.5-46Z"/><path fill="#CFCFCF" d="m264 78 1.5-8-4-46-11 54H264Z"/><path fill="#fff" fill-rule="evenodd" d="m330.5 108 1-17H360V13h-24l.5-12.5h-93L241 13h-23.5l-22 78H223l-4 17h111.5Zm-21-30 5.5-54h-53.5l-11 54h59Z" clip-rule="evenodd"/></svg>