<svg xmlns="http://www.w3.org/2000/svg" width="32" height="32" fill="none"><path stroke="#4B3F28" d="M1 15v2m.5-2.5H5m0-1h3.5m0-1H12m.5-.5V8.5m1 0V5m1 0V1.5M15 1h2m.5.5V5m1 0v3.5m1 0V12m.5.5h3.5m0 1H27m0 1h3.5m.5.5v2m-.5.5H27m0 1h-3.5m0 1H20m-.5.5v3.5m-1 0V27m-1 0v3.5m-.5.5h-2m-.5-.5V27m-1 0v-3.5m-1 0V20m-.5-.5H8.5m0-1H5m0-1H1.5"/><path fill="#FFC24B" d="M16 16V1.5h-1V5h-1v3.5h-1V12h-1v1h1v1h1v1h1v1h1Z"/><path fill="#FFF7DB" d="M17 1.5h-1V16h1v-1h1v-1h1v-1h1v-1h-1V8.5h-1V5h-1V1.5Z"/><path fill="#FFE073" d="M16 30.5V16h1v1h1v1h1v1h1v1h-1v3.5h-1V27h-1v3.5h-1Z"/><path fill="#C16B1B" d="M15 17v-1h1v14.5h-1V27h-1v-3.5h-1V20h-1v-1h1v-1h1v-1h1Z"/><path fill="#FFDA57" d="M15 16H1.5v-1H5v-1h3.5v-1H13v1h1v1h1v1Z"/><path fill="#F8AF23" d="M1.5 17v-1H15v1h-1v1h-1v1H8.5v-1H5v-1H1.5Z"/><path fill="#FFC24B" d="M30.5 16H17v1h1v1h1v1h4.5v-1H27v-1h3.5v-1Z"/><path fill="#FFE381" d="M30.5 16H17v-1h1v-1h1v-1h4.5v1H27v1h3.5v1Z"/></svg>