<svg xmlns="http://www.w3.org/2000/svg" width="33" height="32" fill="none"><path stroke="#4B3F28" d="M7.5 12h2m14 0h2m-16 1h2m10 0h2m-12 1h2m-2 0h2m6 0h2m-6 2h2m-4-1h2m2 0h2m-12 1h2m14 0h2m-16 1h2m10 0h2m-12 1h2m-2 0h2m6 0h2m-6 2h2m-4-1h2m2 0h2M7 12.5v3m19-3v3"/><path fill="#FFDA57" d="M25.5 12.5h-2v3h2v-3Zm-12 2h-2v3h2v-3Z"/><path fill="#FEBB38" d="M9.5 12.5h-2v3h2v-3Zm6 3h-2v3h2v-3Z"/><path fill="#F8AF23" d="M16.5 16.5h-1v3h1v-3Z"/><path fill="#FEBB38" d="M11.5 13.5h-1v3h1v-3Z"/><path fill="#FFDA57" d="M10.5 13.5h-1v3h1v-3Zm12 0h-1v3h1v-3Zm-5 3h-1v3h1v-3Z"/><path fill="#FFEAA0" d="M23.5 13.5h-1v3h1v-3Zm-2 1h-1v3h1v-3Z"/><path fill="#FFFBEE" d="M20.5 14.5h-1v3h1v-3Z"/><path fill="#FFFBEE" d="M20.5 14.5h-1v3h1v-3Z"/><path fill="#FFF7DB" d="M19.5 15.5h-2v3h2v-3Z"/></svg>