<svg width="437" height="676" viewBox="0 0 437 676" fill="none" xmlns="http://www.w3.org/2000/svg">
<path d="M258 118H278V138H258V118Z" fill="#D9D9D9"/>
<path d="M258 118H278V138H258V118Z" fill="#D9D9D9"/>
<path d="M258 118H278V138H258V118Z" fill="#D9D9D9"/>
<path d="M178 138H198V158H178V138Z" fill="#D9D9D9"/>
<path d="M298 158H318V178H298V158Z" fill="#D9D9D9"/>
<path d="M298 238H318V258H298V238Z" fill="#D9D9D9"/>
<path d="M178 178H198V198H178V178Z" fill="#D9D9D9"/>
<path d="M238 118H258V138H238V118Z" fill="white"/>
<path d="M238 118H258V138H238V118Z" fill="white"/>
<path d="M238 118H258V138H238V118Z" fill="white"/>
<path d="M238 118H258V138H238V118Z" fill="#EDEDED"/>
<path d="M238 118H258V138H238V118Z" stroke="#EDEDED"/>
<path d="M238 138H258V158H238V138Z" fill="white"/>
<path d="M238 138H258V158H238V138Z" fill="white"/>
<path d="M238 138H258V158H238V138Z" fill="white"/>
<path d="M238 138H258V158H238V138Z" fill="#EDEDED"/>
<path d="M238 138H258V158H238V138Z" stroke="#EDEDED"/>
<path d="M258 158H278V178H258V158Z" fill="white"/>
<path d="M258 158H278V178H258V158Z" fill="white"/>
<path d="M258 158H278V178H258V158Z" fill="white"/>
<path d="M258 158H278V178H258V158Z" fill="#EDEDED"/>
<path d="M258 158H278V178H258V158Z" stroke="#EDEDED"/>
<path d="M258 138H278V158H258V138Z" fill="white"/>
<path d="M258 138H278V158H258V138Z" fill="white"/>
<path d="M258 138H278V158H258V138Z" fill="white"/>
<path d="M258 138H278V158H258V138Z" fill="#EDEDED"/>
<path d="M258 138H278V158H258V138Z" stroke="#EDEDED"/>
<path d="M278 158H298V178H278V158Z" fill="white"/>
<path d="M278 158H298V178H278V158Z" fill="white"/>
<path d="M278 158H298V178H278V158Z" fill="white"/>
<path d="M278 158H298V178H278V158Z" fill="#EDEDED"/>
<path d="M278 158H298V178H278V158Z" stroke="#EDEDED"/>
<path d="M278 178H298V198H278V178Z" fill="white"/>
<path d="M278 178H298V198H278V178Z" fill="white"/>
<path d="M278 178H298V198H278V178Z" fill="white"/>
<path d="M278 178H298V198H278V178Z" fill="#EDEDED"/>
<path d="M278 178H298V198H278V178Z" stroke="#EDEDED"/>
<path d="M258 178H278V198H258V178Z" fill="white"/>
<path d="M258 178H278V198H258V178Z" fill="white"/>
<path d="M258 178H278V198H258V178Z" fill="white"/>
<path d="M258 178H278V198H258V178Z" fill="#EDEDED"/>
<path d="M258 178H278V198H258V178Z" stroke="#EDEDED"/>
<path d="M238 158H258V178H238V158Z" fill="white"/>
<path d="M238 158H258V178H238V158Z" fill="white"/>
<path d="M238 158H258V178H238V158Z" fill="white"/>
<path d="M238 158H258V178H238V158Z" fill="#EDEDED"/>
<path d="M238 158H258V178H238V158Z" stroke="#EDEDED"/>
<path d="M218 138H238V158H218V138Z" fill="white"/>
<path d="M218 138H238V158H218V138Z" fill="white"/>
<path d="M218 138H238V158H218V138Z" fill="white"/>
<path d="M218 138H238V158H218V138Z" fill="#EDEDED"/>
<path d="M218 138H238V158H218V138Z" stroke="#EDEDED"/>
<path d="M218 118H238V138H218V118Z" fill="white"/>
<path d="M218 118H238V138H218V118Z" fill="white"/>
<path d="M218 118H238V138H218V118Z" fill="white"/>
<path d="M218 118H238V138H218V118Z" fill="#EDEDED"/>
<path d="M218 118H238V138H218V118Z" stroke="#EDEDED"/>
<path d="M158 218H178V238H158V218Z" fill="#D9D9D9"/>
<path d="M118 138H138V158H118V138Z" fill="#949494" stroke="#949494"/>
<path d="M98 158H118V178H98V158Z" fill="#949494"/>
<path d="M118 158H138V178H118V158Z" fill="#D9D9D9"/>
<path d="M98 158H118V178H98V158Z" fill="#949494" stroke="#949494"/>
<path d="M98 218H118V238H98V218Z" fill="#949494" stroke="#949494"/>
<path d="M98 238H118V258H98V238Z" fill="#949494" stroke="#949494"/>
<path d="M98 258H118V278H98V258Z" fill="#949494" stroke="#949494"/>
<path d="M198 318H218V338H198V318Z" fill="#949494" stroke="#949494"/>
<path d="M258 318H278V338H258V318Z" fill="#949494" stroke="#949494"/>
<path d="M238 318H258V338H238V318Z" fill="#949494" stroke="#949494"/>
<path d="M218 318H238V338H218V318Z" fill="#949494" stroke="#949494"/>
<path d="M178 298H198V318H178V298Z" fill="#949494" stroke="#949494"/>
<path d="M178 318H198V338H178V318Z" fill="#949494" stroke="#949494"/>
<path d="M158 298H178V318H158V298Z" fill="#949494" stroke="#949494"/>
<path d="M158 318H178V338H158V318Z" fill="#949494" stroke="#949494"/>
<path d="M138 278H158V298H138V278Z" fill="#949494" stroke="#949494"/>
<path d="M138 298H158V318H138V298Z" fill="#949494" stroke="#949494"/>
<path d="M118 258H138V278H118V258Z" fill="#949494" stroke="#949494"/>
<path d="M118 278H138V298H118V278Z" fill="#949494" stroke="#949494"/>
<path d="M118 238H138V258H118V238Z" fill="#949494" stroke="#949494"/>
<path d="M98 198H118V218H98V198Z" fill="#949494" stroke="#949494"/>
<path d="M98 178H118V198H98V178Z" fill="#949494" stroke="#949494"/>
<path d="M178 158H198V178H178V158Z" fill="#D9D9D9"/>
<path d="M218 158H238V178H218V158Z" fill="#D9D9D9"/>
<path d="M218 178H238V198H218V178Z" fill="#D9D9D9"/>
<path d="M218 218H238V238H218V218Z" fill="#D9D9D9"/>
<path d="M218 198H238V218H218V198Z" fill="#D9D9D9"/>
<path d="M218 158H238V178H218V158Z" fill="#D9D9D9"/>
<path d="M218 178H238V198H218V178Z" fill="#D9D9D9"/>
<path d="M218 218H238V238H218V218Z" fill="#D9D9D9"/>
<path d="M218 198H238V218H218V198Z" fill="#D9D9D9"/>
<path d="M138 118H158V138H138V118Z" fill="#D9D9D9"/>
<path d="M178 98H198V118H178V98Z" fill="#D9D9D9"/>
<path d="M178 118H198V138H178V118Z" fill="#D9D9D9"/>
<path d="M198 98H218V118H198V98Z" fill="#D9D9D9"/>
<path d="M238 98H258V118H238V98Z" fill="#D9D9D9"/>
<path d="M258 98H278V118H258V98Z" fill="#D9D9D9"/>
<path d="M258 118H278V138H258V118Z" fill="#D9D9D9"/>
<path d="M278 118H298V138H278V118Z" fill="#D9D9D9"/>
<path d="M278 138H298V158H278V138Z" fill="#D9D9D9"/>
<path d="M298 138H318V158H298V138Z" fill="#D9D9D9"/>
<path d="M298 198H318V218H298V198Z" fill="#D9D9D9"/>
<path d="M298 178H318V198H298V178Z" fill="#D9D9D9"/>
<path d="M298 218H318V238H298V218Z" fill="#D9D9D9"/>
<path d="M298 258H318V278H298V258Z" fill="#D9D9D9"/>
<path d="M298 158H318V178H298V158Z" fill="#D9D9D9"/>
<path d="M298 238H318V258H298V238Z" fill="#D9D9D9"/>
<path d="M318 198H338V218H318V198Z" fill="#D9D9D9"/>
<path d="M318 178H338V198H318V178Z" fill="#D9D9D9"/>
<path d="M318 218H338V238H318V218Z" fill="#D9D9D9"/>
<path d="M318 158H338V178H318V158Z" fill="#D9D9D9"/>
<path d="M318 238H338V258H318V238Z" fill="#D9D9D9"/>
<path d="M278 218H298V238H278V218Z" fill="#D9D9D9"/>
<path d="M278 198H298V218H278V198Z" fill="#D9D9D9"/>
<path d="M278 238H298V258H278V238Z" fill="#D9D9D9"/>
<path d="M278 278H298V298H278V278Z" fill="#D9D9D9"/>
<path d="M258 298H278V318H258V298Z" fill="#D9D9D9"/>
<path d="M318 258H338V278H318V258Z" fill="#D9D9D9"/>
<path d="M298 278H318V298H298V278Z" fill="#D9D9D9"/>
<path d="M278 298H298V318H278V298Z" fill="#D9D9D9"/>
<path d="M158 278H178V298H158V278Z" fill="#D9D9D9"/>
<path d="M198 298H218V318H198V298Z" fill="#D9D9D9"/>
<path d="M158 238H178V258H158V238Z" fill="#D9D9D9"/>
<path d="M138 238H158V258H138V238Z" fill="#D9D9D9"/>
<path d="M158 218H178V238H158V218Z" fill="#D9D9D9"/>
<path d="M138 198H158V218H138V198Z" fill="#D9D9D9"/>
<path d="M138 178H158V198H138V178Z" fill="#D9D9D9"/>
<path d="M158 178H178V198H158V178Z" fill="#D9D9D9"/>
<path d="M138 158H158V178H138V158Z" fill="#D9D9D9"/>
<path d="M158 158H178V178H158V158Z" fill="#D9D9D9"/>
<path d="M138 138H158V158H138V138Z" fill="#D9D9D9"/>
<path d="M158 198H178V218H158V198Z" fill="#D9D9D9"/>
<path d="M158 138H178V158H158V138Z" fill="#D9D9D9"/>
<path d="M118 158H138V178H118V158Z" fill="#D9D9D9"/>
<path d="M118 218H138V238H118V218Z" fill="#D9D9D9"/>
<path d="M118 198H138V218H118V198Z" fill="#D9D9D9"/>
<path d="M118 178H138V198H118V178Z" fill="#D9D9D9"/>
<path d="M138 218H158V238H138V218Z" fill="#D9D9D9"/>
<path d="M158 258H178V278H158V258Z" fill="#D9D9D9"/>
<path d="M138 258H158V278H138V258Z" fill="#D9D9D9"/>
<path d="M178 258H198V278H178V258Z" fill="#D9D9D9"/>
<path d="M178 278H198V298H178V278Z" fill="#D9D9D9"/>
<path d="M198 278H218V298H198V278Z" fill="#D9D9D9"/>
<path d="M218 298H238V318H218V298Z" fill="#D9D9D9"/>
<path d="M238 298H258V318H238V298Z" fill="#D9D9D9"/>
<path d="M278 258H298V278H278V258Z" fill="#D9D9D9"/>
<path d="M178 138H198V158H178V138Z" fill="#D9D9D9"/>
<path d="M178 178H198V198H178V178Z" fill="#D9D9D9"/>
<path d="M178 158H198V178H178V158Z" fill="#D9D9D9"/>
<path d="M178 198H198V218H178V198Z" fill="#D9D9D9"/>
<path d="M178 238H198V258H178V238Z" fill="#D9D9D9"/>
<path d="M178 218H198V238H178V218Z" fill="#D9D9D9"/>
<path d="M198 138H218V158H198V138Z" fill="#D9D9D9"/>
<path d="M198 158H218V178H198V158Z" fill="#D9D9D9"/>
<path d="M198 198H218V218H198V198Z" fill="#D9D9D9"/>
<path d="M198 178H218V198H198V178Z" fill="#D9D9D9"/>
<path d="M198 218H218V238H198V218Z" fill="#D9D9D9"/>
<path d="M198 258H218V278H198V258Z" fill="#D9D9D9"/>
<path d="M198 238H218V258H198V238Z" fill="#D9D9D9"/>
<path d="M218 158H238V178H218V158Z" fill="#D9D9D9"/>
<path d="M218 178H238V198H218V178Z" fill="#D9D9D9"/>
<path d="M218 218H238V238H218V218Z" fill="#D9D9D9"/>
<path d="M218 198H238V218H218V198Z" fill="#D9D9D9"/>
<path d="M218 238H238V258H218V238Z" fill="#D9D9D9"/>
<path d="M218 278H238V298H218V278Z" fill="#D9D9D9"/>
<path d="M218 258H238V278H218V258Z" fill="#D9D9D9"/>
<path d="M238 178H258V198H238V178Z" fill="#D9D9D9"/>
<path d="M238 198H258V218H238V198Z" fill="#D9D9D9"/>
<path d="M238 238H258V258H238V238Z" fill="#D9D9D9"/>
<path d="M238 218H258V238H238V218Z" fill="#D9D9D9"/>
<path d="M238 278H258V298H238V278Z" fill="#D9D9D9"/>
<path d="M238 258H258V278H238V258Z" fill="#D9D9D9"/>
<path d="M258 198H278V218H258V198Z" fill="#D9D9D9"/>
<path d="M258 218H278V238H258V218Z" fill="#D9D9D9"/>
<path d="M258 258H278V278H258V258Z" fill="#D9D9D9"/>
<path d="M258 278H278V298H258V278Z" fill="#D9D9D9"/>
<path d="M258 238H278V258H258V238Z" fill="#D9D9D9"/>
<path d="M198 118H218V138H198V118Z" fill="#D9D9D9"/>
<path d="M218 98H238V118H218V98Z" fill="#D9D9D9"/>
<path d="M158 98H178V118H158V98Z" fill="#D9D9D9"/>
<path d="M158 118H178V138H158V118Z" fill="#D9D9D9"/>
<path d="M158 118H138V138M158 118V138M158 118H178M158 118V98H178M158 138H138M158 138V158M158 138H178M138 138V158M178 98H198M178 98V118M198 98V118M198 98H218M198 118H178M198 118V138M198 118H218M178 118V138M198 138H178M198 138V158M198 138H218M178 138V158M218 98V118M218 98H238M218 118V138M218 118H238M238 98H258M238 98V118M258 98V118M258 98H278V118M258 118H238M258 118H278M258 118V138H278M278 118V138M278 118H298V138M278 138H298M278 138V158H298M298 138V158M298 138H318V158M298 158H318M298 158V178M318 158V178M318 158H338V178M298 198H318M298 198V218M298 198V178M298 198H278M318 198V218M318 198V178M318 198H338M318 218H298M318 218V238M318 218H338M298 218V238M298 218H278M298 178H318M318 178H338M318 238H298M318 238V258M318 238H338M298 238V258M298 238H278M298 258H318M298 258V278M298 258H278M318 258V278M318 258H338M318 278H298M318 278H338V258M318 278V298H298M298 278H278M298 278V298M338 198V218M338 198V178M338 218V238M338 238V258M278 218V238M278 218V198M278 218H258M278 238V258M278 238H258M278 198H258M278 258V278M278 258H258M278 278V298M278 278H258M298 298H278M298 298V318H278M278 298H258M278 298V318M258 298V318M258 298H238M258 298V278M278 318H258M258 318H238M158 278H178M158 278V298H178M158 278V258M158 278H138V258M178 278V298M178 278V258M178 278H198M178 298H198M198 298H218M198 298V318H218M198 298V278M218 298V318M218 298V278M218 298H238M218 318H238M158 238H178M158 238V258M158 238H138M158 238V218M178 238V258M178 238V218M178 238H198M178 258H158M178 258H198M158 258H138M138 238V258M138 238V218M138 238H118V218M158 218H178M158 218V198M158 218H138M178 218V198M178 218H198M138 198H158M138 198V218M138 198V178M138 198H118M158 198V178M158 198H178M138 218H118M138 178H158M138 178V158M138 178H118M158 178H178M158 178V158M178 178V198M178 178V158M178 178H198M178 198H198M138 158H158M138 158H118V178M158 158H178M178 158H198M118 178V198M118 218V198M198 258V278M198 258V238M198 258H218M198 278H218M218 278V258M218 278H238M238 298V318M238 298V278M198 158V178M198 158H218M198 178V198M198 178H218M198 198V218M198 198H218M198 218V238M198 218H218M198 238H218M218 138V158M218 158V178M218 158H238V178M218 178V198M218 178H238M218 198V218M218 198H238M218 218V238M218 218H238M218 238V258M218 238H238M218 258H238M238 178V198M238 178H258V198M238 198V218M238 198H258M238 218V238M238 218H258M238 238V258M238 238H258M238 258V278M238 258H258M238 278H258M258 198V218M258 218V238M258 238V258M258 258V278" stroke="#D9D9D9"/>
</svg>
