<svg width="437" height="483" viewBox="0 0 437 483" fill="none" xmlns="http://www.w3.org/2000/svg">
<path d="M374.824 380H394.549V399H374.824V380Z" fill="#EDEDED"/>
<path d="M356.084 360H374.824V380H356.084V360Z" fill="#EDEDED"/>
<path d="M316.634 340H336.359V360H316.634V340Z" fill="#EDEDED"/>
<path d="M296.908 320H316.634V340H296.908V320Z" fill="#EDEDED"/>
<path d="M316.634 320H336.359V340H316.634V320Z" fill="#EDEDED"/>
<path d="M336.359 360H356.084V380H336.359V360Z" fill="#EDEDED"/>
<path d="M336.359 340H356.084V360H336.359V340Z" fill="#EDEDED"/>
<path d="M316.634 360H336.359V380H316.634V360Z" fill="#EDEDED"/>
<path d="M374.824 360H394.549V380H374.824V360Z" fill="#EDEDED"/>
<path d="M356.084 380H374.824V399H356.084V380Z" fill="#EDEDED"/>
<path d="M374.824 380H394.549M374.824 380V399M374.824 380V360M374.824 380H356.084M394.549 380V399H374.824M394.549 380V360H374.824M374.824 399H356.084V380M356.084 360H374.824M356.084 360V380M356.084 360H336.359M356.084 360V340H336.359M356.084 380H336.359M316.634 340H336.359M316.634 340V360M316.634 340V320M316.634 340H296.908V320H316.634M336.359 340V360M336.359 340V320H316.634M336.359 360H316.634M336.359 360V380M316.634 360V380H336.359" stroke="#EDEDED" stroke-width="5"/>
<path d="M219.928 440H240.343V460H219.928V440Z" fill="#949494"/>
<path d="M200.485 440H219.928V460H200.485V440Z" fill="#949494"/>
<path d="M240.343 440H279.228V460H240.343V440Z" fill="#949494"/>
<path d="M279.228 440H298.671V460H279.228V440Z" fill="#949494"/>
<path d="M240.343 440H259.786V460H240.343V440Z" fill="#949494"/>
<path d="M181.042 440H200.485V460H181.042V440Z" fill="#949494"/>
<path d="M161.599 440H181.042V460H161.599V440Z" fill="#949494"/>
<path d="M64.3844 380H83.8273V401H64.3844V380Z" fill="#949494"/>
<path d="M44.9415 380H64.3844V401H44.9415V380Z" fill="#949494"/>
<path d="M25.4986 380H44.9415V401H25.4986V380Z" fill="#949494"/>
<path d="M25.4986 359H44.9415V380H25.4986V359Z" fill="#949494"/>
<path d="M25.4986 339.5H44.9415V359H25.4986V339.5Z" fill="#949494"/>
<path d="M142.156 421H161.599V440H142.156V421Z" fill="#949494"/>
<path d="M142.156 440H161.599V460H142.156V440Z" fill="#949494"/>
<path d="M122.713 440H142.156V460H122.713V440Z" fill="#949494"/>
<path d="M103.27 440H122.713V460H103.27V440Z" fill="#949494"/>
<path d="M83.8273 440H103.27V460H83.8273V440Z" fill="#949494"/>
<path d="M25.4986 401H44.9415V421H25.4986V401Z" fill="#949494"/>
<path d="M8 380H25.4986V401H8V380Z" fill="#949494"/>
<path d="M8 359H25.4986V380H8V359Z" fill="#949494"/>
<path d="M103.27 421H122.713V440H103.27V421Z" fill="#949494"/>
<path d="M83.8273 421H103.27V440H83.8273V421Z" fill="#949494"/>
<path d="M44.9415 421H64.3844V440H44.9415V421Z" fill="#949494"/>
<path d="M64.3844 421H83.8273V440H64.3844V421Z" fill="#949494"/>
<path d="M122.713 421H142.156V440H122.713V421Z" fill="#949494"/>
<path d="M64.3844 401H83.8273V421H64.3844V401Z" fill="#949494"/>
<path d="M83.8273 401H103.27V421H83.8273V401Z" fill="#949494"/>
<path d="M44.9415 401H64.3844V421H44.9415V401Z" fill="#949494"/>
<path d="M103.27 401H122.713V421H103.27V401Z" fill="#949494"/>
<path d="M44.9415 320H64.3844V339.5H44.9415V320Z" fill="#949494"/>
<path d="M318.114 440H337.557V460H318.114V440Z" fill="#949494"/>
<path d="M337.557 440H357V460H337.557V440Z" fill="#949494"/>
<path d="M298.671 440H318.114V460H298.671V440Z" fill="#949494"/>
<path d="M219.928 440H240.343M219.928 440V460M219.928 440H200.485M240.343 440V460M240.343 440H279.228M240.343 440H259.786V460H240.343M240.343 460H219.928M240.343 460H279.228M219.928 460H200.485M200.485 440V460M200.485 440H181.042M200.485 460H181.042M279.228 440V460M279.228 440H298.671M279.228 460H298.671M298.671 440V460M298.671 440H318.114M298.671 460H318.114M181.042 440V460M181.042 440H161.599M181.042 460H161.599M161.599 440V460M161.599 440V421H142.156M161.599 440H142.156M161.599 460H142.156M64.3844 380H83.8273V401M64.3844 380V401M64.3844 380H44.9415M83.8273 401H64.3844M83.8273 401V421M83.8273 401H103.27M64.3844 401H44.9415M64.3844 401V421M44.9415 380V401M44.9415 380H25.4986M44.9415 380V359M44.9415 401H25.4986M44.9415 401V421M25.4986 380V401M25.4986 380V359M25.4986 380H8M25.4986 401V421H44.9415M25.4986 401H8V380M25.4986 359H44.9415M25.4986 359V339.5H44.9415M25.4986 359H8V380M44.9415 359V339.5M44.9415 339.5H64.3844V320H44.9415V339.5ZM142.156 421V440M142.156 421H122.713M142.156 440V460M142.156 440H122.713M142.156 460H122.713M122.713 440V460M122.713 440H103.27M122.713 440V421M122.713 460H103.27M103.27 440V460M103.27 440H83.8273M103.27 440V421M103.27 460H83.8273V440M83.8273 440V421M83.8273 440H64.3844M44.9415 421H64.3844M44.9415 421V440H64.3844M103.27 421H122.713M103.27 421H83.8273M103.27 421V401M122.713 421V401H103.27M83.8273 421H64.3844M64.3844 421V440M318.114 440H337.557M318.114 440V460M337.557 440V460M337.557 440H357V460H337.557M337.557 460H318.114" stroke="#949494" stroke-width="5"/>
<path d="M99.0816 340H118.605V360H99.0816V340Z" fill="#D9D9D9"/>
<path d="M118.605 340H138.128V360H118.605V340Z" fill="#D9D9D9"/>
<path d="M99.0816 320H118.605V340H99.0816V320Z" fill="#D9D9D9"/>
<path d="M41 360H61.0113V381H41V360Z" fill="#D9D9D9"/>
<path d="M41 340H61.0113V360H41V340Z" fill="#D9D9D9"/>
<path d="M118.605 381H138.128V400H118.605V381Z" fill="#D9D9D9"/>
<path d="M138.128 381H157.651V400H138.128V381Z" fill="#D9D9D9"/>
<path d="M118.605 400H138.128V420H118.605V400Z" fill="#D9D9D9"/>
<path d="M79.5583 381H99.0816V400H79.5583V381Z" fill="#D9D9D9"/>
<path d="M99.0816 381H118.605V400H99.0816V381Z" fill="#D9D9D9"/>
<path d="M79.5583 360H99.0816V381H79.5583V360Z" fill="#D9D9D9"/>
<path d="M61.0113 360H79.5583V381H61.0113V360Z" fill="#D9D9D9"/>
<path d="M61.0113 340H79.5583V360H61.0113V340Z" fill="#D9D9D9"/>
<path d="M61.0113 320H79.5583V340H61.0113V320Z" fill="#D9D9D9"/>
<path d="M79.5583 320H99.0816V340H79.5583V320Z" fill="#D9D9D9"/>
<path d="M61.0113 300H79.5583V320H61.0113V300Z" fill="#D9D9D9"/>
<path d="M79.5583 300H99.0816V320H79.5583V300Z" fill="#D9D9D9"/>
<path d="M79.5583 340H99.0816V360H79.5583V340Z" fill="#D9D9D9"/>
<path d="M99.0816 360H118.605V381H99.0816V360Z" fill="#D9D9D9"/>
<path d="M138.128 400H157.651V420H138.128V400Z" fill="#D9D9D9"/>
<path d="M177.174 400H196.698V420H177.174V400Z" fill="#D9D9D9"/>
<path d="M196.698 400H217.197V420H196.698V400Z" fill="#D9D9D9"/>
<path d="M157.651 400H177.174V420H157.651V400Z" fill="#D9D9D9"/>
<path d="M217.197 400H236.72V420H217.197V400Z" fill="#D9D9D9"/>
<path d="M236.72 400H256.243V420H236.72V400Z" fill="#D9D9D9"/>
<path d="M256.243 400H275.767V420H256.243V400Z" fill="#D9D9D9"/>
<path d="M196.698 420H217.197V440H196.698V420Z" fill="#D9D9D9"/>
<path d="M177.174 420H196.698V440H177.174V420Z" fill="#D9D9D9"/>
<path d="M157.651 420H177.174V440H157.651V420Z" fill="#D9D9D9"/>
<path d="M373.383 400H392.906V420H373.383V400Z" fill="#D9D9D9"/>
<path d="M353.859 400H373.383V420H353.859V400Z" fill="#D9D9D9"/>
<path d="M392.906 380H412.429V400H392.906V380Z" fill="#D9D9D9"/>
<path d="M392.906 400H412.429V420H392.906V400Z" fill="#D9D9D9"/>
<path d="M373.383 420H392.906V440H373.383V420Z" fill="#D9D9D9"/>
<path d="M392.906 359H412.429V380H392.906V359Z" fill="#D9D9D9"/>
<path d="M412.429 380H430V400H412.429V380Z" fill="#D9D9D9"/>
<path d="M412.429 359H430V380H412.429V359Z" fill="#D9D9D9"/>
<path d="M392.906 339H412.429V359H392.906V339Z" fill="#D9D9D9"/>
<path d="M373.383 339H392.906V359H373.383V339Z" fill="#D9D9D9"/>
<path d="M353.859 320H373.383V339H353.859V320Z" fill="#D9D9D9"/>
<path d="M335.312 320H353.859V339H335.312V320Z" fill="#D9D9D9"/>
<path d="M353.859 339H373.383V359H353.859V339Z" fill="#D9D9D9"/>
<path d="M295.29 300H315.789V320H295.29V300Z" fill="#D9D9D9"/>
<path d="M275.767 300H295.29V320H275.767V300Z" fill="#D9D9D9"/>
<path d="M353.859 300H373.383V320H353.859V300Z" fill="#D9D9D9"/>
<path d="M335.312 300H353.859V320H335.312V300Z" fill="#D9D9D9"/>
<path d="M315.789 300H335.312V320H315.789V300Z" fill="#D9D9D9"/>
<path d="M295.29 400H314.813V420H295.29V400Z" fill="#D9D9D9"/>
<path d="M275.767 400H295.29V420H275.767V400Z" fill="#D9D9D9"/>
<path d="M314.813 400H334.336V420H314.813V400Z" fill="#D9D9D9"/>
<path d="M177.174 381H196.698V400H177.174V381Z" fill="#D9D9D9"/>
<path d="M196.698 381H217.197V400H196.698V381Z" fill="#D9D9D9"/>
<path d="M157.651 381H177.174V400H157.651V381Z" fill="#D9D9D9"/>
<path d="M217.197 381H236.72V400H217.197V381Z" fill="#D9D9D9"/>
<path d="M236.72 381H256.243V400H236.72V381Z" fill="#D9D9D9"/>
<path d="M256.243 381H275.767V400H256.243V381Z" fill="#D9D9D9"/>
<path d="M295.29 381H314.813V400H295.29V381Z" fill="#D9D9D9"/>
<path d="M275.767 381H295.29V400H275.767V381Z" fill="#D9D9D9"/>
<path d="M314.813 381H334.336V400H314.813V381Z" fill="#D9D9D9"/>
<path d="M177.174 360H196.698V381H177.174V360Z" fill="#D9D9D9"/>
<path d="M196.698 360H217.197V381H196.698V360Z" fill="#D9D9D9"/>
<path d="M157.651 360H177.174V381H157.651V360Z" fill="#D9D9D9"/>
<path d="M217.197 360H236.72V381H217.197V360Z" fill="#D9D9D9"/>
<path d="M236.72 360H256.243V381H236.72V360Z" fill="#D9D9D9"/>
<path d="M256.243 360H275.767V381H256.243V360Z" fill="#D9D9D9"/>
<path d="M275.767 360H295.29V381H275.767V360Z" fill="#D9D9D9"/>
<path d="M177.174 340H196.698V360H177.174V340Z" fill="#D9D9D9"/>
<path d="M196.698 340H217.197V360H196.698V340Z" fill="#D9D9D9"/>
<path d="M157.651 340H177.174V360H157.651V340Z" fill="#D9D9D9"/>
<path d="M217.197 340H236.72V360H217.197V340Z" fill="#D9D9D9"/>
<path d="M236.72 340H256.243V360H236.72V340Z" fill="#D9D9D9"/>
<path d="M275.767 340H295.29V360H275.767V340Z" fill="#D9D9D9"/>
<path d="M256.243 300H275.767V320H256.243V300Z" fill="#D9D9D9"/>
<path d="M217.197 300H236.72V320H217.197V300Z" fill="#D9D9D9"/>
<path d="M236.72 300H256.243V320H236.72V300Z" fill="#D9D9D9"/>
<path d="M256.243 340H275.767V360H256.243V340Z" fill="#D9D9D9"/>
<path d="M217.197 320H236.72V340H217.197V320Z" fill="#D9D9D9"/>
<path d="M236.72 320H256.243V340H236.72V320Z" fill="#D9D9D9"/>
<path d="M256.243 320H275.767V340H256.243V320Z" fill="#D9D9D9"/>
<path d="M334.336 381H353.859V400H334.336V381Z" fill="#D9D9D9"/>
<path d="M295.29 360H314.813V381H295.29V360Z" fill="#D9D9D9"/>
<path d="M295.29 340H314.813V360H295.29V340Z" fill="#D9D9D9"/>
<path d="M275.767 320H295.29V340H275.767V320Z" fill="#D9D9D9"/>
<path d="M334.336 400H353.859V420H334.336V400Z" fill="#D9D9D9"/>
<path d="M138.128 360H157.651V381H138.128V360Z" fill="#D9D9D9"/>
<path d="M138.128 340H157.651V360H138.128V340Z" fill="#D9D9D9"/>
<path d="M177.174 320H196.698V340H177.174V320Z" fill="#D9D9D9"/>
<path d="M196.698 320H217.197V340H196.698V320Z" fill="#D9D9D9"/>
<path d="M157.651 320H177.174V340H157.651V320Z" fill="#D9D9D9"/>
<path d="M138.128 320H157.651V340H138.128V320Z" fill="#D9D9D9"/>
<path d="M177.174 300H196.698V320H177.174V300Z" fill="#D9D9D9"/>
<path d="M196.698 300H217.197V320H196.698V300Z" fill="#D9D9D9"/>
<path d="M157.651 300H177.174V320H157.651V300Z" fill="#D9D9D9"/>
<path d="M138.128 300H157.651V320H138.128V300Z" fill="#D9D9D9"/>
<path d="M99.0816 300H118.605V320H99.0816V300Z" fill="#D9D9D9"/>
<path d="M118.605 300H138.128V320H118.605V300Z" fill="#D9D9D9"/>
<path d="M118.605 360H138.128V381H118.605V360Z" fill="#D9D9D9"/>
<path d="M118.605 320H138.128V340H118.605V320Z" fill="#D9D9D9"/>
<path d="M373.383 320H392.906V339H373.383V320Z" fill="#D9D9D9"/>
<path d="M256.243 420H275.767V440H256.243V420Z" fill="#D9D9D9"/>
<path d="M217.197 420H236.72V440H217.197V420Z" fill="#D9D9D9"/>
<path d="M236.72 420H256.243V440H236.72V420Z" fill="#D9D9D9"/>
<path d="M353.859 420H373.383V440H353.859V420Z" fill="#D9D9D9"/>
<path d="M334.336 420H353.859V440H334.336V420Z" fill="#D9D9D9"/>
<path d="M275.767 420H295.29V440H275.767V420Z" fill="#D9D9D9"/>
<path d="M295.29 420H314.813V440H295.29V420Z" fill="#D9D9D9"/>
<path d="M314.813 420H334.336V440H314.813V420Z" fill="#D9D9D9"/>
<path d="M99.0816 340H118.605M99.0816 340V360M99.0816 340V320M99.0816 340H79.5583M118.605 340V360M118.605 340H138.128M118.605 340V320M118.605 360H99.0816M118.605 360H138.128M118.605 360V381M99.0816 360H79.5583M99.0816 360V381M138.128 340V360M138.128 340H157.651M138.128 340V320M138.128 360H157.651M138.128 360V381M99.0816 320H118.605M99.0816 320H79.5583M99.0816 320V300M118.605 320V300M118.605 320H138.128M41 360H61.0113M41 360V381H61.0113M41 360V340H61.0113M61.0113 360V381M61.0113 360V340M61.0113 360H79.5583M61.0113 381H79.5583M61.0113 340H79.5583M61.0113 340V320M118.605 381H138.128M118.605 381V400M118.605 381H99.0816M138.128 381V400M138.128 381H157.651M138.128 400H118.605M138.128 400H157.651M138.128 400V420M118.605 400V420H138.128M118.605 400H99.0816M157.651 381V400M157.651 381H177.174M157.651 381V360M157.651 400V420M157.651 400H177.174M138.128 420H157.651M79.5583 381H99.0816M79.5583 381V400H99.0816M79.5583 381V360M99.0816 381V400M79.5583 360V340M79.5583 340V320M61.0113 320H79.5583M61.0113 320V300H79.5583M79.5583 320V300M79.5583 300H99.0816M99.0816 300H118.605M157.651 420H177.174M157.651 420V440H177.174M177.174 400H196.698M177.174 400V420M177.174 400V381M196.698 400V420M196.698 400H217.197M196.698 400V381M196.698 420H177.174M196.698 420H217.197M196.698 420V440M177.174 420V440M217.197 400V420M217.197 400H236.72M217.197 400V381M217.197 420H236.72M217.197 420V440M236.72 400V420M236.72 400H256.243M236.72 400V381M236.72 420H256.243M236.72 420V440M256.243 400V420M256.243 400H275.767M256.243 400V381M256.243 420H275.767M256.243 420V440M275.767 400V420M275.767 400H295.29M275.767 400V381M275.767 420H295.29M275.767 420V440M217.197 440H196.698M217.197 440H236.72M196.698 440H177.174M373.383 400H392.906M373.383 400V420M373.383 400H353.859M392.906 400V420M392.906 400H412.429M392.906 400V380M392.906 420H373.383M392.906 420H412.429V400M392.906 420V440H373.383M373.383 420H353.859M373.383 420V440M353.859 400V420M353.859 400V381H334.336M353.859 400H334.336M353.859 420H334.336M353.859 420V440M392.906 380H412.429M392.906 380V359M412.429 380V400M412.429 380V359M412.429 380H430M412.429 400H430V380M373.383 440H353.859M392.906 359H412.429M392.906 359V339M392.906 359H373.383M412.429 359H430V380M412.429 359V339H392.906M392.906 339H373.383M392.906 339V320H373.383M373.383 339V359M373.383 339V320M373.383 339H353.859M373.383 359H353.859V339M353.859 320H373.383M353.859 320V339M353.859 320H335.312M353.859 320V300M373.383 320V300H353.859M353.859 339H335.312V320M335.312 320V300M335.312 320H315.789M295.29 300H315.789M295.29 300V320M295.29 300H275.767M315.789 300V320M315.789 300H335.312M315.789 320H295.29M295.29 320H275.767M295.29 320V340M275.767 300V320M275.767 300H256.243M275.767 320H256.243M275.767 320V340M353.859 300H335.312M295.29 400H314.813M295.29 400V420M295.29 400V381M314.813 400V420M314.813 400H334.336M314.813 400V381M314.813 420H295.29M314.813 420H334.336M314.813 420V440M295.29 420V440M334.336 400V420M334.336 400V381M334.336 420V440M177.174 381H196.698M177.174 381V360M196.698 381H217.197M196.698 381V360M217.197 381H236.72M217.197 381V360M236.72 381H256.243M236.72 381V360M256.243 381H275.767M256.243 381V360M275.767 381H295.29M275.767 381V360M295.29 381H314.813M295.29 381V360M314.813 381H334.336M314.813 381V360M177.174 360H196.698M177.174 360H157.651M177.174 360V340M196.698 360H217.197M196.698 360V340M217.197 360H236.72M217.197 360V340M157.651 360V340M236.72 360H256.243M236.72 360V340M256.243 360H275.767M256.243 360V340M275.767 360H295.29M275.767 360V340M295.29 360V340M295.29 360H314.813M177.174 340H196.698M177.174 340H157.651M177.174 340V320M196.698 340H217.197M196.698 340V320M217.197 340H236.72M217.197 340V320M157.651 340V320M236.72 340H256.243M236.72 340V320M256.243 340H275.767M256.243 340V320M275.767 340H295.29M295.29 340H314.813V360M256.243 300V320M256.243 300H236.72M256.243 320H236.72M217.197 300H236.72M217.197 300V320M217.197 300H196.698M236.72 300V320M236.72 320H217.197M217.197 320H196.698M177.174 320H196.698M177.174 320H157.651M177.174 320V300M196.698 320V300M157.651 320H138.128M157.651 320V300M138.128 320V300M177.174 300H196.698M177.174 300H157.651M157.651 300H138.128M138.128 300H118.605M275.767 440H256.243M275.767 440H295.29M256.243 440H236.72M353.859 440H334.336M334.336 440H314.813M295.29 440H314.813" stroke="#D9D9D9" stroke-width="5"/>
</svg>
