<svg width="437" height="676" viewBox="0 0 437 676" fill="none" xmlns="http://www.w3.org/2000/svg">
<path d="M239 318H259V338H239V318Z" fill="#EDEDED"/>
<path d="M239 338H259V358H239V338Z" fill="#EDEDED"/>
<path d="M259 358H279V378H259V358Z" fill="#EDEDED"/>
<path d="M259 338H279V358H259V338Z" fill="#EDEDED"/>
<path d="M279 358H299V378H279V358Z" fill="#EDEDED"/>
<path d="M279 378H299V398H279V378Z" fill="#EDEDED"/>
<path d="M259 378H279V398H259V378Z" fill="#EDEDED"/>
<path d="M239 358H259V378H239V358Z" fill="#EDEDED"/>
<path d="M219 338H239V358H219V338Z" fill="#EDEDED"/>
<path d="M219 318H239V338H219V318Z" fill="#EDEDED"/>
<path d="M239 318H259V338M239 318V338M239 318H219V338M259 338H239M259 338V358M259 338H279V358M239 338V358M239 338H219M259 358H239M259 358H279M259 358V378M239 358V378H259M239 358H219V338M279 358V378M279 358H299V378M279 378H259M279 378H299M279 378V398M259 378V398H279M299 378V398H279" stroke="#EDEDED" stroke-width="5"/>
<path d="M119 338H139V358H119V338Z" fill="#949494"/>
<path d="M99 358H119V378H99V358Z" fill="#949494"/>
<path d="M99 418H119V438H99V418Z" fill="#949494"/>
<path d="M99 438H119V458H99V438Z" fill="#949494"/>
<path d="M99 458H119V478H99V458Z" fill="#949494"/>
<path d="M199 518H219V538H199V518Z" fill="#949494"/>
<path d="M259 518H279V538H259V518Z" fill="#949494"/>
<path d="M239 518H259V538H239V518Z" fill="#949494"/>
<path d="M219 518H239V538H219V518Z" fill="#949494"/>
<path d="M179 498H199V518H179V498Z" fill="#949494"/>
<path d="M179 518H199V538H179V518Z" fill="#949494"/>
<path d="M159 498H179V518H159V498Z" fill="#949494"/>
<path d="M159 518H179V538H159V518Z" fill="#949494"/>
<path d="M139 478H159V498H139V478Z" fill="#949494"/>
<path d="M139 498H159V518H139V498Z" fill="#949494"/>
<path d="M119 458H139V478H119V458Z" fill="#949494"/>
<path d="M119 478H139V498H119V478Z" fill="#949494"/>
<path d="M119 438H139V458H119V438Z" fill="#949494"/>
<path d="M99 398H119V418H99V398Z" fill="#949494"/>
<path d="M99 378H119V398H99V378Z" fill="#949494"/>
<path d="M119 358H139V338H119V358ZM119 358H99V378M119 358V378M119 378H99M119 378V398M99 378V398M99 418H119M99 418V438M99 418V398M119 418V438M119 418V398M119 438H99M119 438V458M119 438H139V458M99 438V458M119 458H99M119 458V478M119 458H139M99 458V478H119M119 478H139M119 478V498H139M199 518H219M199 518V538M199 518V498H179M199 518H179M219 518V538M219 518H239M219 538H199M219 538H239M199 538H179M259 518H279V538H259M259 518V538M259 518H239M259 538H239M239 518V538M179 498V518M179 498H159M179 518V538M179 518H159M179 538H159V518M159 498V518M159 498V478H139M159 498H139M159 518H139V498M139 478V498M139 478V458M99 398H119" stroke="#949494" stroke-width="5"/>
<path d="M139 318H159V338H139V318Z" fill="#D9D9D9"/>
<path d="M179 298H199V318H179V298Z" fill="#D9D9D9"/>
<path d="M179 318H199V338H179V318Z" fill="#D9D9D9"/>
<path d="M199 298H219V318H199V298Z" fill="#D9D9D9"/>
<path d="M239 298H259V318H239V298Z" fill="#D9D9D9"/>
<path d="M259 298H279V318H259V298Z" fill="#D9D9D9"/>
<path d="M259 318H279V338H259V318Z" fill="#D9D9D9"/>
<path d="M279 318H299V338H279V318Z" fill="#D9D9D9"/>
<path d="M279 338H299V358H279V338Z" fill="#D9D9D9"/>
<path d="M299 338H319V358H299V338Z" fill="#D9D9D9"/>
<path d="M299 398H319V418H299V398Z" fill="#D9D9D9"/>
<path d="M299 378H319V398H299V378Z" fill="#D9D9D9"/>
<path d="M299 418H319V438H299V418Z" fill="#D9D9D9"/>
<path d="M299 458H319V478H299V458Z" fill="#D9D9D9"/>
<path d="M299 358H319V378H299V358Z" fill="#D9D9D9"/>
<path d="M299 438H319V458H299V438Z" fill="#D9D9D9"/>
<path d="M319 398H339V418H319V398Z" fill="#D9D9D9"/>
<path d="M319 378H339V398H319V378Z" fill="#D9D9D9"/>
<path d="M319 418H339V438H319V418Z" fill="#D9D9D9"/>
<path d="M319 358H339V378H319V358Z" fill="#D9D9D9"/>
<path d="M319 438H339V458H319V438Z" fill="#D9D9D9"/>
<path d="M279 418H299V438H279V418Z" fill="#D9D9D9"/>
<path d="M279 398H299V418H279V398Z" fill="#D9D9D9"/>
<path d="M279 438H299V458H279V438Z" fill="#D9D9D9"/>
<path d="M279 478H299V498H279V478Z" fill="#D9D9D9"/>
<path d="M259 498H279V518H259V498Z" fill="#D9D9D9"/>
<path d="M319 458H339V478H319V458Z" fill="#D9D9D9"/>
<path d="M299 478H319V498H299V478Z" fill="#D9D9D9"/>
<path d="M279 498H299V518H279V498Z" fill="#D9D9D9"/>
<path d="M159 478H179V498H159V478Z" fill="#D9D9D9"/>
<path d="M199 498H219V518H199V498Z" fill="#D9D9D9"/>
<path d="M159 438H179V458H159V438Z" fill="#D9D9D9"/>
<path d="M139 438H159V458H139V438Z" fill="#D9D9D9"/>
<path d="M159 418H179V438H159V418Z" fill="#D9D9D9"/>
<path d="M139 398H159V418H139V398Z" fill="#D9D9D9"/>
<path d="M139 378H159V398H139V378Z" fill="#D9D9D9"/>
<path d="M159 378H179V398H159V378Z" fill="#D9D9D9"/>
<path d="M139 358H159V378H139V358Z" fill="#D9D9D9"/>
<path d="M159 358H179V378H159V358Z" fill="#D9D9D9"/>
<path d="M139 338H159V358H139V338Z" fill="#D9D9D9"/>
<path d="M159 398H179V418H159V398Z" fill="#D9D9D9"/>
<path d="M159 338H179V358H159V338Z" fill="#D9D9D9"/>
<path d="M119 358H139V378H119V358Z" fill="#D9D9D9"/>
<path d="M119 418H139V438H119V418Z" fill="#D9D9D9"/>
<path d="M119 398H139V418H119V398Z" fill="#D9D9D9"/>
<path d="M119 378H139V398H119V378Z" fill="#D9D9D9"/>
<path d="M139 418H159V438H139V418Z" fill="#D9D9D9"/>
<path d="M159 458H179V478H159V458Z" fill="#D9D9D9"/>
<path d="M139 458H159V478H139V458Z" fill="#D9D9D9"/>
<path d="M179 458H199V478H179V458Z" fill="#D9D9D9"/>
<path d="M179 478H199V498H179V478Z" fill="#D9D9D9"/>
<path d="M199 478H219V498H199V478Z" fill="#D9D9D9"/>
<path d="M219 498H239V518H219V498Z" fill="#D9D9D9"/>
<path d="M239 498H259V518H239V498Z" fill="#D9D9D9"/>
<path d="M279 458H299V478H279V458Z" fill="#D9D9D9"/>
<path d="M179 338H199V358H179V338Z" fill="#D9D9D9"/>
<path d="M179 378H199V398H179V378Z" fill="#D9D9D9"/>
<path d="M179 358H199V378H179V358Z" fill="#D9D9D9"/>
<path d="M179 398H199V418H179V398Z" fill="#D9D9D9"/>
<path d="M179 438H199V458H179V438Z" fill="#D9D9D9"/>
<path d="M179 418H199V438H179V418Z" fill="#D9D9D9"/>
<path d="M199 338H219V358H199V338Z" fill="#D9D9D9"/>
<path d="M199 358H219V378H199V358Z" fill="#D9D9D9"/>
<path d="M199 398H219V418H199V398Z" fill="#D9D9D9"/>
<path d="M199 378H219V398H199V378Z" fill="#D9D9D9"/>
<path d="M199 418H219V438H199V418Z" fill="#D9D9D9"/>
<path d="M199 458H219V478H199V458Z" fill="#D9D9D9"/>
<path d="M199 438H219V458H199V438Z" fill="#D9D9D9"/>
<path d="M219 358H239V378H219V358Z" fill="#D9D9D9"/>
<path d="M219 378H239V398H219V378Z" fill="#D9D9D9"/>
<path d="M219 418H239V438H219V418Z" fill="#D9D9D9"/>
<path d="M219 398H239V418H219V398Z" fill="#D9D9D9"/>
<path d="M219 438H239V458H219V438Z" fill="#D9D9D9"/>
<path d="M219 478H239V498H219V478Z" fill="#D9D9D9"/>
<path d="M219 458H239V478H219V458Z" fill="#D9D9D9"/>
<path d="M239 378H259V398H239V378Z" fill="#D9D9D9"/>
<path d="M239 398H259V418H239V398Z" fill="#D9D9D9"/>
<path d="M239 438H259V458H239V438Z" fill="#D9D9D9"/>
<path d="M239 418H259V438H239V418Z" fill="#D9D9D9"/>
<path d="M239 478H259V498H239V478Z" fill="#D9D9D9"/>
<path d="M239 458H259V478H239V458Z" fill="#D9D9D9"/>
<path d="M259 398H279V418H259V398Z" fill="#D9D9D9"/>
<path d="M259 418H279V438H259V418Z" fill="#D9D9D9"/>
<path d="M259 458H279V478H259V458Z" fill="#D9D9D9"/>
<path d="M259 478H279V498H259V478Z" fill="#D9D9D9"/>
<path d="M259 438H279V458H259V438Z" fill="#D9D9D9"/>
<path d="M199 318H219V338H199V318Z" fill="#D9D9D9"/>
<path d="M219 298H239V318H219V298Z" fill="#D9D9D9"/>
<path d="M159 298H179V318H159V298Z" fill="#D9D9D9"/>
<path d="M159 318H179V338H159V318Z" fill="#D9D9D9"/>
<path d="M159 318H139V338M159 318V338M159 318H179M159 318V298H179M159 338H139M159 338V358M159 338H179M139 338V358M179 298H199M179 298V318M199 298V318M199 298H219M199 318H179M199 318V338M199 318H219M179 318V338M199 338H179M199 338V358M199 338H219M179 338V358M219 298V318M219 298H239M219 318V338M219 318H239M239 298H259M239 298V318M259 298V318M259 298H279V318M259 318H239M259 318H279M259 318V338H279M279 318V338M279 318H299V338M279 338H299M279 338V358H299M299 338V358M299 338H319V358M299 358H319M299 358V378M319 358V378M319 358H339V378M299 398H319M299 398V418M299 398V378M299 398H279M319 398V418M319 398V378M319 398H339M319 418H299M319 418V438M319 418H339M299 418V438M299 418H279M299 378H319M319 378H339M319 438H299M319 438V458M319 438H339M299 438V458M299 438H279M299 458H319M299 458V478M299 458H279M319 458V478M319 458H339M319 478H299M319 478H339V458M319 478V498H299M299 478H279M299 478V498M339 398V418M339 398V378M339 418V438M339 438V458M279 418V438M279 418V398M279 418H259M279 438V458M279 438H259M279 398H259M279 458V478M279 458H259M279 478V498M279 478H259M299 498H279M299 498V518H279M279 498H259M279 498V518M259 498V518M259 498H239M259 498V478M279 518H259M259 518H239M159 478H179M159 478V498H179M159 478V458M159 478H139V458M179 478V498M179 478V458M179 478H199M179 498H199M199 498H219M199 498V518H219M199 498V478M219 498V518M219 498V478M219 498H239M219 518H239M159 438H179M159 438V458M159 438H139M159 438V418M179 438V458M179 438V418M179 438H199M179 458H159M179 458H199M159 458H139M139 438V458M139 438V418M139 438H119V418M159 418H179M159 418V398M159 418H139M179 418V398M179 418H199M139 398H159M139 398V418M139 398V378M139 398H119M159 398V378M159 398H179M139 418H119M139 378H159M139 378V358M139 378H119M159 378H179M159 378V358M179 378V398M179 378V358M179 378H199M179 398H199M139 358H159M139 358H119V378M159 358H179M179 358H199M119 378V398M119 418V398M199 458V478M199 458V438M199 458H219M199 478H219M219 478V458M219 478H239M239 498V518M239 498V478M199 358V378M199 358H219M199 378V398M199 378H219M199 398V418M199 398H219M199 418V438M199 418H219M199 438H219M219 338V358M219 358V378M219 358H239V378M219 378V398M219 378H239M219 398V418M219 398H239M219 418V438M219 418H239M219 438V458M219 438H239M219 458H239M239 378V398M239 378H259V398M239 398V418M239 398H259M239 418V438M239 418H259M239 438V458M239 438H259M239 458V478M239 458H259M239 478H259M259 398V418M259 418V438M259 438V458M259 458V478" stroke="#D9D9D9" stroke-width="5"/>
</svg>
