<svg width="437" height="676" viewBox="0 0 437 676" fill="none" xmlns="http://www.w3.org/2000/svg">
<path d="M359 439H379V458H359V439Z" fill="#EDEDED"/>
<path d="M339 419H359V439H339V419Z" fill="#EDEDED"/>
<path d="M300 399H320V419H300V399Z" fill="#EDEDED"/>
<path d="M280 379H300V399H280V379Z" fill="#EDEDED"/>
<path d="M300 379H320V399H300V379Z" fill="#EDEDED"/>
<path d="M320 419H339V439H320V419Z" fill="#EDEDED"/>
<path d="M320 399H339V419H320V399Z" fill="#EDEDED"/>
<path d="M300 419H320V439H300V419Z" fill="#EDEDED"/>
<path d="M359 419H379V439H359V419Z" fill="#EDEDED"/>
<path d="M339 439H359V458H339V439Z" fill="#EDEDED"/>
<path d="M359 439H379M359 439V458M359 439V419M359 439H339M379 439V458H359M379 439V419H359M359 458H339V439M339 419H359M339 419V439M339 419H320M339 419V399H320M339 439H320M300 399H320M300 399V419M300 399V379M300 399H280V379H300M320 399V419M320 399V379H300M320 419H300M320 419V439M300 419V439H320" stroke="#EDEDED" stroke-width="5"/>
<path d="M219 519H239V539H219V519Z" fill="#949494"/>
<path d="M198 519H219V539H198V519Z" fill="#949494"/>
<path d="M239 519H279V539H239V519Z" fill="#949494"/>
<path d="M279 519H299V539H279V519Z" fill="#949494"/>
<path d="M239 519H259V539H239V519Z" fill="#949494"/>
<path d="M178 519H198V539H178V519Z" fill="#949494"/>
<path d="M158 519H178V539H158V519Z" fill="#949494"/>
<path d="M58 459H78V480H58V459Z" fill="#949494"/>
<path d="M38 459H58V480H38V459Z" fill="#949494"/>
<path d="M18 459H38V480H18V459Z" fill="#949494"/>
<path d="M18 438H38V459H18V438Z" fill="#949494"/>
<path d="M18 418H38V438H18V418Z" fill="#949494"/>
<path d="M138 500H158V519H138V500Z" fill="#949494"/>
<path d="M138 519H158V539H138V519Z" fill="#949494"/>
<path d="M118 519H138V539H118V519Z" fill="#949494"/>
<path d="M98 519H118V539H98V519Z" fill="#949494"/>
<path d="M98 500H118V519H98V500Z" fill="#949494"/>
<path d="M78 500H98V519H78V500Z" fill="#949494"/>
<path d="M58 500H78V519H58V500Z" fill="#949494"/>
<path d="M118 500H138V519H118V500Z" fill="#949494"/>
<path d="M58 480H78V500H58V480Z" fill="#949494"/>
<path d="M78 480H98V500H78V480Z" fill="#949494"/>
<path d="M38 480H58V500H38V480Z" fill="#949494"/>
<path d="M98 480H118V500H98V480Z" fill="#949494"/>
<path d="M38 399H59V418H38V399Z" fill="#949494"/>
<path d="M319 519H339V539H319V519Z" fill="#949494"/>
<path d="M299 519H319V539H299V519Z" fill="#949494"/>
<path d="M219 519H239M219 519V539M219 519H198M239 519V539M239 519H279M239 519H259V539H239M239 539H219M239 539H279M219 539H198M198 519V539M198 519H178M198 539H178M279 519V539M279 519H299M279 539H299M299 519V539M299 519H319M299 539H319M178 519V539M178 519H158M178 539H158M158 519V539M158 519V500H138M158 519H138M158 539H138M58 459H78V480M58 459V480M58 459H38M78 480H58M78 480V500M78 480H98M58 480H38M58 480V500M38 459V480M38 459H18M38 459V438M38 480H18V459M38 480V500H58M18 459V438M18 438H38M18 438V418H38M38 438V418M38 418H59V399H38V418ZM138 500V519M138 500H118M138 519V539M138 519H118M138 539H118M118 519V539M118 519H98M118 519V500M118 539H98V519M98 519V500M98 519H78M98 500H118M98 500H78M98 500V480M118 500V480H98M78 500V519M78 500H58M78 519H58V500M319 519H339V539H319M319 519V539" stroke="#949494" stroke-width="5"/>
<path d="M98 419H118V439H98V419Z" fill="#D9D9D9"/>
<path d="M118 419H138V439H118V419Z" fill="#D9D9D9"/>
<path d="M98 399H118V419H98V399Z" fill="#D9D9D9"/>
<path d="M39 439H59V459H39V439Z" fill="#D9D9D9"/>
<path d="M39 419H59V439H39V419Z" fill="#D9D9D9"/>
<path d="M118 459H138V479H118V459Z" fill="#D9D9D9"/>
<path d="M138 459H158V479H138V459Z" fill="#D9D9D9"/>
<path d="M118 479H138V499H118V479Z" fill="#D9D9D9"/>
<path d="M78 459H98V479H78V459Z" fill="#D9D9D9"/>
<path d="M98 459H118V479H98V459Z" fill="#D9D9D9"/>
<path d="M78 439H98V459H78V439Z" fill="#D9D9D9"/>
<path d="M59 439H78V459H59V439Z" fill="#D9D9D9"/>
<path d="M59 419H78V439H59V419Z" fill="#D9D9D9"/>
<path d="M59 399H78V419H59V399Z" fill="#D9D9D9"/>
<path d="M78 399H98V419H78V399Z" fill="#D9D9D9"/>
<path d="M59 379H78V399H59V379Z" fill="#D9D9D9"/>
<path d="M78 379H98V399H78V379Z" fill="#D9D9D9"/>
<path d="M78 419H98V439H78V419Z" fill="#D9D9D9"/>
<path d="M98 439H118V459H98V439Z" fill="#D9D9D9"/>
<path d="M138 479H158V499H138V479Z" fill="#D9D9D9"/>
<path d="M178 479H198V499H178V479Z" fill="#D9D9D9"/>
<path d="M198 479H219V499H198V479Z" fill="#D9D9D9"/>
<path d="M158 479H178V499H158V479Z" fill="#D9D9D9"/>
<path d="M219 479H239V499H219V479Z" fill="#D9D9D9"/>
<path d="M239 479H259V499H239V479Z" fill="#D9D9D9"/>
<path d="M259 479H279V499H259V479Z" fill="#D9D9D9"/>
<path d="M198 499H219V519H198V499Z" fill="#D9D9D9"/>
<path d="M178 499H198V519H178V499Z" fill="#D9D9D9"/>
<path d="M158 499H178V519H158V499Z" fill="#D9D9D9"/>
<path d="M379 479H399V499H379V479Z" fill="#D9D9D9"/>
<path d="M359 479H379V499H359V479Z" fill="#D9D9D9"/>
<path d="M399 459H419V479H399V459Z" fill="#D9D9D9"/>
<path d="M399 438H419V459H399V438Z" fill="#D9D9D9"/>
<path d="M399 418H419V438H399V418Z" fill="#D9D9D9"/>
<path d="M379 459H399V479H379V459Z" fill="#D9D9D9"/>
<path d="M379 438H399V459H379V438Z" fill="#D9D9D9"/>
<path d="M379 418H399V438H379V418Z" fill="#D9D9D9"/>
<path d="M359 398H379V418H359V398Z" fill="#D9D9D9"/>
<path d="M340 398H359V418H340V398Z" fill="#D9D9D9"/>
<path d="M359 379H379V398H359V379Z" fill="#D9D9D9"/>
<path d="M340 379H359V398H340V379Z" fill="#D9D9D9"/>
<path d="M320 379H340V398H320V379Z" fill="#D9D9D9"/>
<path d="M359 459H379V479H359V459Z" fill="#D9D9D9"/>
<path d="M299 479H319V499H299V479Z" fill="#D9D9D9"/>
<path d="M279 479H299V499H279V479Z" fill="#D9D9D9"/>
<path d="M319 479H339V499H319V479Z" fill="#D9D9D9"/>
<path d="M178 459H198V479H178V459Z" fill="#D9D9D9"/>
<path d="M198 459H219V479H198V459Z" fill="#D9D9D9"/>
<path d="M158 459H178V479H158V459Z" fill="#D9D9D9"/>
<path d="M219 459H239V479H219V459Z" fill="#D9D9D9"/>
<path d="M239 459H259V479H239V459Z" fill="#D9D9D9"/>
<path d="M259 459H279V479H259V459Z" fill="#D9D9D9"/>
<path d="M299 459H319V479H299V459Z" fill="#D9D9D9"/>
<path d="M279 459H299V479H279V459Z" fill="#D9D9D9"/>
<path d="M319 459H339V479H319V459Z" fill="#D9D9D9"/>
<path d="M178 439H198V459H178V439Z" fill="#D9D9D9"/>
<path d="M198 439H219V459H198V439Z" fill="#D9D9D9"/>
<path d="M158 439H178V459H158V439Z" fill="#D9D9D9"/>
<path d="M219 439H239V459H219V439Z" fill="#D9D9D9"/>
<path d="M239 439H259V459H239V439Z" fill="#D9D9D9"/>
<path d="M259 439H279V459H259V439Z" fill="#D9D9D9"/>
<path d="M299 439H319V459H299V439Z" fill="#D9D9D9"/>
<path d="M279 439H299V459H279V439Z" fill="#D9D9D9"/>
<path d="M319 439H339V459H319V439Z" fill="#D9D9D9"/>
<path d="M178 419H198V439H178V419Z" fill="#D9D9D9"/>
<path d="M198 419H219V439H198V419Z" fill="#D9D9D9"/>
<path d="M158 419H178V439H158V419Z" fill="#D9D9D9"/>
<path d="M219 419H239V439H219V419Z" fill="#D9D9D9"/>
<path d="M239 419H259V439H239V419Z" fill="#D9D9D9"/>
<path d="M279 419H299V439H279V419Z" fill="#D9D9D9"/>
<path d="M279 399H299V419H279V399Z" fill="#D9D9D9"/>
<path d="M259 379H279V399H259V379Z" fill="#D9D9D9"/>
<path d="M219 379H239V399H219V379Z" fill="#D9D9D9"/>
<path d="M239 379H259V399H239V379Z" fill="#D9D9D9"/>
<path d="M259 419H279V439H259V419Z" fill="#D9D9D9"/>
<path d="M219 399H239V419H219V399Z" fill="#D9D9D9"/>
<path d="M239 399H259V419H239V399Z" fill="#D9D9D9"/>
<path d="M259 399H279V419H259V399Z" fill="#D9D9D9"/>
<path d="M339 479H359V499H339V479Z" fill="#D9D9D9"/>
<path d="M339 459H359V479H339V459Z" fill="#D9D9D9"/>
<path d="M138 439H158V459H138V439Z" fill="#D9D9D9"/>
<path d="M138 419H158V439H138V419Z" fill="#D9D9D9"/>
<path d="M178 399H198V419H178V399Z" fill="#D9D9D9"/>
<path d="M198 399H219V419H198V399Z" fill="#D9D9D9"/>
<path d="M158 399H178V419H158V399Z" fill="#D9D9D9"/>
<path d="M138 399H158V419H138V399Z" fill="#D9D9D9"/>
<path d="M178 379H198V399H178V379Z" fill="#D9D9D9"/>
<path d="M198 379H219V399H198V379Z" fill="#D9D9D9"/>
<path d="M158 379H178V399H158V379Z" fill="#D9D9D9"/>
<path d="M138 379H158V399H138V379Z" fill="#D9D9D9"/>
<path d="M98 379H118V399H98V379Z" fill="#D9D9D9"/>
<path d="M118 379H138V399H118V379Z" fill="#D9D9D9"/>
<path d="M98 359H118V379H98V359Z" fill="#D9D9D9"/>
<path d="M118 359H138V379H118V359Z" fill="#D9D9D9"/>
<path d="M300 359H320V379H300V359Z" fill="#D9D9D9"/>
<path d="M320 359H340V379H320V359Z" fill="#D9D9D9"/>
<path d="M259 359H279V379H259V359Z" fill="#D9D9D9"/>
<path d="M279 359H300V379H279V359Z" fill="#D9D9D9"/>
<path d="M198 359H219V379H198V359Z" fill="#D9D9D9"/>
<path d="M219 359H239V379H219V359Z" fill="#D9D9D9"/>
<path d="M239 359H259V379H239V359Z" fill="#D9D9D9"/>
<path d="M178 359H198V379H178V359Z" fill="#D9D9D9"/>
<path d="M138 359H158V379H138V359Z" fill="#D9D9D9"/>
<path d="M158 359H178V379H158V359Z" fill="#D9D9D9"/>
<path d="M118 439H138V459H118V439Z" fill="#D9D9D9"/>
<path d="M118 399H138V419H118V399Z" fill="#D9D9D9"/>
<path d="M379 398H399V418H379V398Z" fill="#D9D9D9"/>
<path d="M259 499H279V519H259V499Z" fill="#D9D9D9"/>
<path d="M219 499H239V519H219V499Z" fill="#D9D9D9"/>
<path d="M239 499H259V519H239V499Z" fill="#D9D9D9"/>
<path d="M359 499H379V519H359V499Z" fill="#D9D9D9"/>
<path d="M339 499H359V519H339V499Z" fill="#D9D9D9"/>
<path d="M279 499H299V519H279V499Z" fill="#D9D9D9"/>
<path d="M299 499H319V519H299V499Z" fill="#D9D9D9"/>
<path d="M319 499H339V519H319V499Z" fill="#D9D9D9"/>
<path d="M98 419H118M98 419V439M98 419V399M98 419H78M118 419V439M118 419H138M118 419V399M118 439H98M118 439H138M118 439V459M98 439H78M98 439V459M138 419V439M138 419H158M138 419V399M138 439H158M138 439V459M98 399H118M98 399H78M98 399V379M118 399V379M118 399H138M39 439H59M39 439V459H59M39 439V419H59M59 439V459M59 439V419M59 439H78M59 459H78M59 419H78M59 419V399M118 459H138M118 459V479M118 459H98M138 459V479M138 459H158M138 479H118M138 479H158M138 479V499M118 479V499H138M118 479H98M158 459V479M158 459H178M158 459V439M158 479V499M158 479H178M138 499H158M78 459H98M78 459V479H98M78 459V439M98 459V479M78 439V419M78 419V399M59 399H78M59 399V379H78M78 399V379M78 379H98M98 379H118M98 379V359H118M158 499H178M158 499V519H178M178 479H198M178 479V499M178 479V459M198 479V499M198 479H219M198 479V459M198 499H178M198 499H219M198 499V519M178 499V519M219 479V499M219 479H239M219 479V459M219 499H239M219 499V519M239 479V499M239 479H259M239 479V459M239 499H259M239 499V519M259 479V499M259 479H279M259 479V459M259 499H279M259 499V519M279 479V499M279 479H299M279 479V459M279 499H299M279 499V519M219 519H198M219 519H239M198 519H178M379 479H399M379 479V499M379 479H359M379 479V459M399 479V499H379M399 479H419V459M399 479V459M379 499H359M379 499V519H359M359 479V499M359 479V459M359 479H339M359 499H339M359 499V519M399 459H419M399 459V438M399 459H379M419 459V438M399 438H419M399 438V418M399 438H379M419 438V418H399M399 418H379M399 418V398H379M379 459V438M379 459H359M379 438V418M379 418V398M379 418H359M359 398H379M359 398V418M359 398H340M359 398V379M379 398V379H359M359 418H340V398M340 398V379M340 398H320V379M359 379H340M340 379H320M340 379V359H320M320 379V359M320 379H300M359 459H339M299 479H319M299 479V499M299 479V459M319 479V499M319 479H339M319 479V459M319 499H299M319 499H339M319 499V519M299 499V519M339 479V499M339 479V459M339 499V519M178 459H198M178 459V439M198 459H219M198 459V439M219 459H239M219 459V439M239 459H259M239 459V439M259 459H279M259 459V439M279 459H299M279 459V439M299 459H319M299 459V439M319 459H339M319 459V439M339 459V439H319M178 439H198M178 439H158M178 439V419M198 439H219M198 439V419M219 439H239M219 439V419M158 439V419M239 439H259M239 439V419M259 439H279M259 439V419M279 439H299M279 439V419M299 439H319M299 439V419M178 419H198M178 419H158M178 419V399M198 419H219M198 419V399M219 419H239M219 419V399M158 419V399M239 419H259M239 419V399M259 419H279M259 419V399M279 419H299M279 419V399M299 419V399H279M279 399V379M279 399H259M259 379H279M259 379V399M259 379H239M259 379V359M279 379V359M279 379H300M259 399H239M219 379H239M219 379V399M219 379H198M219 379V359M239 379V399M239 379V359M239 399H219M219 399H198M178 399H198M178 399H158M178 399V379M198 399V379M158 399H138M158 399V379M138 399V379M178 379H198M178 379H158M178 379V359M198 379V359M158 379H138M158 379V359M138 379H118M138 379V359M118 379V359M118 359H138M138 359H158M300 359H320M300 359V379M300 359H279M259 359H279M259 359H239M198 359H219M198 359H178M219 359H239M178 359H158M279 519H259M279 519H299M259 519H239M359 519H339M339 519H319M299 519H319" stroke="#D9D9D9" stroke-width="5"/>
</svg>
