<svg xmlns="http://www.w3.org/2000/svg" width="437" height="483" fill="none"><path fill="#EDEDED" d="M374.824 380h19.725v19h-19.725v-19Zm-18.74-20h18.74v20h-18.74v-20Zm-39.45-20h19.725v20h-19.725v-20Zm-19.726-20h19.726v20h-19.726v-20Zm19.726 0h19.725v20h-19.725v-20Zm19.725 40h19.725v20h-19.725v-20Z"/><path fill="#EDEDED" d="M336.359 340h19.725v20h-19.725v-20Zm-19.725 20h19.725v20h-19.725v-20Zm58.19 0h19.725v20h-19.725v-20Zm-18.74 20h18.74v19h-18.74v-19Z"/><path stroke="#EDEDED" stroke-width="5" d="M374.824 380h19.725m-19.725 0v19m0-19v-20m0 20h-18.74m38.465 0v19h-19.725m19.725-19v-20h-19.725m0 39h-18.74v-19m0-20h18.74m-18.74 0v20m0-20h-19.725m19.725 0v-20h-19.725m19.725 40h-19.725m-19.725-40h19.725m-19.725 0v20m0-20v-20m0 20h-19.726v-20h19.726m19.725 20v20m0-20v-20h-19.725m19.725 40h-19.725m19.725 0v20m-19.725-20v20h19.725"/><path fill="#949494" d="M219.928 440h20.415v20h-20.415v-20Z"/><path fill="#949494" d="M200.485 440h19.443v20h-19.443v-20Zm39.858 0h38.885v20h-38.885v-20Zm38.885 0h19.443v20h-19.443v-20Z"/><path fill="#949494" d="M240.343 440h19.443v20h-19.443v-20Zm-59.301 0h19.443v20h-19.443v-20Zm-19.443 0h19.443v20h-19.443v-20Zm-97.215-60h19.443v21H64.384v-21Zm-19.443 0h19.443v21H44.941v-21Zm-19.442 0H44.94v21H25.5v-21Zm0-21H44.94v21H25.5v-21Zm0-19.5H44.94V359H25.5v-19.5ZM142.156 421h19.443v19h-19.443v-19Z"/><path fill="#949494" d="M142.156 440h19.443v20h-19.443v-20Zm-19.443 0h19.443v20h-19.443v-20Zm-19.443 0h19.443v20H103.27v-20Zm-19.443 0h19.443v20H83.827v-20Zm-58.328-39H44.94v20H25.5v-20ZM8 380h17.499v21H8v-21Zm0-21h17.499v21H8v-21Zm95.27 62h19.443v19H103.27v-19Zm-19.443 0h19.443v19H83.827v-19Zm-38.886 0h19.443v19H44.941v-19Zm19.443 0h19.443v19H64.384v-19Zm58.329 0h19.443v19h-19.443v-19Zm-58.329-20h19.443v20H64.384v-20Zm19.443 0h19.443v20H83.827v-20Zm-38.886 0h19.443v20H44.941v-20Zm58.329 0h19.443v20H103.27v-20Zm-58.329-81h19.443v19.5H44.941V320Zm273.173 120h19.443v20h-19.443v-20Zm19.443 0H357v20h-19.443v-20Zm-38.886 0h19.443v20h-19.443v-20Z"/><path stroke="#949494" stroke-width="5" d="M219.928 440h20.415m-20.415 0v20m0-20h-19.443m39.858 0v20m0-20h38.885m-38.885 0h19.443v20h-19.443m0 0h-20.415m20.415 0h38.885m-59.3 0h-19.443m0-20v20m0-20h-19.443m19.443 20h-19.443m98.186-20v20m0-20h19.443m-19.443 20h19.443m0-20v20m0-20h19.443m-19.443 20h19.443m-137.072-20v20m0-20h-19.443m19.443 20h-19.443m0-20v20m0-20v-19h-19.443m19.443 19h-19.443m19.443 20h-19.443m-77.772-80h19.443v21m-19.443-21v21m0-21H44.941m38.886 21H64.384m19.443 0v20m0-20h19.443m-38.886 0H44.941m19.443 0v20m-19.443-41v21m0-21H25.5m19.442 0v-21m0 42H25.5m19.442 0v20M25.5 380v21m0-21v-21m0 21H8m17.499 21v20H44.94M25.5 401H8v-21m17.499-21H44.94m-19.44 0v-19.5h19.44M25.5 359H8v21m36.941-21v-19.5m0 0h19.443V320H44.941v19.5Zm97.215 81.5v19m0-19h-19.443m19.443 19v20m0-20h-19.443m19.443 20h-19.443m0-20v20m0-20H103.27m19.443 0v-19m0 39H103.27m0-20v20m0-20H83.827m19.443 0v-19m0 39H83.827v-20m0 0v-19m0 19H64.384m-19.443-19h19.443m-19.443 0v19h19.443m38.886-19h19.443m-19.443 0H83.827m19.443 0v-20m19.443 20v-20H103.27m-19.443 20H64.384m0 0v19m253.73 0h19.443m-19.443 0v20m19.443-20v20m0-20H357v20h-19.443m0 0h-19.443"/><path fill="#D9D9D9" d="M99.082 340h19.523v20H99.082v-20Zm19.523 0h19.523v20h-19.523v-20Zm-19.523-20h19.523v20H99.082v-20ZM41 360h20.011v21H41v-21Zm0-20h20.011v20H41v-20Zm77.605 41h19.523v19h-19.523v-19Z"/><path fill="#D9D9D9" d="M138.128 381h19.523v19h-19.523v-19Zm-19.523 19h19.523v20h-19.523v-20Zm-39.047-19h19.524v19H79.558v-19Zm19.524 0h19.523v19H99.082v-19Zm-19.524-21h19.524v21H79.558v-21Zm-18.547 0h18.547v21H61.011v-21Zm0-20h18.547v20H61.011v-20Zm0-20h18.547v20H61.011v-20Zm18.547 0h19.524v20H79.558v-20Zm-18.547-20h18.547v20H61.011v-20Zm18.547 0h19.524v20H79.558v-20Zm0 40h19.524v20H79.558v-20Zm19.524 20h19.523v21H99.082v-21Zm39.046 40h19.523v20h-19.523v-20Zm39.046 0h19.524v20h-19.524v-20Zm19.524 0h20.499v20h-20.499v-20Zm-39.047 0h19.523v20h-19.523v-20Zm59.546 0h19.523v20h-19.523v-20Zm19.523 0h19.523v20H236.72v-20Zm19.523 0h19.524v20h-19.524v-20Zm-59.545 20h20.499v20h-20.499v-20Zm-19.524 0h19.524v20h-19.524v-20Zm-19.523 0h19.523v20h-19.523v-20Zm215.732-20h19.523v20h-19.523v-20Zm-19.524 0h19.524v20h-19.524v-20Zm39.047-20h19.523v20h-19.523v-20Zm0 20h19.523v20h-19.523v-20Zm-19.523 20h19.523v20h-19.523v-20Zm19.523-61h19.523v21h-19.523v-21Zm19.523 21H430v20h-17.571v-20Zm0-21H430v21h-17.571v-21Zm-19.523-20h19.523v20h-19.523v-20Zm-19.523 0h19.523v20h-19.523v-20Zm-19.524-19h19.524v19h-19.524v-19Z"/><path fill="#D9D9D9" d="M335.312 320h18.547v19h-18.547v-19Zm18.547 19h19.524v20h-19.524v-20Zm-58.569-39h20.499v20H295.29v-20Zm-19.523 0h19.523v20h-19.523v-20Zm78.092 0h19.524v20h-19.524v-20Z"/><path fill="#D9D9D9" d="M335.312 300h18.547v20h-18.547v-20Zm-19.523 0h19.523v20h-19.523v-20ZM295.29 400h19.523v20H295.29v-20Zm-19.523 0h19.523v20h-19.523v-20Z"/><path fill="#D9D9D9" d="M314.813 400h19.523v20h-19.523v-20Zm-137.639-19h19.524v19h-19.524v-19Zm19.524 0h20.499v19h-20.499v-19Zm-39.047 0h19.523v19h-19.523v-19Zm59.546 0h19.523v19h-19.523v-19Zm19.523 0h19.523v19H236.72v-19Zm19.523 0h19.524v19h-19.524v-19Zm39.047 0h19.523v19H295.29v-19Zm-19.523 0h19.523v19h-19.523v-19Z"/><path fill="#D9D9D9" d="M314.813 381h19.523v19h-19.523v-19Zm-137.639-21h19.524v21h-19.524v-21Zm19.524 0h20.499v21h-20.499v-21Zm-39.047 0h19.523v21h-19.523v-21Zm59.546 0h19.523v21h-19.523v-21Zm19.523 0h19.523v21H236.72v-21Zm19.523 0h19.524v21h-19.524v-21Zm19.524 0h19.523v21h-19.523v-21Zm-98.593-20h19.524v20h-19.524v-20Zm19.524 0h20.499v20h-20.499v-20Zm-39.047 0h19.523v20h-19.523v-20Zm59.546 0h19.523v20h-19.523v-20Zm19.523 0h19.523v20H236.72v-20Zm39.047 0h19.523v20h-19.523v-20Zm-19.524-40h19.524v20h-19.524v-20Zm-39.046 0h19.523v20h-19.523v-20Zm19.523 0h19.523v20H236.72v-20Zm19.523 40h19.524v20h-19.524v-20Zm-39.046-20h19.523v20h-19.523v-20Zm19.523 0h19.523v20H236.72v-20Zm19.523 0h19.524v20h-19.524v-20Zm78.093 61h19.523v19h-19.523v-19Zm-39.046-21h19.523v21H295.29v-21Zm0-20h19.523v20H295.29v-20Zm-19.523-20h19.523v20h-19.523v-20Zm58.569 80h19.523v20h-19.523v-20Zm-196.208-40h19.523v21h-19.523v-21Zm0-20h19.523v20h-19.523v-20Zm39.046-20h19.524v20h-19.524v-20Zm19.524 0h20.499v20h-20.499v-20Zm-39.047 0h19.523v20h-19.523v-20Zm-19.523 0h19.523v20h-19.523v-20Zm39.046-20h19.524v20h-19.524v-20Zm19.524 0h20.499v20h-20.499v-20Zm-39.047 0h19.523v20h-19.523v-20Zm-19.523 0h19.523v20h-19.523v-20Zm-39.046 0h19.523v20H99.082v-20Z"/><path fill="#D9D9D9" d="M118.605 300h19.523v20h-19.523v-20Zm0 60h19.523v21h-19.523v-21Zm0-40h19.523v20h-19.523v-20Zm254.778 0h19.523v19h-19.523v-19Zm-117.14 100h19.524v20h-19.524v-20Zm-39.046 0h19.523v20h-19.523v-20Zm19.523 0h19.523v20H236.72v-20Zm117.139 0h19.524v20h-19.524v-20Z"/><path fill="#D9D9D9" d="M334.336 420h19.523v20h-19.523v-20Zm-58.569 0h19.523v20h-19.523v-20Zm19.523 0h19.523v20H295.29v-20Z"/><path fill="#D9D9D9" d="M314.813 420h19.523v20h-19.523v-20Z"/><path stroke="#D9D9D9" stroke-width="5" d="M99.082 340h19.523m-19.523 0v20m0-20v-20m0 20H79.558m39.047 0v20m0-20h19.523m-19.523 0v-20m0 40H99.082m19.523 0h19.523m-19.523 0v21m-19.523-21H79.558m19.524 0v21m39.046-41v20m0-20h19.523m-19.523 0v-20m0 40h19.523m-19.523 0v21m-39.046-61h19.523m-19.523 0H79.558m19.524 0v-20m19.523 20v-20m0 20h19.523M41 360h20.011M41 360v21h20.011M41 360v-20h20.011m0 20v21m0-21v-20m0 20h18.547m-18.547 21h18.547m-18.547-41h18.547m-18.547 0v-20m57.594 61h19.523m-19.523 0v19m0-19H99.082m39.046 0v19m0-19h19.523m-19.523 19h-19.523m19.523 0h19.523m-19.523 0v20m-19.523-20v20h19.523m-19.523-20H99.082m58.569-19v19m0-19h19.523m-19.523 0v-21m0 40v20m0-20h19.523m-39.046 20h19.523m-78.093-39h19.524m-19.524 0v19h19.524m-19.524-19v-21m19.524 21v19m-19.524-40v-20m0 0v-20m-18.547 0h18.547m-18.547 0v-20h18.547m0 20v-20m0 0h19.524m0 0h19.523m39.046 120h19.523m-19.523 0v20h19.523m0-40h19.524m-19.524 0v20m0-20v-19m19.524 19v20m0-20h20.499m-20.499 0v-19m0 39h-19.524m19.524 0h20.499m-20.499 0v20m-19.524-20v20m40.023-40v20m0-20h19.523m-19.523 0v-19m0 39h19.523m-19.523 0v20m19.523-40v20m0-20h19.523m-19.523 0v-19m0 39h19.523m-19.523 0v20m19.523-40v20m0-20h19.524m-19.524 0v-19m0 39h19.524m-19.524 0v20m19.524-40v20m0-20h19.523m-19.523 0v-19m0 39h19.523m-19.523 0v20m-58.57 0h-20.499m20.499 0h19.523m-40.022 0h-19.524m196.209-40h19.523m-19.523 0v20m0-20h-19.524m39.047 0v20m0-20h19.523m-19.523 0v-20m0 40h-19.523m19.523 0h19.523v-20m-19.523 20v20h-19.523m0-20h-19.524m19.524 0v20m-19.524-40v20m0-20v-19h-19.523m19.523 19h-19.523m19.523 20h-19.523m19.523 0v20m39.047-60h19.523m-19.523 0v-21m19.523 21v20m0-20v-21m0 21H430m-17.571 20H430v-20m-56.617 60h-19.524m39.047-81h19.523m-19.523 0v-20m0 20h-19.523m39.046 0H430v21m-17.571-21v-20h-19.523m0 0h-19.523m19.523 0v-19h-19.523m0 19v20m0-20v-19m0 19h-19.524m19.524 20h-19.524v-20m0-19h19.524m-19.524 0v19m0-19h-18.547m18.547 0v-20m19.524 20v-20h-19.524m0 39h-18.547v-19m0 0v-20m0 20h-19.523m-20.499-20h20.499m-20.499 0v20m0-20h-19.523m40.022 0v20m0-20h19.523m-19.523 20H295.29m0 0h-19.523m19.523 0v20m-19.523-40v20m0-20h-19.524m19.524 20h-19.524m19.524 0v20m78.092-40h-18.547M295.29 400h19.523m-19.523 0v20m0-20v-19m19.523 19v20m0-20h19.523m-19.523 0v-19m0 39H295.29m19.523 0h19.523m-19.523 0v20m-19.523-20v20m39.046-40v20m0-20v-19m0 39v20m-157.162-59h19.524m-19.524 0v-21m19.524 21h20.499m-20.499 0v-21m20.499 21h19.523m-19.523 0v-21m19.523 21h19.523m-19.523 0v-21m19.523 21h19.524m-19.524 0v-21m19.524 21h19.523m-19.523 0v-21m19.523 21h19.523m-19.523 0v-21m19.523 21h19.523m-19.523 0v-21m-137.639 0h19.524m-19.524 0h-19.523m19.523 0v-20m19.524 20h20.499m-20.499 0v-20m20.499 20h19.523m-19.523 0v-20m-59.546 20v-20m79.069 20h19.523m-19.523 0v-20m19.523 20h19.524m-19.524 0v-20m19.524 20h19.523m-19.523 0v-20m19.523 20v-20m0 20h19.523m-137.639-20h19.524m-19.524 0h-19.523m19.523 0v-20m19.524 20h20.499m-20.499 0v-20m20.499 20h19.523m-19.523 0v-20m-59.546 20v-20m79.069 20h19.523m-19.523 0v-20m19.523 20h19.524m-19.524 0v-20m19.524 20h19.523m0 0h19.523v20m-58.57-60v20m0-20H236.72m19.523 20H236.72m-19.523-20h19.523m-19.523 0v20m0-20h-20.499m40.022 0v20m0 0h-19.523m0 0h-20.499m-19.524 0h19.524m-19.524 0h-19.523m19.523 0v-20m19.524 20v-20m-39.047 20h-19.523m19.523 0v-20m-19.523 20v-20m39.046 0h19.524m-19.524 0h-19.523m0 0h-19.523m0 0h-19.523m157.162 140h-19.524m19.524 0h19.523m-39.047 0H236.72m117.139 0h-19.523m0 0h-19.523m-19.523 0h19.523"/></svg>