<svg xmlns="http://www.w3.org/2000/svg" width="437" height="483" fill="none"><path fill="#949494" d="M59 360h20v20H59v-20Zm0 20h20v20H59v-20Zm20 20h20v20H79v-20Zm120 40h20v20h-20v-20Zm60 0h40v20h-40v-20Zm40 0h20v20h-20v-20Z"/><path fill="#949494" d="M259 440h20v20h-20v-20Zm-20 0h20v20h-20v-20Zm-20 0h20v20h-20v-20ZM99 380h20v20H99v-20Zm80 60h20v20h-20v-20Zm-20-20h20v20h-20v-20Zm0 20h20v20h-20v-20Zm-20 0h20v20h-20v-20Zm-20 0h20v20h-20v-20Zm0-20h20v20h-20v-20Zm-20 0h20v20H99v-20Zm0-20h20v20H99v-20Zm-20 20h20v20H79v-20Zm-20-20h20v20H59v-20Zm80 20h20v20h-20v-20Zm-20-20h20v20h-20v-20Zm-40-20h20v20H79v-20Zm0-20h20v20H79v-20Zm-20-20h20v20H59v-20Z"/><path stroke="#949494" stroke-width="5" d="M59 360h20m-20 0v20m0-20v-20h20v20m0 0v20m0-20h20v20m-20 0H59m20 0v20m0-20h20m-40 0v20m20 0H59m20 0h20m-20 0v20m-20-20v20h20m20-20v20m0-20h20m-20 0v-20m0 40H79m20 0h20m-20 0v20m-20-20v20h20m100 0h20m-20 0v20m0-20h-20m40 0v20m0-20h20m-20 20h-20m20 0h20m-40 0h-20m80-20h40m-40 0v20m0-20h20v20h-20m0-20h-20m60 0v20m0-20h20v20h-20m0 0h-40m0 0h-20m0-20v20M99 380h20v20m0 0v20m0-20h20v20m40 20v20m0-20v-20h-20m20 20h-20m20 20h-20m0-40v20m0-20h-20m20 20v20m0-20h-20m20 20h-20m0-20v20m0-20h-20m20 0v-20m0 40h-20v-20m0 0v-20m0 20H99m20-20h20"/><path fill="#EDEDED" d="M279 340h20v20h-20v-20Zm0-20h20v20h-20v-20Zm-20 0h20v20h-20v-20Zm0-20h20v20h-20v-20Zm-20 0h20v20h-20v-20Zm0 20h20v20h-20v-20Z"/><path stroke="#EDEDED" stroke-width="5" d="M279 340h20m-20 0v20h20v-20m-20 0v-20m0 20h-20m40 0v-20h-20m0 0h-20m20 0v-20h-20m0 20v20m0-20v-20m0 20h-20m20 20h-20v-20m20-20h-20v20"/><path fill="#D9D9D9" d="M79 340h20v20H79v-20Zm20 0h20v20H99v-20Zm-20-20h20v20H79v-20Zm20 61h20v19H99v-19Zm20 0h20v19h-20v-19Zm40 19h20v20h-20v-20Zm20 0h20v20h-20v-20Zm-40 0h20v20h-20v-20Zm60 0h20v20h-20v-20Zm20 0h20v20h-20v-20Zm60 20h20v20h-20v-20Zm-60 0h20v20h-20v-20Zm20 0h20v20h-20v-20Zm-40 0h20v20h-20v-20Zm60 0h20v20h-20v-20Zm-80 0h20v20h-20v-20Zm120 0h20v20h-20v-20Zm20 0h20v20h-20v-20Zm20 0h20v20h-20v-20Zm0-20h20v20h-20v-20Zm-180-19h20v19h-20v-19Zm20 0h20v19h-20v-19Zm-40 0h20v19h-20v-19Zm60 0h20v19h-20v-19Zm20 0h20v19h-20v-19Zm120 0h20v19h-20v-19Zm-180-21h20v21h-20v-21Zm20 0h20v21h-20v-21Zm-40 0h20v21h-20v-21Zm60 0h20v21h-20v-21Zm20 0h20v21h-20v-21Zm120 0h20v21h-20v-21Zm-180-20h20v20h-20v-20Zm20 0h20v20h-20v-20Zm-40 0h20v20h-20v-20Zm60 0h20v20h-20v-20Zm20 0h20v20h-20v-20Zm20 60h20v20h-20v-20Zm80 0h20v20h-20v-20Zm-80-19h20v19h-20v-19Zm80 0h20v19h-20v-19Zm-60 19h20v20h-20v-20Zm20 0h20v20h-20v-20Zm20 0h20v20h-20v-20Zm-40-19h20v19h-20v-19Zm20 0h20v19h-20v-19Zm20 0h20v19h-20v-19Zm-60-21h20v21h-20v-21Zm20 0h20v21h-20v-21Zm20 0h20v21h-20v-21Zm40 0h20v21h-20v-21Zm-20 0h20v21h-20v-21Zm-60-20h20v20h-20v-20Zm20 0h20v20h-20v-20Zm60 0h20v20h-20v-20Zm-20 0h20v20h-20v-20Zm40 0h20v20h-20v-20Zm-20-20h20v20h-20v-20Zm-20 0h20v20h-20v-20Zm40 0h20v20h-20v-20Zm-40-21h20v21h-20v-21Zm-20 0h20v21h-20v-21Zm40 0h20v21h-20v-21Zm-20-20h20v20h-20v-20Zm-20 0h20v20h-20v-20Zm40 0h20v20h-20v-20Zm-80 0h20v20h-20v-20Zm-20 0h20v20h-20v-20Zm40 0h20v20h-20v-20Zm100 121h20v20h-20v-20Zm0-19h20v19h-20v-19Zm0-21h20v21h-20v-21Zm0-20h20v20h-20v-20Zm-240 20h20v21h-20v-21Zm0-20h20v20h-20v-20Zm40-20h20v20h-20v-20Zm20 0h20v20h-20v-20Zm-40 0h20v20h-20v-20Zm60 0h20v20h-20v-20Zm20 0h20v20h-20v-20Zm-100 0h20v20h-20v-20Zm40-21h20v21h-20v-21Zm20 0h20v21h-20v-21Zm-40 0h20v21h-20v-21Zm60 0h20v21h-20v-21Zm20 0h20v21h-20v-21Zm-100 0h20v21h-20v-21Zm40-20h20v20h-20v-20Zm20 0h20v20h-20v-20Zm-40 0h20v20h-20v-20Zm60 0h20v20h-20v-20Zm-80 0h20v20h-20v-20Zm-20 20h20v21H99v-21Zm0 61h20v21H99v-21Zm0-40h20v20H99v-20Zm20-61h20v20h-20v-20Zm80 0h20v20h-20v-20Zm20 0h20v20h-20v-20Zm-40 0h20v20h-20v-20Zm60 0h20v20h-20v-20Zm40 0h20v20h-20v-20Zm20 0h20v20h-20v-20Zm-40 0h20v20h-20v-20Zm-100 0h20v20h-20v-20Zm-20 0h20v20h-20v-20Zm-40 20h20v20H99v-20Z"/><path stroke="#D9D9D9" stroke-width="5" d="M79 340h20m-20 0v20h20m-20-20v-20h20m0 20v20m0-20h20m-20 0v-20m0 40h20m-20 0v21m20-41v20m0-20h20m-20 0v-20m0 40h20m-20 0v21m-20-61h20m-20 0v-21m0 82h20m-20 0v19h20m0-19v19m0-19h20m-20 19h20m0-19v19m0-19h20m-20 0v-21m0 40h20m-20 0v20h20m0-20h20m-20 0v20m0-20v-19m20 19v20m0-20h20m-20 0v-19m0 39h-20m20 0h20m-20 0v20h20m0-40v20m0-20h20m-20 0v-19m0 39h20m-20 0v20m20-40v20m0-20h20m-20 0v-19m0 39h20m-20 0v20m20-40v20m0-20v-19m0 19h20m-20 20v20m0-20h20m20 0h20m-20 0v20m0-20h-20m20 0v-20m20 20v20m0-20h20m-20 0v-20m0 40h-20m20 0h20m-40 0h-20m-20 0h-20m20 0h20m-40 0h-20m60-20v20m0-20v-20m60 20v20m0-20h20m-20 0v-20m0 40h20m0-20v20m0-20h20m-20 0v-20m0 40h20v-20m0 0v-20m0 20h20v-20m-40 0h20m-20 0v-19m0 19h-20m40 0v-19m0 19h20m-220-19h20m-20 0v-21m20 21h20m-20 0v-21m20 21h20m-20 0v-21m20 21h20m-20 0v-21m20 21v-21m0 21h20m80 0h20m-20 0v-21m0 21h-20m40 0v-21m0 21h20m-220-21h20m-20 0h-20m20 0v-20m20 20h20m-20 0v-20m20 20h20m-20 0v-20m-60 20v-20m80 20h20m-20 0v-20m20 20v-20m0 20h20m80 0h20m-20 0h-20m20 0v-20m20 20v-20m0 20h20m-220-20h20m-20 0h-20m20 0v-20m20 20h20m-20 0v-20m20 20h20m-20 0v-20m-60 20v-20m80 20h20m-20 0v-20m20 20h20m-20 0v-20m20 80v-19m0 19h20m40 0v-19m0 19h-20m-40-19h20m-20 0v-21m60 21h-20m20 0v-21m-40 40h20m-20 0v-19m20 19v-19m-20 0h20m-20 0v-21m20 21v-21m-40 0h20m-20 0v-20m20 20h20m-20 0v-20h-20m40 20h20m-20 0v-20m20 20v-20m0 0h20m-20 0h-20m20 0v-20m20 20h20m-20 0v-20m-40 20v-20m60 20v-20h-20m20 20h20v20m-60-40h20m-20 0h-20m20 0v-21m20 21v-21m-40 21v-21m0 21h-20v-21m20 0h20m-20 0h-20m20 0v-20m20 20h20m-20 0v-20m-40 20v-20m0 20h-20m80 0v-20h-20m-20 0h20m-20 0h-20m20 0v-20m20 20v-20h-20m-20 20h-20m20 0v-20m-40 20h20m-20 0v20m0-20h-20m20 0v-20m20 20v20m0-20v-20m0 40h-20m0 0h-20m20 0v21m-20-41v20m0-20h-20m20 0v-20m0 40h-20m20 0v21m160 80v-19m0 0v-21m-220-40h20m-20 0h-20m20 0v-21m20 21h20m-20 0v-21m20 21h20m-20 0v-21m-60 21h-20m20 0v-21m80 21h20m-120 0v-21m40 0h20m-20 0h-20m20 0v-20m20 20h20m-20 0v-20m20 20v-20m-60 20h-20m20 0v-20m-20 20v-20m0 20H99m60-20h20m-20 0h-20m20 0v-20m20 20h20m-20 0v-20m20 20v-20m-60 20h-20m20 0v-20m-20 20v-20h20m-20 20H99v20m40-40h20m40 0h20m-20 0h-20m40 0h20m0 0h20m-80 0h-20m100 0h20m0 0h20"/></svg>