<svg xmlns="http://www.w3.org/2000/svg" width="437" height="483" fill="none"><path fill="#EDEDED" d="M359 361h20v19h-20v-19Zm-20-20h20v20h-20v-20Zm-39-20h20v20h-20v-20Zm-20-20h20v20h-20v-20Zm20 0h20v20h-20v-20Zm20 40h19v20h-19v-20Zm0-20h19v20h-19v-20Zm-20 20h20v20h-20v-20Zm59 0h20v20h-20v-20Zm-20 20h20v19h-20v-19Z"/><path stroke="#EDEDED" stroke-width="5" d="M359 361h20m-20 0v19m0-19v-20m0 20h-20m40 0v19h-20m20-19v-20h-20m0 39h-20v-19m0-20h20m-20 0v20m0-20h-19m19 0v-20h-19m19 40h-19m-20-40h20m-20 0v20m0-20v-20m0 20h-20v-20h20m20 20v20m0-20v-20h-20m20 40h-20m20 0v20m-20-20v20h20"/><path fill="#949494" d="M219 441h20v20h-20v-20Zm-21 0h21v20h-21v-20Zm41 0h40v20h-40v-20Zm40 0h20v20h-20v-20Z"/><path fill="#949494" d="M239 441h20v20h-20v-20Zm-61 0h20v20h-20v-20Zm-20 0h20v20h-20v-20ZM58 381h20v21H58v-21Zm-20 0h20v21H38v-21Zm-20 0h20v21H18v-21Zm0-21h20v21H18v-21Zm0-20h20v20H18v-20Zm120 82h20v19h-20v-19Zm0 19h20v20h-20v-20Zm-20 0h20v20h-20v-20Zm-20 0h20v20H98v-20Zm0-19h20v19H98v-19Zm-20 0h20v19H78v-19Zm-20 0h20v19H58v-19Zm60 0h20v19h-20v-19Zm-60-20h20v20H58v-20Zm20 0h20v20H78v-20Zm-40 0h20v20H38v-20Zm60 0h20v20H98v-20Zm-60-81h21v19H38v-19Zm281 120h20v20h-20v-20Zm-20 0h20v20h-20v-20Z"/><path stroke="#949494" stroke-width="5" d="M219 441h20m-20 0v20m0-20h-21m41 0v20m0-20h40m-40 0h20v20h-20m0 0h-20m20 0h40m-60 0h-21m0-20v20m0-20h-20m20 20h-20m101-20v20m0-20h20m-20 20h20m0-20v20m0-20h20m-20 20h20m-141-20v20m0-20h-20m20 20h-20m0-20v20m0-20v-19h-20m20 19h-20m20 20h-20m-80-80h20v21m-20-21v21m0-21H38m40 21H58m20 0v20m0-20h20m-40 0H38m20 0v20m-20-41v21m0-21H18m20 0v-21m0 42H18v-21m20 21v20h20m-40-41v-21m0 0h20m-20 0v-20h20m0 20v-20m0 0h21v-19H38v19Zm100 82v19m0-19h-20m20 19v20m0-20h-20m20 20h-20m0-20v20m0-20H98m20 0v-19m0 39H98v-20m0 0v-19m0 19H78m20-19h20m-20 0H78m20 0v-20m20 20v-20H98m-20 20v19m0-19H58m20 19H58v-19m261 19h20v20h-20m0-20v20"/><path fill="#D9D9D9" d="M98 341h20v20H98v-20Zm20 0h20v20h-20v-20Zm-20-20h20v20H98v-20Zm-59 40h20v20H39v-20Zm0-20h20v20H39v-20Zm79 40h20v20h-20v-20Zm20 0h20v20h-20v-20Zm-20 20h20v20h-20v-20Zm-40-20h20v20H78v-20Zm20 0h20v20H98v-20Zm-20-20h20v20H78v-20Zm-19 0h19v20H59v-20Zm0-20h19v20H59v-20Zm0-20h19v20H59v-20Zm19 0h20v20H78v-20Zm-19-20h19v20H59v-20Zm19 0h20v20H78v-20Zm0 40h20v20H78v-20Zm20 20h20v20H98v-20Zm40 40h20v20h-20v-20Zm40 0h20v20h-20v-20Zm20 0h21v20h-21v-20Zm-40 0h20v20h-20v-20Zm61 0h20v20h-20v-20Zm20 0h20v20h-20v-20Zm20 0h20v20h-20v-20Zm-61 20h21v20h-21v-20Zm-20 0h20v20h-20v-20Zm-20 0h20v20h-20v-20Zm221-20h20v20h-20v-20Zm-20 0h20v20h-20v-20Zm40-20h20v20h-20v-20Zm0-21h20v21h-20v-21Zm0-20h20v20h-20v-20Zm-20 41h20v20h-20v-20Zm0-21h20v21h-20v-21Zm0-20h20v20h-20v-20Zm-20-20h20v20h-20v-20Zm-19 0h19v20h-19v-20Zm19-19h20v19h-20v-19Zm-19 0h19v19h-19v-19Zm-20 0h20v19h-20v-19Zm39 80h20v20h-20v-20Zm-60 20h20v20h-20v-20Zm-20 0h20v20h-20v-20Zm40 0h20v20h-20v-20Zm-141-20h20v20h-20v-20Zm20 0h21v20h-21v-20Zm-40 0h20v20h-20v-20Zm61 0h20v20h-20v-20Zm20 0h20v20h-20v-20Zm20 0h20v20h-20v-20Zm40 0h20v20h-20v-20Zm-20 0h20v20h-20v-20Zm40 0h20v20h-20v-20Zm-141-20h20v20h-20v-20Zm20 0h21v20h-21v-20Zm-40 0h20v20h-20v-20Zm61 0h20v20h-20v-20Zm20 0h20v20h-20v-20Zm20 0h20v20h-20v-20Zm40 0h20v20h-20v-20Zm-20 0h20v20h-20v-20Zm40 0h20v20h-20v-20Zm-141-20h20v20h-20v-20Zm20 0h21v20h-21v-20Zm-40 0h20v20h-20v-20Zm61 0h20v20h-20v-20Zm20 0h20v20h-20v-20Zm40 0h20v20h-20v-20Zm0-20h20v20h-20v-20Zm-20-20h20v20h-20v-20Zm-40 0h20v20h-20v-20Zm20 0h20v20h-20v-20Zm20 40h20v20h-20v-20Zm-40-20h20v20h-20v-20Zm20 0h20v20h-20v-20Zm20 0h20v20h-20v-20Zm80 80h20v20h-20v-20Zm0-20h20v20h-20v-20Zm-201-20h20v20h-20v-20Zm0-20h20v20h-20v-20Zm40-20h20v20h-20v-20Zm20 0h21v20h-21v-20Zm-40 0h20v20h-20v-20Zm-20 0h20v20h-20v-20Zm40-20h20v20h-20v-20Zm20 0h21v20h-21v-20Zm-40 0h20v20h-20v-20Zm-20 0h20v20h-20v-20Zm-40 0h20v20H98v-20Zm20 0h20v20h-20v-20Zm-20-20h20v20H98v-20Zm20 0h20v20h-20v-20Zm182 0h20v20h-20v-20Zm20 0h20v20h-20v-20Zm-61 0h20v20h-20v-20Zm20 0h21v20h-21v-20Zm-81 0h21v20h-21v-20Zm21 0h20v20h-20v-20Zm20 0h20v20h-20v-20Zm-61 0h20v20h-20v-20Zm-40 0h20v20h-20v-20Zm20 0h20v20h-20v-20Zm-40 80h20v20h-20v-20Zm0-40h20v20h-20v-20Zm261-1h20v20h-20v-20ZM259 421h20v20h-20v-20Zm-40 0h20v20h-20v-20Zm20 0h20v20h-20v-20Zm120 0h20v20h-20v-20Zm-20 0h20v20h-20v-20Zm-60 0h20v20h-20v-20Zm20 0h20v20h-20v-20Zm20 0h20v20h-20v-20Z"/><path stroke="#D9D9D9" stroke-width="5" d="M98 341h20m-20 0v20m0-20v-20m0 20H78m40 0v20m0-20h20m-20 0v-20m0 40H98m20 0h20m-20 0v20m-20-20H78m20 0v20m40-40v20m0-20h20m-20 0v-20m0 40h20m-20 0v20m-40-60h20m-20 0H78m20 0v-20m20 20v-20m0 20h20m-99 40h20m-20 0v20h20m-20-20v-20h20m0 20v20m0-20v-20m0 20h19m-19 20h19m-19-40h19m-19 0v-20m59 60h20m-20 0v20m0-20H98m40 0v20m0-20h20m-20 20h-20m20 0h20m-20 0v20m-20-20v20h20m-20-20H98m60-20v20m0-20h20m-20 0v-20m0 40v20m0-20h20m-40 20h20m-80-40h20m-20 0v20h20m-20-20v-20m20 20v20m-20-40v-20m0 0v-20m-19 0h19m-19 0v-20h19m0 20v-20m0 0h20m0 0h20m-20 0v-20h20m40 140h20m-20 0v20h20m0-40h20m-20 0v20m0-20v-20m20 20v20m0-20h21m-21 0v-20m0 40h-20m20 0h21m-21 0v20m-20-20v20m41-40v20m0-20h20m-20 0v-20m0 40h20m-20 0v20m20-40v20m0-20h20m-20 0v-20m0 40h20m-20 0v20m20-40v20m0-20h20m-20 0v-20m0 40h20m-20 0v20m20-40v20m0-20h20m-20 0v-20m0 40h20m-20 0v20m-60 0h-21m21 0h20m-41 0h-20m201-40h20m-20 0v20m0-20h-20m20 0v-20m20 20v20h-20m20-20h20v-20m-20 20v-20m-20 40h-20m20 0v20h-20m0-40v20m0-20v-20m0 20h-20m20 20h-20m20 0v20m40-60h20m-20 0v-21m0 21h-20m40 0v-21m-20 0h20m-20 0v-20m0 20h-20m40 0v-20h-20m0 0h-20m20 0v-20h-20m0 61v-21m0 21h-20m20-21v-20m0 0v-20m0 20h-20m0-20h20m-20 0v20m0-20h-19m19 0v-19m20 19v-19h-20m0 39h-19v-20m0 0v-19m0 19h-20v-19m39 0h-19m0 0h-20m20 0v-20h-20m0 20v-20m0 20h-20m59 80h-20m-40 20h20m-20 0v20m0-20v-20m20 20v20m0-20h20m-20 0v-20m0 40h-20m20 0h20m-20 0v20m-20-20v20m40-40v20m0-20v-20m0 40v20m-161-60h20m-20 0v-20m20 20h21m-21 0v-20m21 20h20m-20 0v-20m20 20h20m-20 0v-20m20 20h20m-20 0v-20m20 20h20m-20 0v-20m20 20h20m-20 0v-20m20 20h20m-20 0v-20m20 20v-20h-20m-141 0h20m-20 0h-20m20 0v-20m20 20h21m-21 0v-20m21 20h20m-20 0v-20m-61 20v-20m81 20h20m-20 0v-20m20 20h20m-20 0v-20m20 20h20m-20 0v-20m20 20h20m-20 0v-20m-121 0h20m-20 0h-20m20 0v-20m20 20h21m-21 0v-20m21 20h20m-20 0v-20m-61 20v-20m81 20h20m-20 0v-20m20 20h20m-20 0v-20m20 20h20m-20 0v-20m20 20v-20h-20m0 0v-20m0 20h-20m0-20h20m-20 0v20m0-20h-20m20 0v-20m20 20v-20m0 20h21m-41 20h-20m-20-20h20m-20 0v20m0-20h-21m21 0v-20m20 20v20m0-20v-20m0 40h-20m0 0h-21m-20 0h20m-20 0h-20m20 0v-20m20 20v-20m-40 20h-20m20 0v-20m-20 20v-20m40 0h20m-20 0h-20m20 0v-20m20 20v-20m-40 20h-20m20 0v-20m-20 20h-20m20 0v-20m-20 20v-20m0 0h20m0 0h20m142 0h20m-20 0v20m0-20h-21m-20 0h20m-20 0h-20m-41 0h21m-21 0h-20m41 0h20m-61 0h-20m121 160h-20m20 0h20m-40 0h-20m120 0h-20m0 0h-20m-20 0h20"/></svg>