<svg width="437" height="483" viewBox="0 0 437 483" fill="none" xmlns="http://www.w3.org/2000/svg">
<path d="M165.273 252.571V231.429H270.727V252.571H291.818V273.714H312.909V294.857H334V400.571H312.909V442.857H270.727V464H186.364H165.273V442.857H123.091V400.571H102V294.857H123.091V273.714H144.182V252.571H165.273Z" fill="#FF5A00"/>
<path d="M165.273 316H144.182V337.143H123.091V379.429H144.182V400.571V421.714H186.364V379.429H165.273V358.286V337.143H186.364H207.455V316V294.857H270.727V273.714H249.636V252.571H228.545V231.429H207.455V273.714H186.364V252.571H165.273V316Z" fill="#FF9D00"/>
<path d="M312.909 379.429V294.857H291.818V316H270.727V337.143H291.818V358.286H270.727V400.571H228.545V421.714V442.857H249.636V421.714H291.818V400.571V379.429H312.909Z" fill="#FF9D00"/>
<path d="M228.545 442.857H186.364V379.429H165.273V337.143H207.455V294.857H270.727V273.714H291.818V316H270.727V337.143H291.818V358.286H270.727V400.571H228.545V442.857Z" fill="#FFD600"/>
<path d="M207.455 379.429V358.286H228.545V316H249.636V379.429H207.455Z" fill="#FFF1CD"/>
<path d="M165.273 273.714H144.182V294.857H123.091V337.143H144.182V316H165.273V273.714Z" fill="#FF7A00"/>
<path d="M123.091 421.714V379.429H144.182V421.714H165.273V442.857H123.091V421.714Z" fill="#FF7A00"/>
<path d="M186.364 252.571V231.429H207.455V252.571V273.714H186.364V252.571Z" fill="#FF7A00"/>
<path d="M249.636 442.857V421.714H291.818V379.429H312.909V442.857H249.636Z" fill="#FF7A00"/>
<path d="M207.455 316V358.286H186.364V379.429H165.273V337.143H186.364V316H207.455Z" fill="#FFBF00"/>
<path d="M228.545 421.714V442.857H207.455H186.364V400.571H207.455V421.714H228.545Z" fill="#FFBF00"/>
<path d="M291.818 294.857V316H270.727V273.714H291.818V294.857Z" fill="#FFBF00"/>
<path d="M228.545 294.857V316H207.455V273.714H228.545V294.857Z" fill="#FFBF00"/>
</svg>
