<svg width="437" height="676" viewBox="0 0 437 676" fill="none" xmlns="http://www.w3.org/2000/svg">
<path d="M259 298H279V318H259V298Z" fill="#D9D9D9"/>
<path d="M259 298H279V318H259V298Z" fill="#D9D9D9"/>
<path d="M259 298H279V318H259V298Z" fill="#D9D9D9"/>
<path d="M179 318H199V338H179V318Z" fill="#D9D9D9"/>
<path d="M299 338H319V358H299V338Z" fill="#D9D9D9"/>
<path d="M299 418H319V438H299V418Z" fill="#D9D9D9"/>
<path d="M179 358H199V378H179V358Z" fill="#D9D9D9"/>
<path d="M239 318H259V338H239V318Z" fill="white"/>
<path d="M239 318H259V338H239V318Z" fill="white"/>
<path d="M239 318H259V338H239V318Z" fill="white"/>
<path d="M239 318H259V338H239V318Z" fill="#EDEDED"/>
<path d="M239 318H259V338H239V318Z" stroke="#EDEDED"/>
<path d="M259 338H279V358H259V338Z" fill="white"/>
<path d="M259 338H279V358H259V338Z" fill="white"/>
<path d="M259 338H279V358H259V338Z" fill="white"/>
<path d="M259 338H279V358H259V338Z" fill="#EDEDED"/>
<path d="M259 338H279V358H259V338Z" stroke="#EDEDED"/>
<path d="M259 358H279V378H259V358Z" fill="white"/>
<path d="M259 358H279V378H259V358Z" fill="white"/>
<path d="M259 358H279V378H259V358Z" fill="white"/>
<path d="M259 358H279V378H259V358Z" fill="#EDEDED"/>
<path d="M259 358H279V378H259V358Z" stroke="#EDEDED"/>
<path d="M239 358H259V378H239V358Z" fill="white"/>
<path d="M239 358H259V378H239V358Z" fill="white"/>
<path d="M239 358H259V378H239V358Z" fill="white"/>
<path d="M239 358H259V378H239V358Z" fill="#EDEDED"/>
<path d="M239 358H259V378H239V358Z" stroke="#EDEDED"/>
<path d="M239 338H259V358H239V338Z" fill="white"/>
<path d="M239 338H259V358H239V338Z" fill="white"/>
<path d="M239 338H259V358H239V338Z" fill="white"/>
<path d="M239 338H259V358H239V338Z" fill="#EDEDED"/>
<path d="M239 338H259V358H239V338Z" stroke="#EDEDED"/>
<path d="M219 338H239V358H219V338Z" fill="white"/>
<path d="M219 338H239V358H219V338Z" fill="white"/>
<path d="M219 338H239V358H219V338Z" fill="white"/>
<path d="M219 338H239V358H219V338Z" fill="#EDEDED"/>
<path d="M219 338H239V358H219V338Z" stroke="#EDEDED"/>
<path d="M219 318H239V338H219V318Z" fill="white"/>
<path d="M219 318H239V338H219V318Z" fill="white"/>
<path d="M219 318H239V338H219V318Z" fill="white"/>
<path d="M219 318H239V338H219V318Z" fill="#EDEDED"/>
<path d="M219 318H239V338H219V318Z" stroke="#EDEDED"/>
<path d="M219 298H239V318H219V298Z" fill="white"/>
<path d="M219 298H239V318H219V298Z" fill="white"/>
<path d="M219 298H239V318H219V298Z" fill="white"/>
<path d="M219 298H239V318H219V298Z" fill="#EDEDED"/>
<path d="M219 298H239V318H219V298Z" stroke="#EDEDED"/>
<path d="M159 398H179V418H159V398Z" fill="#D9D9D9"/>
<path d="M119 338H139V358H119V338Z" fill="#D9D9D9"/>
<path d="M199 498H219V518H199V498Z" fill="#949494" stroke="#949494"/>
<path d="M259 498H279V518H259V498Z" fill="#949494" stroke="#949494"/>
<path d="M239 498H259V518H239V498Z" fill="#949494" stroke="#949494"/>
<path d="M219 498H239V518H219V498Z" fill="#949494" stroke="#949494"/>
<path d="M179 478H199V498H179V478Z" fill="#949494" stroke="#949494"/>
<path d="M179 498H199V518H179V498Z" fill="#949494" stroke="#949494"/>
<path d="M159 478H179V498H159V478Z" fill="#949494" stroke="#949494"/>
<path d="M159 498H179V518H159V498Z" fill="#949494" stroke="#949494"/>
<path d="M139 458H159V478H139V458Z" fill="#949494" stroke="#949494"/>
<path d="M139 478H159V498H139V478Z" fill="#949494" stroke="#949494"/>
<path d="M119 438H139V458H119V438Z" fill="#949494" stroke="#949494"/>
<path d="M119 418H139V438H119V418Z" fill="#949494" stroke="#949494"/>
<path d="M119 338H139V358H119V338Z" fill="#949494" stroke="#949494"/>
<path d="M119 398H139V418H119V398Z" fill="#949494" stroke="#949494"/>
<path d="M119 378H139V398H119V378Z" fill="#949494" stroke="#949494"/>
<path d="M119 358H139V378H119V358Z" fill="#949494" stroke="#949494"/>
<path d="M179 338H199V358H179V338Z" fill="#D9D9D9"/>
<path d="M219 358H239V378H219V358Z" fill="#D9D9D9"/>
<path d="M219 398H239V418H219V398Z" fill="#D9D9D9"/>
<path d="M219 378H239V398H219V378Z" fill="#D9D9D9"/>
<path d="M219 358H239V378H219V358Z" fill="#D9D9D9"/>
<path d="M219 398H239V418H219V398Z" fill="#D9D9D9"/>
<path d="M219 378H239V398H219V378Z" fill="#D9D9D9"/>
<path d="M139 298H159V318H139V298Z" fill="#D9D9D9"/>
<path d="M179 278H199V298H179V278Z" fill="#D9D9D9"/>
<path d="M179 298H199V318H179V298Z" fill="#D9D9D9"/>
<path d="M199 278H219V298H199V278Z" fill="#D9D9D9"/>
<path d="M239 278H259V298H239V278Z" fill="#D9D9D9"/>
<path d="M259 278H279V298H259V278Z" fill="#D9D9D9"/>
<path d="M259 298H279V318H259V298Z" fill="#D9D9D9"/>
<path d="M279 298H299V318H279V298Z" fill="#D9D9D9"/>
<path d="M279 318H299V338H279V318Z" fill="#D9D9D9"/>
<path d="M299 378H319V398H299V378Z" fill="#D9D9D9"/>
<path d="M299 358H319V378H299V358Z" fill="#D9D9D9"/>
<path d="M299 398H319V418H299V398Z" fill="#D9D9D9"/>
<path d="M299 438H319V458H299V438Z" fill="#D9D9D9"/>
<path d="M299 338H319V358H299V338Z" fill="#D9D9D9"/>
<path d="M299 418H319V438H299V418Z" fill="#D9D9D9"/>
<path d="M279 398H299V418H279V398Z" fill="#D9D9D9"/>
<path d="M279 378H299V398H279V378Z" fill="#D9D9D9"/>
<path d="M279 418H299V438H279V418Z" fill="#D9D9D9"/>
<path d="M279 458H299V478H279V458Z" fill="#D9D9D9"/>
<path d="M259 478H279V498H259V478Z" fill="#D9D9D9"/>
<path d="M279 478H299V498H279V478Z" fill="#D9D9D9"/>
<path d="M159 458H179V478H159V458Z" fill="#D9D9D9"/>
<path d="M199 478H219V498H199V478Z" fill="#D9D9D9"/>
<path d="M159 418H179V438H159V418Z" fill="#D9D9D9"/>
<path d="M139 418H159V438H139V418Z" fill="#D9D9D9"/>
<path d="M159 398H179V418H159V398Z" fill="#D9D9D9"/>
<path d="M139 378H159V398H139V378Z" fill="#D9D9D9"/>
<path d="M139 358H159V378H139V358Z" fill="#D9D9D9"/>
<path d="M159 358H179V378H159V358Z" fill="#D9D9D9"/>
<path d="M139 338H159V358H139V338Z" fill="#D9D9D9"/>
<path d="M159 338H179V358H159V338Z" fill="#D9D9D9"/>
<path d="M139 318H159V338H139V318Z" fill="#D9D9D9"/>
<path d="M159 378H179V398H159V378Z" fill="#D9D9D9"/>
<path d="M159 318H179V338H159V318Z" fill="#D9D9D9"/>
<path d="M139 398H159V418H139V398Z" fill="#D9D9D9"/>
<path d="M159 438H179V458H159V438Z" fill="#D9D9D9"/>
<path d="M139 438H159V458H139V438Z" fill="#D9D9D9"/>
<path d="M179 438H199V458H179V438Z" fill="#D9D9D9"/>
<path d="M179 458H199V478H179V458Z" fill="#D9D9D9"/>
<path d="M199 458H219V478H199V458Z" fill="#D9D9D9"/>
<path d="M219 478H239V498H219V478Z" fill="#D9D9D9"/>
<path d="M239 478H259V498H239V478Z" fill="#D9D9D9"/>
<path d="M279 438H299V458H279V438Z" fill="#D9D9D9"/>
<path d="M179 318H199V338H179V318Z" fill="#D9D9D9"/>
<path d="M179 358H199V378H179V358Z" fill="#D9D9D9"/>
<path d="M179 338H199V358H179V338Z" fill="#D9D9D9"/>
<path d="M179 378H199V398H179V378Z" fill="#D9D9D9"/>
<path d="M179 418H199V438H179V418Z" fill="#D9D9D9"/>
<path d="M179 398H199V418H179V398Z" fill="#D9D9D9"/>
<path d="M199 318H219V338H199V318Z" fill="#D9D9D9"/>
<path d="M199 338H219V358H199V338Z" fill="#D9D9D9"/>
<path d="M199 378H219V398H199V378Z" fill="#D9D9D9"/>
<path d="M199 358H219V378H199V358Z" fill="#D9D9D9"/>
<path d="M199 398H219V418H199V398Z" fill="#D9D9D9"/>
<path d="M199 438H219V458H199V438Z" fill="#D9D9D9"/>
<path d="M199 418H219V438H199V418Z" fill="#D9D9D9"/>
<path d="M219 358H239V378H219V358Z" fill="#D9D9D9"/>
<path d="M219 398H239V418H219V398Z" fill="#D9D9D9"/>
<path d="M219 378H239V398H219V378Z" fill="#D9D9D9"/>
<path d="M219 418H239V438H219V418Z" fill="#D9D9D9"/>
<path d="M219 458H239V478H219V458Z" fill="#D9D9D9"/>
<path d="M219 438H239V458H219V438Z" fill="#D9D9D9"/>
<path d="M239 378H259V398H239V378Z" fill="#D9D9D9"/>
<path d="M239 418H259V438H239V418Z" fill="#D9D9D9"/>
<path d="M239 398H259V418H239V398Z" fill="#D9D9D9"/>
<path d="M239 458H259V478H239V458Z" fill="#D9D9D9"/>
<path d="M239 438H259V458H239V438Z" fill="#D9D9D9"/>
<path d="M259 378H279V398H259V378Z" fill="#D9D9D9"/>
<path d="M259 398H279V418H259V398Z" fill="#D9D9D9"/>
<path d="M259 438H279V458H259V438Z" fill="#D9D9D9"/>
<path d="M259 458H279V478H259V458Z" fill="#D9D9D9"/>
<path d="M259 418H279V438H259V418Z" fill="#D9D9D9"/>
<path d="M199 298H219V318H199V298Z" fill="#D9D9D9"/>
<path d="M219 278H239V298H219V278Z" fill="#D9D9D9"/>
<path d="M159 278H179V298H159V278Z" fill="#D9D9D9"/>
<path d="M159 298H179V318H159V298Z" fill="#D9D9D9"/>
<path d="M239 298H259V318H239V298Z" fill="#D9D9D9"/>
<path d="M259 318H279V338H259V318Z" fill="#D9D9D9"/>
<path d="M279 338H299V358H279V338Z" fill="#D9D9D9"/>
<path d="M279 358H299V378H279V358Z" fill="#D9D9D9"/>
<path d="M159 298H139V318M159 298V318M159 298H179M159 298V278H179M159 318H139M159 318V338M159 318H179M139 318V338M179 278H199M179 278V298M199 278V298M199 278H219M199 298H179M199 298V318M199 298H219M179 298V318M199 318H179M199 318V338M199 318H219M179 318V338M219 278V298M219 278H239M219 298V318M219 298H239M239 278H259M239 278V298M259 278V298M259 278H279V298M259 298H239M259 298H279M259 298V318M239 298V318H259M279 298V318M279 298H299V318M279 318H259M279 318H299M279 318V338M259 318V338H279M299 318V338M299 338H279M299 338H319V358M299 338V358M279 338V358M299 378H319M299 378V398M299 378V358M299 378H279M319 378V398M319 378V358M319 398H299M319 398V418M299 398V418M299 398H279M299 358H319M299 358H279M319 418H299M319 418V438M299 418V438M299 418H279M299 438H319M299 438V458M299 438H279M319 438V458H299M299 458H279M299 458V478M279 398V418M279 398V378M279 398H259M279 418V438M279 418H259M279 378H259M279 378V358M279 438V458M279 438H259M279 458V478M279 458H259M299 478H279M299 478V498H279M279 478H259M279 478V498M259 478V498M259 478H239M259 478V458M279 498H259M259 498H239M159 458H179M159 458V478H179M159 458V438M159 458H139V438M179 458V478M179 458V438M179 458H199M179 478H199M199 478H219M199 478V498H219M199 478V458M219 478V498M219 478V458M219 478H239M219 498H239M159 418H179M159 418V438M159 418H139M159 418V398M179 418V438M179 418V398M179 418H199M179 438H159M179 438H199M159 438H139M139 418V438M139 418V398M159 398H179M159 398V378M159 398H139M179 398V378M179 398H199M139 378H159M139 378V398M139 378V358M159 378V358M159 378H179M139 358H159M139 358V338M159 358H179M159 358V338M179 358V378M179 358V338M179 358H199M179 378H199M139 338H159M159 338H179M179 338H199M199 438V458M199 438V418M199 438H219M199 458H219M219 458V438M219 458H239M239 478V498M239 478V458M199 338V358M199 338H219M199 358V378M199 358H219M199 378V398M199 378H219M199 398V418M199 398H219M199 418H219M219 318V338M219 338V358M219 358V378M219 358H239V378M219 378V398M219 378H239M219 398V418M219 398H239M219 418V438M219 418H239M219 438H239M239 378V398M239 378H259M239 398V418M239 398H259M239 418V438M239 418H259M239 438V458M239 438H259M239 458H259M259 378V398M259 398V418M259 418V438M259 438V458" stroke="#D9D9D9"/>
</svg>
