<svg width="437" height="676" viewBox="0 0 437 676" fill="none" xmlns="http://www.w3.org/2000/svg">
<path d="M259 258H279V278H259V258Z" fill="#D9D9D9"/>
<path d="M259 258H279V278H259V258Z" fill="#D9D9D9"/>
<path d="M259 258H279V278H259V258Z" fill="#D9D9D9"/>
<path d="M179 278H199V298H179V278Z" fill="#D9D9D9"/>
<path d="M299 298H319V318H299V298Z" fill="#D9D9D9"/>
<path d="M299 378H319V398H299V378Z" fill="#D9D9D9"/>
<path d="M179 318H199V338H179V318Z" fill="#D9D9D9"/>
<path d="M239 258H259V278H239V258Z" fill="white"/>
<path d="M239 258H259V278H239V258Z" fill="white"/>
<path d="M239 258H259V278H239V258Z" fill="white"/>
<path d="M239 258H259V278H239V258Z" fill="#EDEDED"/>
<path d="M239 258H259V278H239V258Z" stroke="#EDEDED"/>
<path d="M239 278H259V298H239V278Z" fill="white"/>
<path d="M239 278H259V298H239V278Z" fill="white"/>
<path d="M239 278H259V298H239V278Z" fill="white"/>
<path d="M239 278H259V298H239V278Z" fill="#EDEDED"/>
<path d="M239 278H259V298H239V278Z" stroke="#EDEDED"/>
<path d="M259 298H279V318H259V298Z" fill="white"/>
<path d="M259 298H279V318H259V298Z" fill="white"/>
<path d="M259 298H279V318H259V298Z" fill="white"/>
<path d="M259 298H279V318H259V298Z" fill="#EDEDED"/>
<path d="M259 298H279V318H259V298Z" stroke="#EDEDED"/>
<path d="M259 278H279V298H259V278Z" fill="white"/>
<path d="M259 278H279V298H259V278Z" fill="white"/>
<path d="M259 278H279V298H259V278Z" fill="white"/>
<path d="M259 278H279V298H259V278Z" fill="#EDEDED"/>
<path d="M259 278H279V298H259V278Z" stroke="#EDEDED"/>
<path d="M279 298H299V318H279V298Z" fill="white"/>
<path d="M279 298H299V318H279V298Z" fill="white"/>
<path d="M279 298H299V318H279V298Z" fill="white"/>
<path d="M279 298H299V318H279V298Z" fill="#EDEDED"/>
<path d="M279 298H299V318H279V298Z" stroke="#EDEDED"/>
<path d="M279 318H299V338H279V318Z" fill="white"/>
<path d="M279 318H299V338H279V318Z" fill="white"/>
<path d="M279 318H299V338H279V318Z" fill="white"/>
<path d="M279 318H299V338H279V318Z" fill="#EDEDED"/>
<path d="M279 318H299V338H279V318Z" stroke="#EDEDED"/>
<path d="M259 318H279V338H259V318Z" fill="white"/>
<path d="M259 318H279V338H259V318Z" fill="white"/>
<path d="M259 318H279V338H259V318Z" fill="white"/>
<path d="M259 318H279V338H259V318Z" fill="#EDEDED"/>
<path d="M259 318H279V338H259V318Z" stroke="#EDEDED"/>
<path d="M239 298H259V318H239V298Z" fill="white"/>
<path d="M239 298H259V318H239V298Z" fill="white"/>
<path d="M239 298H259V318H239V298Z" fill="white"/>
<path d="M239 298H259V318H239V298Z" fill="#EDEDED"/>
<path d="M239 298H259V318H239V298Z" stroke="#EDEDED"/>
<path d="M219 278H239V298H219V278Z" fill="white"/>
<path d="M219 278H239V298H219V278Z" fill="white"/>
<path d="M219 278H239V298H219V278Z" fill="white"/>
<path d="M219 278H239V298H219V278Z" fill="#EDEDED"/>
<path d="M219 278H239V298H219V278Z" stroke="#EDEDED"/>
<path d="M219 258H239V278H219V258Z" fill="white"/>
<path d="M219 258H239V278H219V258Z" fill="white"/>
<path d="M219 258H239V278H219V258Z" fill="white"/>
<path d="M219 258H239V278H219V258Z" fill="#EDEDED"/>
<path d="M219 258H239V278H219V258Z" stroke="#EDEDED"/>
<path d="M159 358H179V378H159V358Z" fill="#D9D9D9"/>
<path d="M119 278H139V298H119V278Z" fill="#949494" stroke="#949494"/>
<path d="M99 298H119V318H99V298Z" fill="#949494"/>
<path d="M119 298H139V318H119V298Z" fill="#D9D9D9"/>
<path d="M99 298H119V318H99V298Z" fill="#949494" stroke="#949494"/>
<path d="M99 358H119V378H99V358Z" fill="#949494" stroke="#949494"/>
<path d="M99 378H119V398H99V378Z" fill="#949494" stroke="#949494"/>
<path d="M99 398H119V418H99V398Z" fill="#949494" stroke="#949494"/>
<path d="M199 458H219V478H199V458Z" fill="#949494" stroke="#949494"/>
<path d="M259 458H279V478H259V458Z" fill="#949494" stroke="#949494"/>
<path d="M239 458H259V478H239V458Z" fill="#949494" stroke="#949494"/>
<path d="M219 458H239V478H219V458Z" fill="#949494" stroke="#949494"/>
<path d="M179 438H199V458H179V438Z" fill="#949494" stroke="#949494"/>
<path d="M179 458H199V478H179V458Z" fill="#949494" stroke="#949494"/>
<path d="M159 438H179V458H159V438Z" fill="#949494" stroke="#949494"/>
<path d="M159 458H179V478H159V458Z" fill="#949494" stroke="#949494"/>
<path d="M139 418H159V438H139V418Z" fill="#949494" stroke="#949494"/>
<path d="M139 438H159V458H139V438Z" fill="#949494" stroke="#949494"/>
<path d="M119 398H139V418H119V398Z" fill="#949494" stroke="#949494"/>
<path d="M119 418H139V438H119V418Z" fill="#949494" stroke="#949494"/>
<path d="M119 378H139V398H119V378Z" fill="#949494" stroke="#949494"/>
<path d="M99 338H119V358H99V338Z" fill="#949494" stroke="#949494"/>
<path d="M99 318H119V338H99V318Z" fill="#949494" stroke="#949494"/>
<path d="M179 298H199V318H179V298Z" fill="#D9D9D9"/>
<path d="M219 298H239V318H219V298Z" fill="#D9D9D9"/>
<path d="M219 318H239V338H219V318Z" fill="#D9D9D9"/>
<path d="M219 358H239V378H219V358Z" fill="#D9D9D9"/>
<path d="M219 338H239V358H219V338Z" fill="#D9D9D9"/>
<path d="M219 298H239V318H219V298Z" fill="#D9D9D9"/>
<path d="M219 318H239V338H219V318Z" fill="#D9D9D9"/>
<path d="M219 358H239V378H219V358Z" fill="#D9D9D9"/>
<path d="M219 338H239V358H219V338Z" fill="#D9D9D9"/>
<path d="M139 258H159V278H139V258Z" fill="#D9D9D9"/>
<path d="M179 238H199V258H179V238Z" fill="#D9D9D9"/>
<path d="M179 258H199V278H179V258Z" fill="#D9D9D9"/>
<path d="M199 238H219V258H199V238Z" fill="#D9D9D9"/>
<path d="M239 238H259V258H239V238Z" fill="#D9D9D9"/>
<path d="M259 238H279V258H259V238Z" fill="#D9D9D9"/>
<path d="M259 258H279V278H259V258Z" fill="#D9D9D9"/>
<path d="M279 258H299V278H279V258Z" fill="#D9D9D9"/>
<path d="M279 278H299V298H279V278Z" fill="#D9D9D9"/>
<path d="M299 278H319V298H299V278Z" fill="#D9D9D9"/>
<path d="M299 338H319V358H299V338Z" fill="#D9D9D9"/>
<path d="M299 318H319V338H299V318Z" fill="#D9D9D9"/>
<path d="M299 358H319V378H299V358Z" fill="#D9D9D9"/>
<path d="M299 398H319V418H299V398Z" fill="#D9D9D9"/>
<path d="M299 298H319V318H299V298Z" fill="#D9D9D9"/>
<path d="M299 378H319V398H299V378Z" fill="#D9D9D9"/>
<path d="M319 338H339V358H319V338Z" fill="#D9D9D9"/>
<path d="M319 318H339V338H319V318Z" fill="#D9D9D9"/>
<path d="M319 358H339V378H319V358Z" fill="#D9D9D9"/>
<path d="M319 298H339V318H319V298Z" fill="#D9D9D9"/>
<path d="M319 378H339V398H319V378Z" fill="#D9D9D9"/>
<path d="M279 358H299V378H279V358Z" fill="#D9D9D9"/>
<path d="M279 338H299V358H279V338Z" fill="#D9D9D9"/>
<path d="M279 378H299V398H279V378Z" fill="#D9D9D9"/>
<path d="M279 418H299V438H279V418Z" fill="#D9D9D9"/>
<path d="M259 438H279V458H259V438Z" fill="#D9D9D9"/>
<path d="M319 398H339V418H319V398Z" fill="#D9D9D9"/>
<path d="M299 418H319V438H299V418Z" fill="#D9D9D9"/>
<path d="M279 438H299V458H279V438Z" fill="#D9D9D9"/>
<path d="M159 418H179V438H159V418Z" fill="#D9D9D9"/>
<path d="M199 438H219V458H199V438Z" fill="#D9D9D9"/>
<path d="M159 378H179V398H159V378Z" fill="#D9D9D9"/>
<path d="M139 378H159V398H139V378Z" fill="#D9D9D9"/>
<path d="M159 358H179V378H159V358Z" fill="#D9D9D9"/>
<path d="M139 338H159V358H139V338Z" fill="#D9D9D9"/>
<path d="M139 318H159V338H139V318Z" fill="#D9D9D9"/>
<path d="M159 318H179V338H159V318Z" fill="#D9D9D9"/>
<path d="M139 298H159V318H139V298Z" fill="#D9D9D9"/>
<path d="M159 298H179V318H159V298Z" fill="#D9D9D9"/>
<path d="M139 278H159V298H139V278Z" fill="#D9D9D9"/>
<path d="M159 338H179V358H159V338Z" fill="#D9D9D9"/>
<path d="M159 278H179V298H159V278Z" fill="#D9D9D9"/>
<path d="M119 298H139V318H119V298Z" fill="#D9D9D9"/>
<path d="M119 358H139V378H119V358Z" fill="#D9D9D9"/>
<path d="M119 338H139V358H119V338Z" fill="#D9D9D9"/>
<path d="M119 318H139V338H119V318Z" fill="#D9D9D9"/>
<path d="M139 358H159V378H139V358Z" fill="#D9D9D9"/>
<path d="M159 398H179V418H159V398Z" fill="#D9D9D9"/>
<path d="M139 398H159V418H139V398Z" fill="#D9D9D9"/>
<path d="M179 398H199V418H179V398Z" fill="#D9D9D9"/>
<path d="M179 418H199V438H179V418Z" fill="#D9D9D9"/>
<path d="M199 418H219V438H199V418Z" fill="#D9D9D9"/>
<path d="M219 438H239V458H219V438Z" fill="#D9D9D9"/>
<path d="M239 438H259V458H239V438Z" fill="#D9D9D9"/>
<path d="M279 398H299V418H279V398Z" fill="#D9D9D9"/>
<path d="M179 278H199V298H179V278Z" fill="#D9D9D9"/>
<path d="M179 318H199V338H179V318Z" fill="#D9D9D9"/>
<path d="M179 298H199V318H179V298Z" fill="#D9D9D9"/>
<path d="M179 338H199V358H179V338Z" fill="#D9D9D9"/>
<path d="M179 378H199V398H179V378Z" fill="#D9D9D9"/>
<path d="M179 358H199V378H179V358Z" fill="#D9D9D9"/>
<path d="M199 278H219V298H199V278Z" fill="#D9D9D9"/>
<path d="M199 298H219V318H199V298Z" fill="#D9D9D9"/>
<path d="M199 338H219V358H199V338Z" fill="#D9D9D9"/>
<path d="M199 318H219V338H199V318Z" fill="#D9D9D9"/>
<path d="M199 358H219V378H199V358Z" fill="#D9D9D9"/>
<path d="M199 398H219V418H199V398Z" fill="#D9D9D9"/>
<path d="M199 378H219V398H199V378Z" fill="#D9D9D9"/>
<path d="M219 298H239V318H219V298Z" fill="#D9D9D9"/>
<path d="M219 318H239V338H219V318Z" fill="#D9D9D9"/>
<path d="M219 358H239V378H219V358Z" fill="#D9D9D9"/>
<path d="M219 338H239V358H219V338Z" fill="#D9D9D9"/>
<path d="M219 378H239V398H219V378Z" fill="#D9D9D9"/>
<path d="M219 418H239V438H219V418Z" fill="#D9D9D9"/>
<path d="M219 398H239V418H219V398Z" fill="#D9D9D9"/>
<path d="M239 318H259V338H239V318Z" fill="#D9D9D9"/>
<path d="M239 338H259V358H239V338Z" fill="#D9D9D9"/>
<path d="M239 378H259V398H239V378Z" fill="#D9D9D9"/>
<path d="M239 358H259V378H239V358Z" fill="#D9D9D9"/>
<path d="M239 418H259V438H239V418Z" fill="#D9D9D9"/>
<path d="M239 398H259V418H239V398Z" fill="#D9D9D9"/>
<path d="M259 338H279V358H259V338Z" fill="#D9D9D9"/>
<path d="M259 358H279V378H259V358Z" fill="#D9D9D9"/>
<path d="M259 398H279V418H259V398Z" fill="#D9D9D9"/>
<path d="M259 418H279V438H259V418Z" fill="#D9D9D9"/>
<path d="M259 378H279V398H259V378Z" fill="#D9D9D9"/>
<path d="M199 258H219V278H199V258Z" fill="#D9D9D9"/>
<path d="M219 238H239V258H219V238Z" fill="#D9D9D9"/>
<path d="M159 238H179V258H159V238Z" fill="#D9D9D9"/>
<path d="M159 258H179V278H159V258Z" fill="#D9D9D9"/>
<path d="M159 258H139V278M159 258V278M159 258H179M159 258V238H179M159 278H139M159 278V298M159 278H179M139 278V298M179 238H199M179 238V258M199 238V258M199 238H219M199 258H179M199 258V278M199 258H219M179 258V278M199 278H179M199 278V298M199 278H219M179 278V298M219 238V258M219 238H239M219 258V278M219 258H239M239 238H259M239 238V258M259 238V258M259 238H279V258M259 258H239M259 258H279M259 258V278H279M279 258V278M279 258H299V278M279 278H299M279 278V298H299M299 278V298M299 278H319V298M299 298H319M299 298V318M319 298V318M319 298H339V318M299 338H319M299 338V358M299 338V318M299 338H279M319 338V358M319 338V318M319 338H339M319 358H299M319 358V378M319 358H339M299 358V378M299 358H279M299 318H319M319 318H339M319 378H299M319 378V398M319 378H339M299 378V398M299 378H279M299 398H319M299 398V418M299 398H279M319 398V418M319 398H339M319 418H299M319 418H339V398M319 418V438H299M299 418H279M299 418V438M339 338V358M339 338V318M339 358V378M339 378V398M279 358V378M279 358V338M279 358H259M279 378V398M279 378H259M279 338H259M279 398V418M279 398H259M279 418V438M279 418H259M299 438H279M299 438V458H279M279 438H259M279 438V458M259 438V458M259 438H239M259 438V418M279 458H259M259 458H239M159 418H179M159 418V438H179M159 418V398M159 418H139V398M179 418V438M179 418V398M179 418H199M179 438H199M199 438H219M199 438V458H219M199 438V418M219 438V458M219 438V418M219 438H239M219 458H239M159 378H179M159 378V398M159 378H139M159 378V358M179 378V398M179 378V358M179 378H199M179 398H159M179 398H199M159 398H139M139 378V398M139 378V358M139 378H119V358M159 358H179M159 358V338M159 358H139M179 358V338M179 358H199M139 338H159M139 338V358M139 338V318M139 338H119M159 338V318M159 338H179M139 358H119M139 318H159M139 318V298M139 318H119M159 318H179M159 318V298M179 318V338M179 318V298M179 318H199M179 338H199M139 298H159M139 298H119V318M159 298H179M179 298H199M119 318V338M119 358V338M199 398V418M199 398V378M199 398H219M199 418H219M219 418V398M219 418H239M239 438V458M239 438V418M199 298V318M199 298H219M199 318V338M199 318H219M199 338V358M199 338H219M199 358V378M199 358H219M199 378H219M219 278V298M219 298V318M219 298H239V318M219 318V338M219 318H239M219 338V358M219 338H239M219 358V378M219 358H239M219 378V398M219 378H239M219 398H239M239 318V338M239 318H259V338M239 338V358M239 338H259M239 358V378M239 358H259M239 378V398M239 378H259M239 398V418M239 398H259M239 418H259M259 338V358M259 358V378M259 378V398M259 398V418" stroke="#D9D9D9"/>
</svg>
