<svg width="438" height="676" viewBox="0 0 438 676" fill="none" xmlns="http://www.w3.org/2000/svg">
<path d="M219 519H239V539H219V519Z" fill="#949494" stroke="#949494"/>
<path d="M198 519H218V539H198V519Z" fill="#949494" stroke="#949494"/>
<path d="M239 519H279V539H239V519Z" fill="#949494"/>
<path d="M279 519H299V539H279V519Z" fill="#949494"/>
<path d="M239 519H259V539H239V519Z" fill="#949494"/>
<path d="M239 519H279M239 519V539M239 519H259V539H239M279 519V539M279 519H299V539H279M279 539H239" stroke="#949494"/>
<path d="M178 519H198V539H178V519Z" fill="#949494" stroke="#949494"/>
<path d="M158 519H178V539H158V519Z" fill="#949494" stroke="#949494"/>
<path d="M58 459H78V479H58V459Z" fill="#949494" stroke="#949494"/>
<path d="M38 459H58V479H38V459Z" fill="#949494" stroke="#949494"/>
<path d="M18 459H38V479H18V459Z" fill="#949494" stroke="#949494"/>
<path d="M18 439H38V459H18V439Z" fill="#949494" stroke="#949494"/>
<path d="M18 418H38V438H18V418Z" fill="#949494" stroke="#949494"/>
<path d="M79 478H99V498H79V478Z" fill="#949494" stroke="#949494"/>
<path d="M138 500H158V520H138V500Z" fill="#949494" stroke="#949494"/>
<path d="M138 519H158V539H138V519Z" fill="#949494" stroke="#949494"/>
<path d="M118 519H138V539H118V519Z" fill="#949494" stroke="#949494"/>
<path d="M98 519H118V539H98V519Z" fill="#949494" stroke="#949494"/>
<path d="M79 519H99V539H79V519Z" fill="#949494" stroke="#949494"/>
<path d="M18 479H38V499H18V479Z" fill="#949494" stroke="#949494"/>
<path d="M0 458H20V478H0V458Z" fill="#949494"/>
<path d="M0 438H20V458H0V438Z" fill="#949494"/>
<path d="M98 500H118V520H98V500Z" fill="#949494" stroke="#949494"/>
<path d="M78 500H98V520H78V500Z" fill="#949494" stroke="#949494"/>
<path d="M38 500H58V520H38V500Z" fill="#949494" stroke="#949494"/>
<path d="M58 500H78V520H58V500Z" fill="#949494" stroke="#949494"/>
<path d="M59 478H79V498H59V478Z" fill="#949494" stroke="#949494"/>
<path d="M118 500H138V520H118V500Z" fill="#949494" stroke="#949494"/>
<path d="M58 480H78V500H58V480Z" fill="#949494" stroke="#949494"/>
<path d="M78 480H98V500H78V480Z" fill="#949494" stroke="#949494"/>
<path d="M38 480H58V500H38V480Z" fill="#949494" stroke="#949494"/>
<path d="M98 480H118V500H98V480Z" fill="#949494" stroke="#949494"/>
<path d="M39 399H59V419H39V399Z" fill="#949494" stroke="#949494"/>
<path d="M99 458H119V478H99V458Z" fill="#949494" stroke="#949494"/>
<path d="M79 418H99V438H79V418Z" fill="#D9D9D9" stroke="#D9D9D9"/>
<path d="M98 419H118V439H98V419Z" fill="#D9D9D9" stroke="#D9D9D9"/>
<path d="M118 419H138V439H118V419Z" fill="#D9D9D9" stroke="#D9D9D9"/>
<path d="M98 399H118V419H98V399Z" fill="#D9D9D9" stroke="#D9D9D9"/>
<path d="M39 438H59V458H39V438Z" fill="#D9D9D9" stroke="#D9D9D9"/>
<path d="M39 418H59V438H39V418Z" fill="#D9D9D9" stroke="#D9D9D9"/>
<path d="M118 459H138V479H118V459Z" fill="#D9D9D9" stroke="#D9D9D9"/>
<path d="M138 459H158V479H138V459Z" fill="#D9D9D9" stroke="#D9D9D9"/>
<path d="M118 479H138V499H118V479Z" fill="#D9D9D9" stroke="#D9D9D9"/>
<path d="M138 479H158V499H138V479Z" fill="#D9D9D9" stroke="#D9D9D9"/>
<path d="M78 459H98V479H78V459Z" fill="#D9D9D9" stroke="#D9D9D9"/>
<path d="M98 459H118V479H98V459Z" fill="#D9D9D9" stroke="#D9D9D9"/>
<path d="M78 439H98V459H78V439Z" fill="#D9D9D9" stroke="#D9D9D9"/>
<path d="M60 438H80V458H60V438Z" fill="#D9D9D9" stroke="#D9D9D9"/>
<path d="M59 418H79V438H59V418Z" fill="#D9D9D9" stroke="#D9D9D9"/>
<path d="M59 399H79V419H59V399Z" fill="#D9D9D9" stroke="#D9D9D9"/>
<path d="M78 399H98V419H78V399Z" fill="#D9D9D9" stroke="#D9D9D9"/>
<path d="M59 379H79V399H59V379Z" fill="#D9D9D9" stroke="#D9D9D9"/>
<path d="M59 379H79V399H59V379Z" fill="#D9D9D9" stroke="#D9D9D9"/>
<path d="M78 379H98V399H78V379Z" fill="#D9D9D9" stroke="#D9D9D9"/>
<path d="M78 418H98V438H78V418Z" fill="#D9D9D9" stroke="#D9D9D9"/>
<path d="M98 439H118V459H98V439Z" fill="#D9D9D9" stroke="#D9D9D9"/>
<path d="M139 478H159V498H139V478Z" fill="#D9D9D9" stroke="#D9D9D9"/>
<path d="M178 479H198V499H178V479Z" fill="#D9D9D9" stroke="#D9D9D9"/>
<path d="M198 479H218V499H198V479Z" fill="#D9D9D9" stroke="#D9D9D9"/>
<path d="M158 479H178V499H158V479Z" fill="#D9D9D9" stroke="#D9D9D9"/>
<path d="M219 479H239V499H219V479Z" fill="#D9D9D9" stroke="#D9D9D9"/>
<path d="M239 479H259V499H239V479Z" fill="#D9D9D9" stroke="#D9D9D9"/>
<path d="M259 479H279V499H259V479Z" fill="#D9D9D9" stroke="#D9D9D9"/>
<path d="M198 499H218V519H198V499Z" fill="#D9D9D9" stroke="#D9D9D9"/>
<path d="M178 499H198V519H178V499Z" fill="#D9D9D9" stroke="#D9D9D9"/>
<path d="M158 499H178V519H158V499Z" fill="#D9D9D9" stroke="#D9D9D9"/>
<path d="M379 479H399V499H379V479Z" fill="#D9D9D9" stroke="#D9D9D9"/>
<path d="M359 479H379V499H359V479Z" fill="#D9D9D9" stroke="#D9D9D9"/>
<path d="M399 459H419V479H399V459Z" fill="#D9D9D9" stroke="#D9D9D9"/>
<path d="M400 479H420V499H400V479Z" fill="#D9D9D9" stroke="#D9D9D9"/>
<path d="M379 499H399V519H379V499Z" fill="#D9D9D9" stroke="#D9D9D9"/>
<path d="M399 438H419V458H399V438Z" fill="#D9D9D9" stroke="#D9D9D9"/>
<path d="M417 459H437V479H417V459Z" fill="#D9D9D9" stroke="#D9D9D9"/>
<path d="M417 438H437V458H417V438Z" fill="#D9D9D9" stroke="#D9D9D9"/>
<path d="M399 418H419V438H399V418Z" fill="#D9D9D9" stroke="#D9D9D9"/>
<path d="M379 459H399V479H379V459Z" fill="#D9D9D9" stroke="#D9D9D9"/>
<path d="M379 438H399V458H379V438Z" fill="#D9D9D9" stroke="#D9D9D9"/>
<path d="M379 418H399V438H379V418Z" fill="#D9D9D9" stroke="#D9D9D9"/>
<path d="M359 398H379V418H359V398Z" fill="#D9D9D9" stroke="#D9D9D9"/>
<path d="M340 398H360V418H340V398Z" fill="#D9D9D9" stroke="#D9D9D9"/>
<path d="M340 418H360V438H340V418Z" fill="#D9D9D9" stroke="#D9D9D9"/>
<path d="M359 418H379V438H359V418Z" fill="#D9D9D9" stroke="#D9D9D9"/>
<path d="M320 399H340V419H320V399Z" fill="#D9D9D9" stroke="#D9D9D9"/>
<path d="M300 379H320V399H300V379Z" fill="#D9D9D9" stroke="#D9D9D9"/>
<path d="M280 379H300V399H280V379Z" fill="#D9D9D9" stroke="#D9D9D9"/>
<path d="M359 379H379V399H359V379Z" fill="#D9D9D9" stroke="#D9D9D9"/>
<path d="M339 379H359V399H339V379Z" fill="#D9D9D9" stroke="#D9D9D9"/>
<path d="M320 379H340V399H320V379Z" fill="#D9D9D9" stroke="#D9D9D9"/>
<path d="M299 479H319V499H299V479Z" fill="#D9D9D9" stroke="#D9D9D9"/>
<path d="M279 479H299V499H279V479Z" fill="#D9D9D9" stroke="#D9D9D9"/>
<path d="M319 479H339V499H319V479Z" fill="#D9D9D9" stroke="#D9D9D9"/>
<path d="M178 460H198V480H178V460Z" fill="#D9D9D9" stroke="#D9D9D9"/>
<path d="M198 460H218V480H198V460Z" fill="#D9D9D9" stroke="#D9D9D9"/>
<path d="M158 460H178V480H158V460Z" fill="#D9D9D9" stroke="#D9D9D9"/>
<path d="M219 460H239V480H219V460Z" fill="#D9D9D9" stroke="#D9D9D9"/>
<path d="M239 460H259V480H239V460Z" fill="#D9D9D9" stroke="#D9D9D9"/>
<path d="M259 460H279V480H259V460Z" fill="#D9D9D9" stroke="#D9D9D9"/>
<path d="M299 460H319V480H299V460Z" fill="#D9D9D9" stroke="#D9D9D9"/>
<path d="M279 460H299V480H279V460Z" fill="#D9D9D9" stroke="#D9D9D9"/>
<path d="M319 460H339V480H319V460Z" fill="#D9D9D9" stroke="#D9D9D9"/>
<path d="M178 440H198V460H178V440Z" fill="#D9D9D9" stroke="#D9D9D9"/>
<path d="M198 440H218V460H198V440Z" fill="#D9D9D9" stroke="#D9D9D9"/>
<path d="M158 440H178V460H158V440Z" fill="#D9D9D9" stroke="#D9D9D9"/>
<path d="M219 440H239V460H219V440Z" fill="#D9D9D9" stroke="#D9D9D9"/>
<path d="M239 440H259V460H239V440Z" fill="#D9D9D9" stroke="#D9D9D9"/>
<path d="M259 440H279V460H259V440Z" fill="#D9D9D9" stroke="#D9D9D9"/>
<path d="M279 440H299V460H279V440Z" fill="#D9D9D9" stroke="#D9D9D9"/>
<path d="M178 419H198V439H178V419Z" fill="#D9D9D9" stroke="#D9D9D9"/>
<path d="M198 419H218V439H198V419Z" fill="#D9D9D9" stroke="#D9D9D9"/>
<path d="M158 419H178V439H158V419Z" fill="#D9D9D9" stroke="#D9D9D9"/>
<path d="M219 419H239V439H219V419Z" fill="#D9D9D9" stroke="#D9D9D9"/>
<path d="M239 419H259V439H239V419Z" fill="#D9D9D9" stroke="#D9D9D9"/>
<path d="M279 419H299V439H279V419Z" fill="#D9D9D9" stroke="#D9D9D9"/>
<path d="M259 379H279V399H259V379Z" fill="#D9D9D9" stroke="#D9D9D9"/>
<path d="M219 379H239V399H219V379Z" fill="#D9D9D9" stroke="#D9D9D9"/>
<path d="M240 379H260V399H240V379Z" fill="#D9D9D9" stroke="#D9D9D9"/>
<path d="M259 419H279V439H259V419Z" fill="#D9D9D9" stroke="#D9D9D9"/>
<path d="M219 399H239V419H219V399Z" fill="#D9D9D9" stroke="#D9D9D9"/>
<path d="M239 399H259V419H239V399Z" fill="#D9D9D9" stroke="#D9D9D9"/>
<path d="M259 399H279V419H259V399Z" fill="#D9D9D9" stroke="#D9D9D9"/>
<path d="M337 460H357V480H337V460Z" fill="#D9D9D9" stroke="#D9D9D9"/>
<path d="M297 440H317V460H297V440Z" fill="#D9D9D9" stroke="#D9D9D9"/>
<path d="M297 419H317V439H297V419Z" fill="#D9D9D9" stroke="#D9D9D9"/>
<path d="M277 399H297V419H277V399Z" fill="#D9D9D9" stroke="#D9D9D9"/>
<path d="M339 479H359V499H339V479Z" fill="#D9D9D9" stroke="#D9D9D9"/>
<path d="M138 439H158V459H138V439Z" fill="#D9D9D9" stroke="#D9D9D9"/>
<path d="M138 419H158V439H138V419Z" fill="#D9D9D9" stroke="#D9D9D9"/>
<path d="M178 399H198V419H178V399Z" fill="#D9D9D9" stroke="#D9D9D9"/>
<path d="M198 399H218V419H198V399Z" fill="#D9D9D9" stroke="#D9D9D9"/>
<path d="M158 399H178V419H158V399Z" fill="#D9D9D9" stroke="#D9D9D9"/>
<path d="M138 399H158V419H138V399Z" fill="#D9D9D9" stroke="#D9D9D9"/>
<path d="M178 379H198V399H178V379Z" fill="#D9D9D9" stroke="#D9D9D9"/>
<path d="M198 379H218V399H198V379Z" fill="#D9D9D9" stroke="#D9D9D9"/>
<path d="M158 379H178V399H158V379Z" fill="#D9D9D9" stroke="#D9D9D9"/>
<path d="M138 379H158V399H138V379Z" fill="#D9D9D9" stroke="#D9D9D9"/>
<path d="M98 379H118V399H98V379Z" fill="#D9D9D9" stroke="#D9D9D9"/>
<path d="M119 379H139V399H119V379Z" fill="#D9D9D9" stroke="#D9D9D9"/>
<path d="M118 440H138V460H118V440Z" fill="#D9D9D9" stroke="#D9D9D9"/>
<path d="M118 399H138V419H118V399Z" fill="#D9D9D9" stroke="#D9D9D9"/>
<path d="M319 519H339V539H319V519Z" fill="#949494" stroke="#949494"/>
<path d="M339 519H359V539H339V519Z" fill="#949494" stroke="#949494"/>
<path d="M299 519H319V539H299V519Z" fill="#949494" stroke="#949494"/>
<path d="M379 398H399V418H379V398Z" fill="#D9D9D9" stroke="#D9D9D9"/>
<path d="M377 458H397V478H377V458Z" fill="white"/>
<path d="M377 458H397V478H377V458Z" fill="white"/>
<path d="M377 458H397V478H377V458Z" fill="white"/>
<path d="M377 458H397V478H377V458Z" fill="#EDEDED"/>
<path d="M377 458H397V478H377V458Z" stroke="#EDEDED"/>
<path d="M357 439H377V459H357V439Z" fill="white"/>
<path d="M357 439H377V459H357V439Z" fill="white"/>
<path d="M357 439H377V459H357V439Z" fill="white"/>
<path d="M357 439H377V459H357V439Z" fill="#EDEDED"/>
<path d="M357 439H377V459H357V439Z" stroke="#EDEDED"/>
<path d="M318 419H338V439H318V419Z" fill="white"/>
<path d="M318 419H338V439H318V419Z" fill="white"/>
<path d="M318 419H338V439H318V419Z" fill="white"/>
<path d="M318 419H338V439H318V419Z" fill="#EDEDED"/>
<path d="M318 419H338V439H318V419Z" stroke="#EDEDED"/>
<path d="M298 399H318V419H298V399Z" fill="white"/>
<path d="M298 399H318V419H298V399Z" fill="white"/>
<path d="M298 399H318V419H298V399Z" fill="white"/>
<path d="M298 399H318V419H298V399Z" fill="#EDEDED"/>
<path d="M298 399H318V419H298V399Z" stroke="#EDEDED"/>
<path d="M318 399H338V419H318V399Z" fill="white"/>
<path d="M318 399H338V419H318V399Z" fill="white"/>
<path d="M318 399H338V419H318V399Z" fill="white"/>
<path d="M318 399H338V419H318V399Z" fill="#EDEDED"/>
<path d="M318 399H338V419H318V399Z" stroke="#EDEDED"/>
<path d="M338 439H358V459H338V439Z" fill="white"/>
<path d="M338 439H358V459H338V439Z" fill="white"/>
<path d="M338 439H358V459H338V439Z" fill="white"/>
<path d="M338 439H358V459H338V439Z" fill="#EDEDED"/>
<path d="M338 439H358V459H338V439Z" stroke="#EDEDED"/>
<path d="M338 419H358V439H338V419Z" fill="white"/>
<path d="M338 419H358V439H338V419Z" fill="white"/>
<path d="M338 419H358V439H338V419Z" fill="white"/>
<path d="M338 419H358V439H338V419Z" fill="#EDEDED"/>
<path d="M338 419H358V439H338V419Z" stroke="#EDEDED"/>
<path d="M318 439H338V459H318V439Z" fill="white"/>
<path d="M318 439H338V459H318V439Z" fill="white"/>
<path d="M318 439H338V459H318V439Z" fill="white"/>
<path d="M318 439H338V459H318V439Z" fill="#EDEDED"/>
<path d="M318 439H338V459H318V439Z" stroke="#EDEDED"/>
<path d="M377 439H397V459H377V439Z" fill="white"/>
<path d="M377 439H397V459H377V439Z" fill="white"/>
<path d="M377 439H397V459H377V439Z" fill="white"/>
<path d="M377 439H397V459H377V439Z" fill="#EDEDED"/>
<path d="M377 439H397V459H377V439Z" stroke="#EDEDED"/>
<path d="M357 458H377V478H357V458Z" fill="white"/>
<path d="M357 458H377V478H357V458Z" fill="white"/>
<path d="M357 458H377V478H357V458Z" fill="white"/>
<path d="M357 458H377V478H357V458Z" fill="#EDEDED"/>
<path d="M357 458H377V478H357V458Z" stroke="#EDEDED"/>
<path d="M259 499H279V519H259V499Z" fill="#D9D9D9" stroke="#D9D9D9"/>
<path d="M219 499H239V519H219V499Z" fill="#D9D9D9" stroke="#D9D9D9"/>
<path d="M239 499H259V519H239V499Z" fill="#D9D9D9" stroke="#D9D9D9"/>
<path d="M359 499H379V519H359V499Z" fill="#D9D9D9" stroke="#D9D9D9"/>
<path d="M339 499H359V519H339V499Z" fill="#D9D9D9" stroke="#D9D9D9"/>
<path d="M279 499H299V519H279V499Z" fill="#D9D9D9" stroke="#D9D9D9"/>
<path d="M299 499H319V519H299V499Z" fill="#D9D9D9" stroke="#D9D9D9"/>
<path d="M319 499H339V519H319V499Z" fill="#D9D9D9" stroke="#D9D9D9"/>
</svg>
