<svg width="729" height="160" viewBox="0 0 729 160" fill="none" xmlns="http://www.w3.org/2000/svg">
<path d="M569.5 13.4998L565.5 0.499847L561.5 13.4998H569.5Z" fill="#CFCFCF"/>
<path d="M542 143.5L565 90.9998L544 13.4998L526.5 64.9998L542 143.5Z" fill="#CFCFCF"/>
<path d="M598 108L593 90.9998L567 143.5L573 158L598 108Z" fill="#CFCFCF"/>
<path d="M593 90.9998H565L542 143.5H567L593 90.9998Z" fill="#929292"/>
<path d="M661 84.4998L694.5 26.4998H595L578.5 84.4998H661Z" fill="#828282"/>
<path d="M670 75.9998L661 56.9999L641.5 98.9998L651 113.5L670 75.9998Z" fill="#CFCFCF"/>
<path d="M702.5 90.9998H729L689 144H667L702.5 90.9998Z" fill="#929292"/>
<path d="M673 158L710.5 108H598L573 158H673Z" fill="#959595"/>
<path d="M547 108H494L479 157.5H529.5L547 108Z" fill="#959595"/>
<path d="M641.5 98.9998L661 56.9999H633.5L614.5 98.9998H641.5Z" fill="#858585"/>
<path d="M633.5 56.9999L627.5 41.9998L608.5 84.9998L615 97.9998L633.5 56.9999Z" fill="#CFCFCF"/>
<path d="M472.5 27.9998L476 0.499847L481.5 27.9998H472.5Z" fill="#CFCFCF"/>
<path d="M494 108L487.5 72.4998L473 129.5L479 157.5L494 108Z" fill="#CFCFCF"/>
<path d="M473 129.5H450.5L460.5 72.4998H487.5L473 129.5Z" fill="#929292"/>
<path d="M449.5 118L458 55.9998C458.833 61.1665 460.5 71.6998 460.5 72.4998C460.5 73.2998 454.167 110.833 450.5 129.5L449.5 118Z" fill="#CFCFCF"/>
<path d="M458 55.9998H428.5L429.5 118H449.5L458 55.9998Z" fill="#858585"/>
<path d="M379 158V108H430.5L427 158H379Z" fill="#959595"/>
<path d="M331.5 90.9998H360V143.5H335C335 143.5 332.5 108.5 331.5 90.9998Z" fill="#929292"/>
<path d="M335 143.5L331.5 90.9998L330.5 108L334.5 160L335 143.5Z" fill="#CFCFCF"/>
<path d="M211.5 73.9998L196 13.4998L183.5 53.4999L204 115.5L211.5 73.9998Z" fill="#CFCFCF"/>
<path d="M183.5 115.5L158.5 53.4999L152 69.9998L177.5 128.5L183.5 115.5Z" fill="#CFCFCF"/>
<path d="M183.5 53.4999L204 115.5H183.5L158.5 53.4999H183.5Z" fill="#8C8C8C"/>
<path d="M213 143.5L195.5 90.4998H222.5L232 143.5H213Z" fill="#929292"/>
<path d="M91 160L56 107.5H0.5L40 160H91Z" fill="#959595"/>
<path d="M152 69.9998H72.5L105 128.5H177.5L152 69.9998Z" fill="#959595"/>
<path d="M105 128.5L72.5 69.9998L56 107.5L91 160L105 128.5Z" fill="#CFCFCF"/>
<path d="M544 13.4998H569.5L565.5 0.499847H658L664 13.4998H688L694.5 26.4998H594.5L612.5 75.9998H670L661 56.9999H633.5L627.5 41.9998H679L686 56.9999H712L729 90.9998H702.5L710.5 108H598L593 90.9998H565L544 13.4998Z" fill="white"/>
<path d="M424.816 0.499847H379V108H430.5L428.5 55.9998H458L460.5 72.4998H487.5L494 108H547L521 0.499847H476L481.5 27.9998H454L451.5 13.4998H425.5L424.816 0.499847Z" fill="white"/>
<path d="M60 0.999847H176L171.713 13.4998H196L183.5 53.4999H158.5L152 69.9998H72.5L56 107.5H0.5L43.5 30.4998L60 0.999847Z" fill="white"/>
<path d="M179.5 13.4998L176 0.999847L171.711 13.4998H179.5Z" fill="#CFCFCF"/>
<path d="M102 41.9998L95.5 22.4998H147L138.635 41.9998H102Z" fill="#858585"/>
<path d="M102 41.9998H86.5L95.5 22.4998L102 41.9998Z" fill="#CFCFCF"/>
<path d="M233.5 160L219 108H330.5L334.5 160H233.5Z" fill="#959595"/>
<path d="M315 23.9998H261.5L262.5 69.9998H310.5L315 23.9998Z" fill="#858585"/>
<path d="M264 77.9998L265.5 69.9998L261.5 23.9998L250.5 77.9998H264Z" fill="#CFCFCF"/>
<path d="M315 23.9998H261.5L264 12C264.976 7.41134 266.5 0.499847 266.5 0.499847H336.5L336 12.9998H361.5L360 90.9998H331.5L330.5 108H285V77.9998H309.5L315 23.9998Z" fill="white"/>
<path d="M261.5 23.9998L264 12C264.976 7.41134 266.5 0.499847 266.5 0.499847H244L241 13.4998H217.5L195.5 90.4998H222.5L219 108H285V77.9998H250.5L261.5 23.9998Z" fill="white"/>
<path d="M270.408 1L266.578 23.5H257.533L258.969 1H270.408Z" stroke="white"/>
<path d="M280.508 107.5L280.992 78.5H297.5V107.5H280.508Z" stroke="white"/>
</svg>
