<svg width="729" height="160" viewBox="0 0 729 160" fill="none" xmlns="http://www.w3.org/2000/svg">
<path d="M569.5 13.5L565.5 0.5L561.5 13.5H569.5Z" fill="#CFCFCF"/>
<path d="M542 143.5L565 91L544 13.5L526.5 65L542 143.5Z" fill="#CFCFCF"/>
<path d="M598 108L593 91L568 143.5L573 160L598 108Z" fill="#CFCFCF"/>
<path d="M593 91H565L542 143.5H568L593 91Z" fill="#929292"/>
<path d="M661 84.5L694.5 26.5H594.5L578.5 84.5H661Z" fill="#828282"/>
<path d="M670 76L661 57L640.5 97.5L651 113.5L670 76Z" fill="#CFCFCF"/>
<path d="M702.5 91H729L689 144H667L702.5 91Z" fill="#929292"/>
<path d="M673 160L710.5 108H598L573 160H673Z" fill="#959595"/>
<path d="M547 108H494L479 160H529.5L547 108Z" fill="#959595"/>
<path d="M640.5 97.5L661 57H633.5L614.5 97L640.5 97.5Z" fill="#858585"/>
<path d="M633.5 57L627.5 42L610 80.5L614.5 97L633.5 57Z" fill="#CFCFCF"/>
<path d="M472.5 28L476 0.5L481.5 28H472.5Z" fill="#CFCFCF"/>
<path d="M494 108L487.5 72.5L473 129.5L479 160L494 108Z" fill="#CFCFCF"/>
<path d="M473 129.5H450.5L460.5 72.5H487.5L473 129.5Z" fill="#929292"/>
<path d="M449.5 118L458 56C458.833 61.1667 460.5 71.7 460.5 72.5C460.5 73.3 454.167 110.833 450.5 129.5L449.5 118Z" fill="#CFCFCF"/>
<path d="M458 56H428.5L430.5 108L429.8 118H449.5L458 56Z" fill="#858585"/>
<path d="M379 160V108H430.5L427 160H379Z" fill="#959595"/>
<path d="M331.5 91H360V143.5H335C335 143.5 332.5 108.5 331.5 91Z" fill="#929292"/>
<path d="M335 143.5L331.5 91L330.5 108L334.5 160L335 143.5Z" fill="#CFCFCF"/>
<path d="M211.5 74L196 13.5L183.5 53.5L204 115.5L211.5 74Z" fill="#CFCFCF"/>
<path d="M183.5 115.5L158.5 53.5L152 70L177.5 128.5L183.5 115.5Z" fill="#CFCFCF"/>
<path d="M183.5 53.5L204 115.5H183.5L158.5 53.5H183.5Z" fill="#8C8C8C"/>
<path d="M213 143.5L195.5 91H223L233.5 143.5H213Z" fill="#929292"/>
<path d="M91 160L56 107.5H0.5L40 160H91Z" fill="#959595"/>
<path d="M152 70H72.5L105 128.5H177.5L152 70Z" fill="#959595"/>
<path d="M105 128.5L72.5 70L56 107.5L91 160L105 128.5Z" fill="#CFCFCF"/>
<path d="M544 13.5H569.5L565.5 0.5H658L664 13.5H688L694.5 26.5H594.5L612.5 76H670L661 57H633.5L627.5 42H679L686 57H712L729 91H702.5L710.5 108H598L593 91H565L544 13.5Z" fill="white"/>
<path d="M424.816 0.5H379V108H430.5L428.5 56H458L460.5 72.5H487.5L494 108H547L521 0.5H476L481.5 28H454L451.5 13.5H425.5L424.816 0.5Z" fill="white"/>
<path d="M60 1H176L171.713 13.5H196L183.5 53.5H158.5L152 70H72.5L56 107.5H0.5L43.5 30.5L60 1Z" fill="white"/>
<path d="M179.5 13.5L176 1L171.711 13.5H179.5Z" fill="#CFCFCF"/>
<path d="M103 42L95.5 22.5H147L138.635 42H103Z" fill="#858585"/>
<path d="M103 42H86.5L95.5 22.5L103 42Z" fill="#CFCFCF"/>
<path d="M233.5 160L219 108H330.5L334.5 160H233.5Z" fill="#959595"/>
<path d="M315 24H261.5L265.5 70H310.5L315 24Z" fill="#858585"/>
<path d="M264 78L265.5 70L261.5 24L250.5 78H264Z" fill="#CFCFCF"/>
<path fill-rule="evenodd" clip-rule="evenodd" d="M330.5 108L331.5 91H360V13H336L336.5 0.5H243.5L241 13H217.5L195.5 91H223L219 108H330.5ZM309.5 78L315 24H261.5L250.5 78H309.5Z" fill="white"/>
<path d="M569.5 13.5L565.5 0.5L561.5 13.5H569.5Z" fill="#CFCFCF"/>
<path d="M542 143.5L565 91L544 13.5L526.5 65L542 143.5Z" fill="#CFCFCF"/>
<path d="M598 108L593 91L568 143.5L573 160L598 108Z" fill="#CFCFCF"/>
<path d="M593 91H565L542 143.5H568L593 91Z" fill="#929292"/>
<path d="M661 84.5L694.5 26.5H594.5L578.5 84.5H661Z" fill="#828282"/>
<path d="M670 76L661 57L640.5 97.5L651 113.5L670 76Z" fill="#CFCFCF"/>
<path d="M702.5 91H729L689 144H667L702.5 91Z" fill="#929292"/>
<path d="M673 160L710.5 108H598L573 160H673Z" fill="#959595"/>
<path d="M547 108H494L479 160H529.5L547 108Z" fill="#959595"/>
<path d="M640.5 97.5L661 57H633.5L614.5 97L640.5 97.5Z" fill="#858585"/>
<path d="M633.5 57L627.5 42L610 80.5L614.5 97L633.5 57Z" fill="#CFCFCF"/>
<path d="M472.5 28L476 0.5L481.5 28H472.5Z" fill="#CFCFCF"/>
<path d="M494 108L487.5 72.5L473 129.5L479 160L494 108Z" fill="#CFCFCF"/>
<path d="M473 129.5H450.5L460.5 72.5H487.5L473 129.5Z" fill="#929292"/>
<path d="M449.5 118L458 56C458.833 61.1667 460.5 71.7 460.5 72.5C460.5 73.3 454.167 110.833 450.5 129.5L449.5 118Z" fill="#CFCFCF"/>
<path d="M458 56H428.5L430.5 108L429.8 118H449.5L458 56Z" fill="#858585"/>
<path d="M379 160V108H430.5L427 160H379Z" fill="#959595"/>
<path d="M331.5 91H360V143.5H335C335 143.5 332.5 108.5 331.5 91Z" fill="#929292"/>
<path d="M335 143.5L331.5 91L330.5 108L334.5 160L335 143.5Z" fill="#CFCFCF"/>
<path d="M211.5 74L196 13.5L183.5 53.5L204 115.5L211.5 74Z" fill="#CFCFCF"/>
<path d="M183.5 115.5L158.5 53.5L152 70L177.5 128.5L183.5 115.5Z" fill="#CFCFCF"/>
<path d="M183.5 53.5L204 115.5H183.5L158.5 53.5H183.5Z" fill="#8C8C8C"/>
<path d="M213 143.5L195.5 91H223L233.5 143.5H213Z" fill="#929292"/>
<path d="M91 160L56 107.5H0.5L40 160H91Z" fill="#959595"/>
<path d="M152 70H72.5L105 128.5H177.5L152 70Z" fill="#959595"/>
<path d="M105 128.5L72.5 70L56 107.5L91 160L105 128.5Z" fill="#CFCFCF"/>
<path d="M544 13.5H569.5L565.5 0.5H658L664 13.5H688L694.5 26.5H594.5L612.5 76H670L661 57H633.5L627.5 42H679L686 57H712L729 91H702.5L710.5 108H598L593 91H565L544 13.5Z" fill="white"/>
<path d="M424.816 0.5H379V108H430.5L428.5 56H458L460.5 72.5H487.5L494 108H547L521 0.5H476L481.5 28H454L451.5 13.5H425.5L424.816 0.5Z" fill="white"/>
<path d="M60 1H176L171.713 13.5H196L183.5 53.5H158.5L152 70H72.5L56 107.5H0.5L43.5 30.5L60 1Z" fill="white"/>
<path d="M179.5 13.5L176 1L171.711 13.5H179.5Z" fill="#CFCFCF"/>
<path d="M103 42L95.5 22.5H147L138.635 42H103Z" fill="#858585"/>
<path d="M103 42H86.5L95.5 22.5L103 42Z" fill="#CFCFCF"/>
<path d="M233.5 160L219 108H330.5L334.5 160H233.5Z" fill="#959595"/>
<path d="M315 24H261.5L265.5 70H310.5L315 24Z" fill="#858585"/>
<path d="M264 78L265.5 70L261.5 24L250.5 78H264Z" fill="#CFCFCF"/>
<path fill-rule="evenodd" clip-rule="evenodd" d="M330.5 108L331.5 91H360V13H336L336.5 0.5H243.5L241 13H217.5L195.5 91H223L219 108H330.5ZM309.5 78L315 24H261.5L250.5 78H309.5Z" fill="white"/>
<path d="M569.5 13.5L565.5 0.5L561.5 13.5H569.5Z" fill="#CFCFCF"/>
<path d="M542 143.5L565 91L544 13.5L526.5 65L542 143.5Z" fill="#CFCFCF"/>
<path d="M598 108L593 91L568 143.5L573 160L598 108Z" fill="#CFCFCF"/>
<path d="M593 91H565L542 143.5H568L593 91Z" fill="#929292"/>
<path d="M661 84.5L694.5 26.5H594.5L578.5 84.5H661Z" fill="#828282"/>
<path d="M670 76L661 57L640.5 97.5L651 113.5L670 76Z" fill="#CFCFCF"/>
<path d="M702.5 91H729L689 144H667L702.5 91Z" fill="#929292"/>
<path d="M673 160L710.5 108H598L573 160H673Z" fill="#959595"/>
<path d="M547 108H494L479 160H529.5L547 108Z" fill="#959595"/>
<path d="M640.5 97.5L661 57H633.5L614.5 97L640.5 97.5Z" fill="#858585"/>
<path d="M633.5 57L627.5 42L610 80.5L614.5 97L633.5 57Z" fill="#CFCFCF"/>
<path d="M472.5 28L476 0.5L481.5 28H472.5Z" fill="#CFCFCF"/>
<path d="M494 108L487.5 72.5L473 129.5L479 160L494 108Z" fill="#CFCFCF"/>
<path d="M473 129.5H450.5L460.5 72.5H487.5L473 129.5Z" fill="#929292"/>
<path d="M449.5 118L458 56C458.833 61.1667 460.5 71.7 460.5 72.5C460.5 73.3 454.167 110.833 450.5 129.5L449.5 118Z" fill="#CFCFCF"/>
<path d="M458 56H428.5L430.5 108L429.8 118H449.5L458 56Z" fill="#858585"/>
<path d="M379 160V108H430.5L427 160H379Z" fill="#959595"/>
<path d="M331.5 91H360V143.5H335C335 143.5 332.5 108.5 331.5 91Z" fill="#929292"/>
<path d="M335 143.5L331.5 91L330.5 108L334.5 160L335 143.5Z" fill="#CFCFCF"/>
<path d="M336.5 13V0.5L336 13H336.5Z" fill="#D9D9D9"/>
<path d="M211.5 74L196 13.5L183.5 53.5L204 115.5L211.5 74Z" fill="#CFCFCF"/>
<path d="M183.5 115.5L158.5 53.5L152 70L177.5 128.5L183.5 115.5Z" fill="#CFCFCF"/>
<path d="M183.5 53.5L204 115.5H183.5L158.5 53.5H183.5Z" fill="#8C8C8C"/>
<path d="M213 143.5L195.5 91H223L233.5 143.5H213Z" fill="#929292"/>
<path d="M91 160L56 107.5H0.5L40 160H91Z" fill="#959595"/>
<path d="M152 70H72.5L105 128.5H177.5L152 70Z" fill="#959595"/>
<path d="M105 128.5L72.5 70L56 107.5L91 160L105 128.5Z" fill="#CFCFCF"/>
<path d="M544 13.5H569.5L565.5 0.5H658L664 13.5H688L694.5 26.5H594.5L612.5 76H670L661 57H633.5L627.5 42H679L686 57H712L729 91H702.5L710.5 108H598L593 91H565L544 13.5Z" fill="white"/>
<path d="M424.816 0.5H379V108H430.5L428.5 56H458L460.5 72.5H487.5L494 108H547L521 0.5H476L481.5 28H454L451.5 13.5H425.5L424.816 0.5Z" fill="white"/>
<path d="M60 1H176L171.713 13.5H196L183.5 53.5H158.5L152 70H72.5L56 107.5H0.5L43.5 30.5L60 1Z" fill="white"/>
<path d="M179.5 13.5L176 1L171.711 13.5H179.5Z" fill="#CFCFCF"/>
<path d="M103 42L95.5 22.5H147L138.635 42H103Z" fill="#858585"/>
<path d="M103 42H86.5L95.5 22.5L103 42Z" fill="#CFCFCF"/>
<path d="M233.5 160L219 108H330.5L334.5 160H233.5Z" fill="#959595"/>
<path d="M315 24H261.5L265.5 70H310.5L315 24Z" fill="#858585"/>
<path d="M264 78L265.5 70L261.5 24L250.5 78H264Z" fill="#CFCFCF"/>
<path fill-rule="evenodd" clip-rule="evenodd" d="M330.5 108L331.5 91H360V13H336L336.5 0.5H243.5L241 13H217.5L195.5 91H223L219 108H330.5ZM309.5 78L315 24H261.5L250.5 78H309.5Z" fill="white"/>
</svg>
