<svg width="32" height="32" viewBox="0 0 32 32" fill="none" xmlns="http://www.w3.org/2000/svg">
<path d="M1 15V17" stroke="#4B3F28"/>
<path d="M1.5 14.5H5" stroke="#4B3F28"/>
<path d="M5 13.5H8.5" stroke="#4B3F28"/>
<path d="M8.5 12.5H12" stroke="#4B3F28"/>
<path d="M12.5 12V8.5" stroke="#4B3F28"/>
<path d="M13.5 8.5V5" stroke="#4B3F28"/>
<path d="M14.5 5V1.5" stroke="#4B3F28"/>
<path d="M15 1H17" stroke="#4B3F28"/>
<path d="M17.5 1.5V5" stroke="#4B3F28"/>
<path d="M18.5 5V8.5" stroke="#4B3F28"/>
<path d="M19.5 8.5V12M20 12.5H23.5" stroke="#4B3F28"/>
<path d="M23.5 13.5H27" stroke="#4B3F28"/>
<path d="M27 14.5H30.5" stroke="#4B3F28"/>
<path d="M31 15V17" stroke="#4B3F28"/>
<path d="M30.5 17.5H27" stroke="#4B3F28"/>
<path d="M27 18.5H23.5" stroke="#4B3F28"/>
<path d="M23.5 19.5H20" stroke="#4B3F28"/>
<path d="M19.5 20V23.5" stroke="#4B3F28"/>
<path d="M18.5 23.5V27" stroke="#4B3F28"/>
<path d="M17.5 27V30.5" stroke="#4B3F28"/>
<path d="M17 31H15" stroke="#4B3F28"/>
<path d="M14.5 30.5V27" stroke="#4B3F28"/>
<path d="M13.5 27V23.5" stroke="#4B3F28"/>
<path d="M12.5 23.5V20" stroke="#4B3F28"/>
<path d="M12 19.5H8.5" stroke="#4B3F28"/>
<path d="M8.5 18.5H5" stroke="#4B3F28"/>
<path d="M5 17.5H1.5" stroke="#4B3F28"/>
<path d="M16 16V1.5H15V5H14V8.5H13V12H12V13H13V14H14V15H15V16H16Z" fill="#FFC24B"/>
<path d="M17 1.5H16V16H17V15H18V14H19V13H20V12H19V8.5H18V5H17V1.5Z" fill="#FEF0BC"/>
<path d="M16 30.5V16H17V17H18V18H19V19H20V20H19V23.5H18V27H17V30.5H16Z" fill="#FFE073"/>
<path d="M15 17V16H16V30.5H15V27H14V23.5H13V20H12V19H13V18H14V17H15Z" fill="#C16B1B"/>
<path d="M13 22.5H16" stroke="#A25916"/>
<path d="M19 22.5H16M13 10.5H12" stroke="#EC9B00"/>
<path d="M11 11.5H12" stroke="#EC9B00"/>
<path d="M18.5 22V21" stroke="#EC9B00"/>
<path d="M10.5 12V13" stroke="#EC9B00"/>
<path d="M9.5 13V19" stroke="#EC9B00"/>
<path d="M15 16H1.5V15H5V14H8.5V13H12H13V14H14V15H15V16Z" fill="#FFDA57"/>
<path d="M1.5 17V16H15V17H14V18H13V19H8.5V18H5V17H1.5Z" fill="#F8AF23"/>
<path d="M10.5 19V20" stroke="#C16B1B"/>
<path d="M11.5 20V21" stroke="#C16B1B"/>
<path d="M12.5 21V22" stroke="#C16B1B"/>
<path d="M30.5 16H17V17H18V18H19V19H23.5V18H27V17H30.5V16Z" fill="#FFC24B"/>
<path d="M30.5 16H17V15H18V14H19V13H23.5V14H27V15H30.5V16Z" fill="#FFE381"/>
<path d="M20 10.5H21" stroke="#4B3F28"/>
<path d="M21 11.5H22" stroke="#4B3F28"/>
<path d="M21 20.5H22" stroke="#4B3F28"/>
<path d="M20 21.5H21" stroke="#4B3F28"/>
<path d="M11 21.5H12" stroke="#4B3F28"/>
<path d="M13 10.5H19" stroke="#FFE380"/>
<path d="M13 21.5H19" stroke="#FFDA57"/>
<path d="M16 9.5H19" stroke="#FFEDAC"/>
<path d="M19.5 21V22" stroke="#EC9B00"/>
<path d="M20.5 20V21" stroke="#EC9B00"/>
<path d="M21.5 19V20" stroke="#EC9B00"/>
<path d="M22.5 19V16" stroke="#EC9B00"/>
<path d="M22.5 16V13" stroke="#FFC227"/>
<path d="M21 12.5H22" stroke="#FFC227"/>
<path d="M20 11.5H21" stroke="#FFC227"/>
<path d="M19 10.5H20" stroke="#FFC227"/>
<path d="M16 9.5H19" stroke="#FFC227"/>
<path d="M9.5 13V16" stroke="#EC9B00"/>
<path d="M9.5 19V16" stroke="#C16B1B"/>
<path d="M10.5 13V19" stroke="#FFDA57"/>
<path d="M5.5 13V9.5" stroke="#4B3F28"/>
<path d="M5.5 22.5V19" stroke="#4B3F28"/>
<path d="M26.5 22.5V19" stroke="#4B3F28"/>
<path d="M26.5 13V9.5" stroke="#4B3F28"/>
<path d="M13 5.5L9.5 5.5" stroke="#4B3F28"/>
<path d="M22.5 5.5L19 5.5" stroke="#4B3F28"/>
<path d="M22.5 26.5H19" stroke="#4B3F28"/>
<path d="M13 26.5H9.5" stroke="#4B3F28"/>
<path d="M9.5 6.5H8.5V8.5H6.5V9.5" stroke="#4B3F28"/>
<path d="M2 14V9" stroke="#4B3F28"/>
<path d="M2 23V18" stroke="#4B3F28"/>
<path d="M30 23V18" stroke="#4B3F28"/>
<path d="M30 14V9" stroke="#4B3F28"/>
<path d="M3 9V7.5" stroke="#4B3F28"/>
<path d="M4 7.5V4.5" stroke="#4B3F28"/>
<path d="M3.5 4H7" stroke="#4B3F28"/>
<path d="M7 3H8.5" stroke="#4B3F28"/>
<path d="M3 23V24.5" stroke="#4B3F28"/>
<path d="M4 24.5V28V28.5" stroke="#4B3F28"/>
<path d="M8.5 2H14" stroke="#4B3F28"/>
<path d="M8.5 30H14" stroke="#4B3F28"/>
<path d="M6.5 22.5V23.5H8.5V25.5H9.5" stroke="#4B3F28"/>
<path d="M22.5 6.5H23.5V8.5H25.5V9.5" stroke="#4B3F28"/>
<path d="M22.5 25.5H23.5V23.5H25.5V22.5" stroke="#4B3F28"/>
<path d="M23.5 3H25" stroke="#4B3F28"/>
<path d="M25 4H28V7.5" stroke="#4B3F28"/>
<path d="M29 7.5V9" stroke="#4B3F28"/>
<path d="M6.5 6H6V6.5H6.5V6Z" stroke="#4B48EA"/>
<path d="M7.5 4.5V8" stroke="#E7FCF6"/>
<path d="M4.5 5H7" stroke="#A2FDF2"/>
<path d="M5 5.5V8" stroke="#36CAB8"/>
<path d="M7.5 4.5V8" stroke="#E7FCF6"/>
<path d="M4.5 5H7" stroke="#A2FDF2"/>
<path d="M5 5.5V8" stroke="#36CAB8"/>
<path d="M5.5 7.5H8" stroke="#23EED6"/>
<path d="M16.5 15.5H15.5V16.5H16.5V15.5Z" stroke="#4B48EA"/>
<path d="M18.5 13V14" stroke="#FFE380"/>
<path d="M14 13.5H13" stroke="#FFDA57"/>
<path d="M14 13.5H18" stroke="#FFC227"/>
<path d="M18.5 14V18" stroke="#FFC227"/>
<path d="M18 18.5H14" stroke="#FFB700"/>
<path d="M13.5 18V19" stroke="#FFDA57"/>
<path d="M19 18.5H18" stroke="#FFE380"/>
<path d="M17.5 14V18" stroke="#E7FCF6"/>
<path d="M14 14.5H17" stroke="#A2FDF2"/>
<path d="M14.5 15V18" stroke="#36CAB8"/>
<path d="M15 17.5H18" stroke="#23EED6"/>
<path d="M26 6H25.5V6.5H26V6Z" stroke="#4B48EA"/>
<path d="M27 4.5V8" stroke="#E7FCF6"/>
<path d="M24 5H26.5" stroke="#A2FDF2"/>
<path d="M24.5 5.5V8" stroke="#36CAB8"/>
<path d="M25 7.5H27.5" stroke="#23EED6"/>
<path d="M26 25.5H25.5V26H26V25.5Z" stroke="#4B48EA"/>
<path d="M27 24V27.5" stroke="#E7FCF6"/>
<path d="M24 24.5H26.5" stroke="#A2FDF2"/>
<path d="M24.5 25V27.5" stroke="#36CAB8"/>
<path d="M25 27H27.5" stroke="#23EED6"/>
<path d="M6.5 25.5H6V26H6.5V25.5Z" stroke="#4B48EA"/>
<path d="M7.5 24V27.5" stroke="#E7FCF6"/>
<path d="M4.5 24.5H7" stroke="#A2FDF2"/>
<path d="M5 25V27.5" stroke="#36CAB8"/>
<path d="M5.5 27H8" stroke="#23EED6"/>
<path d="M18 2H23.5" stroke="#4B3F28"/>
<path d="M18 30H23.5" stroke="#4B3F28"/>
<path d="M4.5 28H7" stroke="#4B3F28"/>
<path d="M7 29H8.5" stroke="#4B3F28"/>
<path d="M29 23V24.5" stroke="#4B3F28"/>
<path d="M23.5 29H25" stroke="#4B3F28"/>
<path d="M25 28H28V24.5" stroke="#4B3F28"/>
<path d="M8 5.5H9.5" stroke="#EC9B00"/>
<path d="M9.5 4.5H14" stroke="#EC9B00"/>
<path d="M13.5 2.5V4" stroke="#EC9B00"/>
<path d="M7 4H9.5M8 4.5H9.5" stroke="#FFC227"/>
<path d="M8.5 3H13" stroke="#FFC227"/>
<path d="M9.5 3.5H13" stroke="#FFC327"/>
<path d="M23.5 4H25H24.5H23.5ZM23.5 4H23V3H19.5V3.5H23V4.5H23.5V4Z" stroke="#FFC227"/>
<path d="M29 13V11M29 9.5V11M28 9V7.5M27.5 9.5V8M29.5 9.5H28M29 11L28.5 10V13" stroke="#FFC227"/>
<path d="M29 23V22V19.5H28.5V23M27.5 22.5V23.5H28V24.5" stroke="#FFC227"/>
<path d="M19 28.5H23V28M23.5 27.5V27M23.5 27.5H23V28M23.5 27.5L23 28M23 28H24.5H25H23ZM19 29H23V29.5" stroke="#FFC227"/>
<path d="M13 29H9M8.5 29H9M9 29V28.5M9 28H8.5M9 28V27.5M9 28V28.5M7 28H8.5M8.5 28V27.5H9M9.5 27.5H9M9 28.5H12.5H13" stroke="#FFC227"/>
<path d="M3 19V22.5M3 23V22.5M3 22.5H3.5M5 22.5H4.5M4.5 22.5V24M4.5 22.5H4M3.5 22.5H4M3.5 22.5V21V19M4 22.5V24.5" stroke="#FFC227"/>
<path d="M3 13V9.5M3 9V9.5M3 9.5H3.5V13M4 8V7.5V9V8ZM4.5 8.5V8V9.5V8.5Z" stroke="#FFC227"/>
<path d="M5.5 8V9.5" stroke="#EC9B00"/>
<path d="M4.5 9.5V13.5H2.5" stroke="#EC9B00"/>
<path d="M2.5 18.5H4.5V22" stroke="#EC9B00"/>
<path d="M5.5 22.5V24" stroke="#EC9B00"/>
<path d="M8 26.5H9.5" stroke="#EC9B00"/>
<path d="M9.5 27.5H13.5V29.5" stroke="#EC9B00"/>
<path d="M18.5 29.5V27.5H22.5" stroke="#EC9B00"/>
<path d="M22.5 26.5H24" stroke="#EC9B00"/>
<path d="M26.5 22.5V24" stroke="#EC9B00"/>
<path d="M27.5 22.5V18.5H29.5" stroke="#EC9B00"/>
<path d="M29.5 13.5H27.5V9.5" stroke="#EC9B00"/>
<path d="M26.5 9.5V8" stroke="#EC9B00"/>
<path d="M24 5.5H22.5" stroke="#EC9B00"/>
<path d="M22.5 4.5H18.5V2.5" stroke="#EC9B00"/>
<path d="M11.5 10V11" stroke="#4B3F28"/>
<path d="M10.5 11V12" stroke="#4B3F28"/>
<path d="M10 20.5H11" stroke="#4B3F28"/>
<path d="M13 9.5H16" stroke="#EC9B00"/>
<path d="M21.5 13V19M19.5 11V12" stroke="#FFE380"/>
<path d="M20.5 12V13" stroke="#FFE380"/>
<path d="M20.5 19V20" stroke="#FFE380"/>
<path d="M19.5 20V21" stroke="#FFE380"/>
<path d="M12.5 20V21M11.5 19V20" stroke="#FFDA57"/>
<path d="M11.5 12V13" stroke="#FFDA57"/>
<path d="M12.5 11V12" stroke="#FFDA57"/>
<path d="M13 20.5H19M20 19.5H19" stroke="#FFB700"/>
<path d="M20.5 19V13" stroke="#FFC227"/>
<path d="M20 12.5H19" stroke="#FFC227"/>
<path d="M19 11.5H13" stroke="#FFC227"/>
<path d="M13 12.5H12" stroke="#FFB700"/>
<path d="M12 13.5H11" stroke="#FFB700"/>
<path d="M11.5 14V19" stroke="#FFB700"/>
<path d="M12 19.5H13" stroke="#FFB700"/>
<path d="M13 12.5H19" stroke="#FFE380"/>
<path d="M19.5 13V19" stroke="#FFE380"/>
<path d="M13 19.5H19" stroke="#FFDA57"/>
<path d="M12.5 13V19" stroke="#FFDA57"/>
<path d="M13.5 18V14" stroke="#FFB700"/>
<path d="M19.5 11V12" stroke="#FEEFBC"/>
<path d="M20.5 12V13" stroke="#FEEFBC"/>
<path d="M16 10.5H19" stroke="#FEEFBC"/>
<path d="M21.5 13V16" stroke="#FEEFBC"/>
<path d="M19.5 13V16" stroke="#FEEFBC"/>
<path d="M18.5 14V12" stroke="#FEEFBC"/>
<path d="M16 12.5H18" stroke="#FEEFBC"/>
</svg>
