<svg width="437" height="676" viewBox="0 0 437 676" fill="none" xmlns="http://www.w3.org/2000/svg">
<path d="M59 438H79V458H59V438Z" fill="#949494" stroke="#949494"/>
<path d="M59 458H79V478H59V458Z" fill="#949494" stroke="#949494"/>
<path d="M79 478H99V498H79V478Z" fill="#949494" stroke="#949494"/>
<path d="M199 518H219V538H199V518Z" fill="#949494" stroke="#949494"/>
<path d="M259 518H299V538H259V518Z" fill="#949494"/>
<path d="M299 518H319V538H299V518Z" fill="#949494"/>
<path d="M259 518H279V538H259V518Z" fill="#949494"/>
<path d="M259 518H299M259 518V538M259 518H279V538H259M299 518V538M299 518H319V538H299M299 538H259" stroke="#949494"/>
<path d="M239 518H259V538H239V518Z" fill="#949494" stroke="#949494"/>
<path d="M219 518H239V538H219V518Z" fill="#949494"/>
<path d="M99 458H119V478H99V458Z" fill="#949494"/>
<path d="M219 518H239V538H219V518Z" stroke="#949494"/>
<path d="M99 458H119V478H99V458Z" stroke="#949494"/>
<path d="M179 518H199V538H179V518Z" fill="#949494" stroke="#949494"/>
<path d="M159 498H179V518H159V498Z" fill="#949494" stroke="#949494"/>
<path d="M159 518H179V538H159V518Z" fill="#949494" stroke="#949494"/>
<path d="M139 518H159V538H139V518Z" fill="#949494" stroke="#949494"/>
<path d="M119 518H139V538H119V518Z" fill="#949494" stroke="#949494"/>
<path d="M119 498H139V518H119V498Z" fill="#949494" stroke="#949494"/>
<path d="M99 498H119V518H99V498Z" fill="#949494" stroke="#949494"/>
<path d="M99 478H119V498H99V478Z" fill="#949494" stroke="#949494"/>
<path d="M79 498H99V518H79V498Z" fill="#949494" stroke="#949494"/>
<path d="M59 478H79V498H59V478Z" fill="#949494" stroke="#949494"/>
<path d="M139 498H159V518H139V498Z" fill="#949494" stroke="#949494"/>
<path d="M119 478H139V498H119V478Z" fill="#949494" stroke="#949494"/>
<path d="M79 458H99V478H79V458Z" fill="#949494" stroke="#949494"/>
<path d="M79 438H99V458H79V438Z" fill="#949494" stroke="#949494"/>
<path d="M59 418H79V438H59V418Z" fill="#949494" stroke="#949494"/>
<path d="M279 418H299V438H279V418Z" fill="white"/>
<path d="M279 418H299V438H279V418Z" fill="white"/>
<path d="M279 418H299V438H279V418Z" fill="white"/>
<path d="M279 418H299V438H279V418Z" fill="#EDEDED"/>
<path d="M279 418H299V438H279V418Z" stroke="#EDEDED"/>
<path d="M279 398H299V418H279V398Z" fill="white"/>
<path d="M279 398H299V418H279V398Z" fill="white"/>
<path d="M279 398H299V418H279V398Z" fill="white"/>
<path d="M279 398H299V418H279V398Z" fill="#EDEDED"/>
<path d="M279 398H299V418H279V398Z" stroke="#EDEDED"/>
<path d="M259 398H279V418H259V398Z" fill="white"/>
<path d="M259 398H279V418H259V398Z" fill="white"/>
<path d="M259 398H279V418H259V398Z" fill="white"/>
<path d="M259 398H279V418H259V398Z" fill="#EDEDED"/>
<path d="M259 398H279V418H259V398Z" stroke="#EDEDED"/>
<path d="M259 378H279V398H259V378Z" fill="white"/>
<path d="M259 378H279V398H259V378Z" fill="white"/>
<path d="M259 378H279V398H259V378Z" fill="white"/>
<path d="M259 378H279V398H259V378Z" fill="#EDEDED"/>
<path d="M259 378H279V398H259V378Z" stroke="#EDEDED"/>
<path d="M239 378H259V398H239V378Z" fill="white"/>
<path d="M239 378H259V398H239V378Z" fill="white"/>
<path d="M239 378H259V398H239V378Z" fill="white"/>
<path d="M239 378H259V398H239V378Z" fill="#EDEDED"/>
<path d="M239 378H259V398H239V378Z" stroke="#EDEDED"/>
<path d="M239 398H259V418H239V398Z" fill="white"/>
<path d="M239 398H259V418H239V398Z" fill="white"/>
<path d="M239 398H259V418H239V398Z" fill="white"/>
<path d="M239 398H259V418H239V398Z" fill="#EDEDED"/>
<path d="M239 398H259V418H239V398Z" stroke="#EDEDED"/>
<path d="M99 458H119V478H99V458Z" fill="#949494" stroke="#949494"/>
<path d="M79 418H99V438H79V418Z" fill="#D9D9D9" stroke="#D9D9D9"/>
<path d="M79 418H99V438H79V418Z" fill="#D9D9D9" stroke="#D9D9D9"/>
<path d="M99 418H119V438H99V418Z" fill="#D9D9D9" stroke="#D9D9D9"/>
<path d="M79 398H99V418H79V398Z" fill="#D9D9D9" stroke="#D9D9D9"/>
<path d="M99 458H119V478H99V458Z" fill="#D9D9D9" stroke="#D9D9D9"/>
<path d="M119 458H139V478H119V458Z" fill="#D9D9D9" stroke="#D9D9D9"/>
<path d="M139 478H159V498H139V478Z" fill="#D9D9D9" stroke="#D9D9D9"/>
<path d="M159 478H179V498H159V478Z" fill="#D9D9D9" stroke="#D9D9D9"/>
<path d="M179 478H199V498H179V478Z" fill="#D9D9D9" stroke="#D9D9D9"/>
<path d="M199 478H219V498H199V478Z" fill="#D9D9D9" stroke="#D9D9D9"/>
<path d="M139 478H159V498H139V478Z" fill="#D9D9D9" stroke="#D9D9D9"/>
<path d="M199 478H219V498H199V478Z" fill="#D9D9D9" stroke="#D9D9D9"/>
<path d="M239 478H259V498H239V478Z" fill="#D9D9D9" stroke="#D9D9D9"/>
<path d="M259 478H279V498H259V478Z" fill="#D9D9D9" stroke="#D9D9D9"/>
<path d="M219 478H239V498H219V478Z" fill="#D9D9D9" stroke="#D9D9D9"/>
<path d="M279 478H299V498H279V478Z" fill="#D9D9D9" stroke="#D9D9D9"/>
<path d="M279 498H299V518H279V498Z" fill="#D9D9D9" stroke="#D9D9D9"/>
<path d="M219 498H239V518H219V498Z" fill="#D9D9D9" stroke="#D9D9D9"/>
<path d="M239 498H259V518H239V498Z" fill="#D9D9D9" stroke="#D9D9D9"/>
<path d="M199 498H219V518H199V498Z" fill="#D9D9D9" stroke="#D9D9D9"/>
<path d="M259 498H279V518H259V498Z" fill="#D9D9D9" stroke="#D9D9D9"/>
<path d="M179 498H199V518H179V498Z" fill="#D9D9D9" stroke="#D9D9D9"/>
<path d="M299 498H319V518H299V498Z" fill="#D9D9D9" stroke="#D9D9D9"/>
<path d="M319 498H339V518H319V498Z" fill="#D9D9D9" stroke="#D9D9D9"/>
<path d="M339 498H359V518H339V498Z" fill="#D9D9D9" stroke="#D9D9D9"/>
<path d="M319 478H339V498H319V478Z" fill="#D9D9D9" stroke="#D9D9D9"/>
<path d="M299 478H319V498H299V478Z" fill="#D9D9D9" stroke="#D9D9D9"/>
<path d="M339 478H359V498H339V478Z" fill="#D9D9D9" stroke="#D9D9D9"/>
<path d="M159 459H179V479H159V459Z" fill="#D9D9D9" stroke="#D9D9D9"/>
<path d="M179 459H199V479H179V459Z" fill="#D9D9D9" stroke="#D9D9D9"/>
<path d="M139 459H159V479H139V459Z" fill="#D9D9D9" stroke="#D9D9D9"/>
<path d="M199 459H219V479H199V459Z" fill="#D9D9D9" stroke="#D9D9D9"/>
<path d="M239 459H259V479H239V459Z" fill="#D9D9D9" stroke="#D9D9D9"/>
<path d="M259 459H279V479H259V459Z" fill="#D9D9D9" stroke="#D9D9D9"/>
<path d="M219 459H239V479H219V459Z" fill="#D9D9D9" stroke="#D9D9D9"/>
<path d="M279 459H299V479H279V459Z" fill="#D9D9D9" stroke="#D9D9D9"/>
<path d="M319 459H339V479H319V459Z" fill="#D9D9D9" stroke="#D9D9D9"/>
<path d="M299 459H319V479H299V459Z" fill="#D9D9D9" stroke="#D9D9D9"/>
<path d="M339 459H359V479H339V459Z" fill="#D9D9D9" stroke="#D9D9D9"/>
<path d="M159 439H179V459H159V439Z" fill="#D9D9D9" stroke="#D9D9D9"/>
<path d="M179 439H199V459H179V439Z" fill="#D9D9D9" stroke="#D9D9D9"/>
<path d="M139 439H159V459H139V439Z" fill="#D9D9D9" stroke="#D9D9D9"/>
<path d="M199 439H219V459H199V439Z" fill="#D9D9D9" stroke="#D9D9D9"/>
<path d="M239 439H259V459H239V439Z" fill="#D9D9D9" stroke="#D9D9D9"/>
<path d="M259 439H279V459H259V439Z" fill="#D9D9D9" stroke="#D9D9D9"/>
<path d="M219 439H239V459H219V439Z" fill="#D9D9D9" stroke="#D9D9D9"/>
<path d="M279 439H299V459H279V439Z" fill="#D9D9D9" stroke="#D9D9D9"/>
<path d="M319 439H339V459H319V439Z" fill="#D9D9D9" stroke="#D9D9D9"/>
<path d="M299 439H319V459H299V439Z" fill="#D9D9D9" stroke="#D9D9D9"/>
<path d="M339 439H359V459H339V439Z" fill="#D9D9D9" stroke="#D9D9D9"/>
<path d="M159 418H179V438H159V418Z" fill="#D9D9D9" stroke="#D9D9D9"/>
<path d="M179 418H199V438H179V418Z" fill="#D9D9D9" stroke="#D9D9D9"/>
<path d="M139 418H159V438H139V418Z" fill="#D9D9D9" stroke="#D9D9D9"/>
<path d="M199 418H219V438H199V418Z" fill="#D9D9D9" stroke="#D9D9D9"/>
<path d="M239 418H259V438H239V418Z" fill="#D9D9D9" stroke="#D9D9D9"/>
<path d="M259 418H279V438H259V418Z" fill="#D9D9D9" stroke="#D9D9D9"/>
<path d="M219 418H239V438H219V418Z" fill="#D9D9D9" stroke="#D9D9D9"/>
<path d="M319 418H339V438H319V418Z" fill="#D9D9D9" stroke="#D9D9D9"/>
<path d="M299 418H319V438H299V418Z" fill="#D9D9D9" stroke="#D9D9D9"/>
<path d="M339 418H359V438H339V418Z" fill="#D9D9D9" stroke="#D9D9D9"/>
<path d="M319 398H339V418H319V398Z" fill="#D9D9D9" stroke="#D9D9D9"/>
<path d="M299 398H319V418H299V398Z" fill="#D9D9D9" stroke="#D9D9D9"/>
<path d="M339 398H359V418H339V398Z" fill="#D9D9D9" stroke="#D9D9D9"/>
<path d="M299 378H319V398H299V378Z" fill="#D9D9D9" stroke="#D9D9D9"/>
<path d="M279 378H299V398H279V378Z" fill="#D9D9D9" stroke="#D9D9D9"/>
<path d="M319 378H339V398H319V378Z" fill="#D9D9D9" stroke="#D9D9D9"/>
<path d="M299 357H319V377H299V357Z" fill="#D9D9D9" stroke="#D9D9D9"/>
<path d="M279 357H299V377H279V357Z" fill="#D9D9D9" stroke="#D9D9D9"/>
<path d="M319 357H339V377H319V357Z" fill="#D9D9D9" stroke="#D9D9D9"/>
<path d="M239 357H259V377H239V357Z" fill="#D9D9D9" stroke="#D9D9D9"/>
<path d="M219 357H239V377H219V357Z" fill="#D9D9D9" stroke="#D9D9D9"/>
<path d="M259 357H279V377H259V357Z" fill="#D9D9D9" stroke="#D9D9D9"/>
<path d="M359 478H379V498H359V478Z" fill="#D9D9D9" stroke="#D9D9D9"/>
<path d="M359 458H379V478H359V458Z" fill="#D9D9D9" stroke="#D9D9D9"/>
<path d="M359 439H379V459H359V439Z" fill="#D9D9D9" stroke="#D9D9D9"/>
<path d="M359 418H379V438H359V418Z" fill="#D9D9D9" stroke="#D9D9D9"/>
<path d="M119 438H139V458H119V438Z" fill="#D9D9D9" stroke="#D9D9D9"/>
<path d="M119 418H139V438H119V418Z" fill="#D9D9D9" stroke="#D9D9D9"/>
<path d="M159 398H179V418H159V398Z" fill="#D9D9D9" stroke="#D9D9D9"/>
<path d="M179 398H199V418H179V398Z" fill="#D9D9D9" stroke="#D9D9D9"/>
<path d="M139 398H159V418H139V398Z" fill="#D9D9D9" stroke="#D9D9D9"/>
<path d="M199 398H219V418H199V398Z" fill="#D9D9D9" stroke="#D9D9D9"/>
<path d="M219 398H239V418H219V398Z" fill="#D9D9D9" stroke="#D9D9D9"/>
<path d="M119 398H139V418H119V398Z" fill="#D9D9D9" stroke="#D9D9D9"/>
<path d="M159 377H179V397H159V377Z" fill="#D9D9D9" stroke="#D9D9D9"/>
<path d="M179 377H199V397H179V377Z" fill="#D9D9D9" stroke="#D9D9D9"/>
<path d="M139 377H159V397H139V377Z" fill="#D9D9D9" stroke="#D9D9D9"/>
<path d="M199 377H219V397H199V377Z" fill="#D9D9D9" stroke="#D9D9D9"/>
<path d="M219 377H239V397H219V377Z" fill="#D9D9D9" stroke="#D9D9D9"/>
<path d="M119 377H139V397H119V377Z" fill="#D9D9D9" stroke="#D9D9D9"/>
<path d="M159 357H179V377H159V357Z" fill="#D9D9D9" stroke="#D9D9D9"/>
<path d="M179 357H199V377H179V357Z" fill="#D9D9D9" stroke="#D9D9D9"/>
<path d="M139 357H159V377H139V357Z" fill="#D9D9D9" stroke="#D9D9D9"/>
<path d="M199 357H219V377H199V357Z" fill="#D9D9D9" stroke="#D9D9D9"/>
<path d="M119 357H139V377H119V357Z" fill="#D9D9D9" stroke="#D9D9D9"/>
<path d="M99 378H119V398H99V378Z" fill="#D9D9D9" stroke="#D9D9D9"/>
<path d="M99 439H119V459H99V439Z" fill="#D9D9D9" stroke="#D9D9D9"/>
<path d="M99 398H119V418H99V398Z" fill="#D9D9D9" stroke="#D9D9D9"/>
<path d="M119 337H139V357H119V337Z" fill="#D9D9D9" stroke="#D9D9D9"/>
<path d="M199 337H219V357H199V337Z" fill="#D9D9D9" stroke="#D9D9D9"/>
<path d="M219 337H239V357H219V337Z" fill="#D9D9D9" stroke="#D9D9D9"/>
<path d="M179 337H199V357H179V337Z" fill="#D9D9D9" stroke="#D9D9D9"/>
<path d="M239 337H259V357H239V337Z" fill="#D9D9D9" stroke="#D9D9D9"/>
<path d="M279 337H299V357H279V337Z" fill="#D9D9D9" stroke="#D9D9D9"/>
<path d="M299 337H319V357H299V337Z" fill="#D9D9D9" stroke="#D9D9D9"/>
<path d="M259 337H279V357H259V337Z" fill="#D9D9D9" stroke="#D9D9D9"/>
<path d="M159 337H179V357H159V337Z" fill="#D9D9D9" stroke="#D9D9D9"/>
<path d="M139 337H159V357H139V337Z" fill="#D9D9D9" stroke="#D9D9D9"/>
<path d="M99 357H119V377H99V357Z" fill="#D9D9D9" stroke="#D9D9D9"/>
</svg>
