<svg width="437" height="676" viewBox="0 0 437 676" fill="none" xmlns="http://www.w3.org/2000/svg">
<path d="M259 218H279V238H259V218Z" fill="#D9D9D9"/>
<path d="M259 218H279V238H259V218Z" fill="#D9D9D9"/>
<path d="M259 218H279V238H259V218Z" fill="#D9D9D9"/>
<path d="M179 238H199V258H179V238Z" fill="#D9D9D9"/>
<path d="M299 258H319V278H299V258Z" fill="#D9D9D9"/>
<path d="M299 338H319V358H299V338Z" fill="#D9D9D9"/>
<path d="M179 278H199V298H179V278Z" fill="#D9D9D9"/>
<path d="M239 218H259V238H239V218Z" fill="white"/>
<path d="M239 218H259V238H239V218Z" fill="white"/>
<path d="M239 218H259V238H239V218Z" fill="white"/>
<path d="M239 218H259V238H239V218Z" fill="#EDEDED"/>
<path d="M239 218H259V238H239V218Z" stroke="#EDEDED"/>
<path d="M239 238H259V258H239V238Z" fill="white"/>
<path d="M239 238H259V258H239V238Z" fill="white"/>
<path d="M239 238H259V258H239V238Z" fill="white"/>
<path d="M239 238H259V258H239V238Z" fill="#EDEDED"/>
<path d="M239 238H259V258H239V238Z" stroke="#EDEDED"/>
<path d="M259 258H279V278H259V258Z" fill="white"/>
<path d="M259 258H279V278H259V258Z" fill="white"/>
<path d="M259 258H279V278H259V258Z" fill="white"/>
<path d="M259 258H279V278H259V258Z" fill="#EDEDED"/>
<path d="M259 258H279V278H259V258Z" stroke="#EDEDED"/>
<path d="M259 238H279V258H259V238Z" fill="white"/>
<path d="M259 238H279V258H259V238Z" fill="white"/>
<path d="M259 238H279V258H259V238Z" fill="white"/>
<path d="M259 238H279V258H259V238Z" fill="#EDEDED"/>
<path d="M259 238H279V258H259V238Z" stroke="#EDEDED"/>
<path d="M279 258H299V278H279V258Z" fill="white"/>
<path d="M279 258H299V278H279V258Z" fill="white"/>
<path d="M279 258H299V278H279V258Z" fill="white"/>
<path d="M279 258H299V278H279V258Z" fill="#EDEDED"/>
<path d="M279 258H299V278H279V258Z" stroke="#EDEDED"/>
<path d="M279 278H299V298H279V278Z" fill="white"/>
<path d="M279 278H299V298H279V278Z" fill="white"/>
<path d="M279 278H299V298H279V278Z" fill="white"/>
<path d="M279 278H299V298H279V278Z" fill="#EDEDED"/>
<path d="M279 278H299V298H279V278Z" stroke="#EDEDED"/>
<path d="M259 278H279V298H259V278Z" fill="white"/>
<path d="M259 278H279V298H259V278Z" fill="white"/>
<path d="M259 278H279V298H259V278Z" fill="white"/>
<path d="M259 278H279V298H259V278Z" fill="#EDEDED"/>
<path d="M259 278H279V298H259V278Z" stroke="#EDEDED"/>
<path d="M239 258H259V278H239V258Z" fill="white"/>
<path d="M239 258H259V278H239V258Z" fill="white"/>
<path d="M239 258H259V278H239V258Z" fill="white"/>
<path d="M239 258H259V278H239V258Z" fill="#EDEDED"/>
<path d="M239 258H259V278H239V258Z" stroke="#EDEDED"/>
<path d="M219 238H239V258H219V238Z" fill="white"/>
<path d="M219 238H239V258H219V238Z" fill="white"/>
<path d="M219 238H239V258H219V238Z" fill="white"/>
<path d="M219 238H239V258H219V238Z" fill="#EDEDED"/>
<path d="M219 238H239V258H219V238Z" stroke="#EDEDED"/>
<path d="M219 218H239V238H219V218Z" fill="white"/>
<path d="M219 218H239V238H219V218Z" fill="white"/>
<path d="M219 218H239V238H219V218Z" fill="white"/>
<path d="M219 218H239V238H219V218Z" fill="#EDEDED"/>
<path d="M219 218H239V238H219V218Z" stroke="#EDEDED"/>
<path d="M159 318H179V338H159V318Z" fill="#D9D9D9"/>
<path d="M119 238H139V258H119V238Z" fill="#949494" stroke="#949494"/>
<path d="M99 258H119V278H99V258Z" fill="#949494"/>
<path d="M119 258H139V278H119V258Z" fill="#D9D9D9"/>
<path d="M99 258H119V278H99V258Z" fill="#949494" stroke="#949494"/>
<path d="M99 318H119V338H99V318Z" fill="#949494" stroke="#949494"/>
<path d="M99 338H119V358H99V338Z" fill="#949494" stroke="#949494"/>
<path d="M99 358H119V378H99V358Z" fill="#949494" stroke="#949494"/>
<path d="M199 418H219V438H199V418Z" fill="#949494" stroke="#949494"/>
<path d="M259 418H279V438H259V418Z" fill="#949494" stroke="#949494"/>
<path d="M239 418H259V438H239V418Z" fill="#949494" stroke="#949494"/>
<path d="M219 418H239V438H219V418Z" fill="#949494" stroke="#949494"/>
<path d="M179 398H199V418H179V398Z" fill="#949494" stroke="#949494"/>
<path d="M179 418H199V438H179V418Z" fill="#949494" stroke="#949494"/>
<path d="M159 398H179V418H159V398Z" fill="#949494" stroke="#949494"/>
<path d="M159 418H179V438H159V418Z" fill="#949494" stroke="#949494"/>
<path d="M139 378H159V398H139V378Z" fill="#949494" stroke="#949494"/>
<path d="M139 398H159V418H139V398Z" fill="#949494" stroke="#949494"/>
<path d="M119 358H139V378H119V358Z" fill="#949494" stroke="#949494"/>
<path d="M119 378H139V398H119V378Z" fill="#949494" stroke="#949494"/>
<path d="M119 338H139V358H119V338Z" fill="#949494" stroke="#949494"/>
<path d="M99 298H119V318H99V298Z" fill="#949494" stroke="#949494"/>
<path d="M99 278H119V298H99V278Z" fill="#949494" stroke="#949494"/>
<path d="M179 258H199V278H179V258Z" fill="#D9D9D9"/>
<path d="M219 258H239V278H219V258Z" fill="#D9D9D9"/>
<path d="M219 278H239V298H219V278Z" fill="#D9D9D9"/>
<path d="M219 318H239V338H219V318Z" fill="#D9D9D9"/>
<path d="M219 298H239V318H219V298Z" fill="#D9D9D9"/>
<path d="M219 258H239V278H219V258Z" fill="#D9D9D9"/>
<path d="M219 278H239V298H219V278Z" fill="#D9D9D9"/>
<path d="M219 318H239V338H219V318Z" fill="#D9D9D9"/>
<path d="M219 298H239V318H219V298Z" fill="#D9D9D9"/>
<path d="M139 218H159V238H139V218Z" fill="#D9D9D9"/>
<path d="M179 198H199V218H179V198Z" fill="#D9D9D9"/>
<path d="M179 218H199V238H179V218Z" fill="#D9D9D9"/>
<path d="M199 198H219V218H199V198Z" fill="#D9D9D9"/>
<path d="M239 198H259V218H239V198Z" fill="#D9D9D9"/>
<path d="M259 198H279V218H259V198Z" fill="#D9D9D9"/>
<path d="M259 218H279V238H259V218Z" fill="#D9D9D9"/>
<path d="M279 218H299V238H279V218Z" fill="#D9D9D9"/>
<path d="M279 238H299V258H279V238Z" fill="#D9D9D9"/>
<path d="M299 238H319V258H299V238Z" fill="#D9D9D9"/>
<path d="M299 298H319V318H299V298Z" fill="#D9D9D9"/>
<path d="M299 278H319V298H299V278Z" fill="#D9D9D9"/>
<path d="M299 318H319V338H299V318Z" fill="#D9D9D9"/>
<path d="M299 358H319V378H299V358Z" fill="#D9D9D9"/>
<path d="M299 258H319V278H299V258Z" fill="#D9D9D9"/>
<path d="M299 338H319V358H299V338Z" fill="#D9D9D9"/>
<path d="M319 298H339V318H319V298Z" fill="#D9D9D9"/>
<path d="M319 278H339V298H319V278Z" fill="#D9D9D9"/>
<path d="M319 318H339V338H319V318Z" fill="#D9D9D9"/>
<path d="M319 258H339V278H319V258Z" fill="#D9D9D9"/>
<path d="M319 338H339V358H319V338Z" fill="#D9D9D9"/>
<path d="M279 318H299V338H279V318Z" fill="#D9D9D9"/>
<path d="M279 298H299V318H279V298Z" fill="#D9D9D9"/>
<path d="M279 338H299V358H279V338Z" fill="#D9D9D9"/>
<path d="M279 378H299V398H279V378Z" fill="#D9D9D9"/>
<path d="M259 398H279V418H259V398Z" fill="#D9D9D9"/>
<path d="M319 358H339V378H319V358Z" fill="#D9D9D9"/>
<path d="M299 378H319V398H299V378Z" fill="#D9D9D9"/>
<path d="M279 398H299V418H279V398Z" fill="#D9D9D9"/>
<path d="M159 378H179V398H159V378Z" fill="#D9D9D9"/>
<path d="M199 398H219V418H199V398Z" fill="#D9D9D9"/>
<path d="M159 338H179V358H159V338Z" fill="#D9D9D9"/>
<path d="M139 338H159V358H139V338Z" fill="#D9D9D9"/>
<path d="M159 318H179V338H159V318Z" fill="#D9D9D9"/>
<path d="M139 298H159V318H139V298Z" fill="#D9D9D9"/>
<path d="M139 278H159V298H139V278Z" fill="#D9D9D9"/>
<path d="M159 278H179V298H159V278Z" fill="#D9D9D9"/>
<path d="M139 258H159V278H139V258Z" fill="#D9D9D9"/>
<path d="M159 258H179V278H159V258Z" fill="#D9D9D9"/>
<path d="M139 238H159V258H139V238Z" fill="#D9D9D9"/>
<path d="M159 298H179V318H159V298Z" fill="#D9D9D9"/>
<path d="M159 238H179V258H159V238Z" fill="#D9D9D9"/>
<path d="M119 258H139V278H119V258Z" fill="#D9D9D9"/>
<path d="M119 318H139V338H119V318Z" fill="#D9D9D9"/>
<path d="M119 298H139V318H119V298Z" fill="#D9D9D9"/>
<path d="M119 278H139V298H119V278Z" fill="#D9D9D9"/>
<path d="M139 318H159V338H139V318Z" fill="#D9D9D9"/>
<path d="M159 358H179V378H159V358Z" fill="#D9D9D9"/>
<path d="M139 358H159V378H139V358Z" fill="#D9D9D9"/>
<path d="M179 358H199V378H179V358Z" fill="#D9D9D9"/>
<path d="M179 378H199V398H179V378Z" fill="#D9D9D9"/>
<path d="M199 378H219V398H199V378Z" fill="#D9D9D9"/>
<path d="M219 398H239V418H219V398Z" fill="#D9D9D9"/>
<path d="M239 398H259V418H239V398Z" fill="#D9D9D9"/>
<path d="M279 358H299V378H279V358Z" fill="#D9D9D9"/>
<path d="M179 238H199V258H179V238Z" fill="#D9D9D9"/>
<path d="M179 278H199V298H179V278Z" fill="#D9D9D9"/>
<path d="M179 258H199V278H179V258Z" fill="#D9D9D9"/>
<path d="M179 298H199V318H179V298Z" fill="#D9D9D9"/>
<path d="M179 338H199V358H179V338Z" fill="#D9D9D9"/>
<path d="M179 318H199V338H179V318Z" fill="#D9D9D9"/>
<path d="M199 238H219V258H199V238Z" fill="#D9D9D9"/>
<path d="M199 258H219V278H199V258Z" fill="#D9D9D9"/>
<path d="M199 298H219V318H199V298Z" fill="#D9D9D9"/>
<path d="M199 278H219V298H199V278Z" fill="#D9D9D9"/>
<path d="M199 318H219V338H199V318Z" fill="#D9D9D9"/>
<path d="M199 358H219V378H199V358Z" fill="#D9D9D9"/>
<path d="M199 338H219V358H199V338Z" fill="#D9D9D9"/>
<path d="M219 258H239V278H219V258Z" fill="#D9D9D9"/>
<path d="M219 278H239V298H219V278Z" fill="#D9D9D9"/>
<path d="M219 318H239V338H219V318Z" fill="#D9D9D9"/>
<path d="M219 298H239V318H219V298Z" fill="#D9D9D9"/>
<path d="M219 338H239V358H219V338Z" fill="#D9D9D9"/>
<path d="M219 378H239V398H219V378Z" fill="#D9D9D9"/>
<path d="M219 358H239V378H219V358Z" fill="#D9D9D9"/>
<path d="M239 278H259V298H239V278Z" fill="#D9D9D9"/>
<path d="M239 298H259V318H239V298Z" fill="#D9D9D9"/>
<path d="M239 338H259V358H239V338Z" fill="#D9D9D9"/>
<path d="M239 318H259V338H239V318Z" fill="#D9D9D9"/>
<path d="M239 378H259V398H239V378Z" fill="#D9D9D9"/>
<path d="M239 358H259V378H239V358Z" fill="#D9D9D9"/>
<path d="M259 298H279V318H259V298Z" fill="#D9D9D9"/>
<path d="M259 318H279V338H259V318Z" fill="#D9D9D9"/>
<path d="M259 358H279V378H259V358Z" fill="#D9D9D9"/>
<path d="M259 378H279V398H259V378Z" fill="#D9D9D9"/>
<path d="M259 338H279V358H259V338Z" fill="#D9D9D9"/>
<path d="M199 218H219V238H199V218Z" fill="#D9D9D9"/>
<path d="M219 198H239V218H219V198Z" fill="#D9D9D9"/>
<path d="M159 198H179V218H159V198Z" fill="#D9D9D9"/>
<path d="M159 218H179V238H159V218Z" fill="#D9D9D9"/>
<path d="M159 218H139V238M159 218V238M159 218H179M159 218V198H179M159 238H139M159 238V258M159 238H179M139 238V258M179 198H199M179 198V218M199 198V218M199 198H219M199 218H179M199 218V238M199 218H219M179 218V238M199 238H179M199 238V258M199 238H219M179 238V258M219 198V218M219 198H239M219 218V238M219 218H239M239 198H259M239 198V218M259 198V218M259 198H279V218M259 218H239M259 218H279M259 218V238H279M279 218V238M279 218H299V238M279 238H299M279 238V258H299M299 238V258M299 238H319V258M299 258H319M299 258V278M319 258V278M319 258H339V278M299 298H319M299 298V318M299 298V278M299 298H279M319 298V318M319 298V278M319 298H339M319 318H299M319 318V338M319 318H339M299 318V338M299 318H279M299 278H319M319 278H339M319 338H299M319 338V358M319 338H339M299 338V358M299 338H279M299 358H319M299 358V378M299 358H279M319 358V378M319 358H339M319 378H299M319 378H339V358M319 378V398H299M299 378H279M299 378V398M339 298V318M339 298V278M339 318V338M339 338V358M279 318V338M279 318V298M279 318H259M279 338V358M279 338H259M279 298H259M279 358V378M279 358H259M279 378V398M279 378H259M299 398H279M299 398V418H279M279 398H259M279 398V418M259 398V418M259 398H239M259 398V378M279 418H259M259 418H239M159 378H179M159 378V398H179M159 378V358M159 378H139V358M179 378V398M179 378V358M179 378H199M179 398H199M199 398H219M199 398V418H219M199 398V378M219 398V418M219 398V378M219 398H239M219 418H239M159 338H179M159 338V358M159 338H139M159 338V318M179 338V358M179 338V318M179 338H199M179 358H159M179 358H199M159 358H139M139 338V358M139 338V318M139 338H119V318M159 318H179M159 318V298M159 318H139M179 318V298M179 318H199M139 298H159M139 298V318M139 298V278M139 298H119M159 298V278M159 298H179M139 318H119M139 278H159M139 278V258M139 278H119M159 278H179M159 278V258M179 278V298M179 278V258M179 278H199M179 298H199M139 258H159M139 258H119V278M159 258H179M179 258H199M119 278V298M119 318V298M199 358V378M199 358V338M199 358H219M199 378H219M219 378V358M219 378H239M239 398V418M239 398V378M199 258V278M199 258H219M199 278V298M199 278H219M199 298V318M199 298H219M199 318V338M199 318H219M199 338H219M219 238V258M219 258V278M219 258H239V278M219 278V298M219 278H239M219 298V318M219 298H239M219 318V338M219 318H239M219 338V358M219 338H239M219 358H239M239 278V298M239 278H259V298M239 298V318M239 298H259M239 318V338M239 318H259M239 338V358M239 338H259M239 358V378M239 358H259M239 378H259M259 298V318M259 318V338M259 338V358M259 358V378" stroke="#D9D9D9"/>
</svg>
