<svg width="437" height="676" viewBox="0 0 437 676" fill="none" xmlns="http://www.w3.org/2000/svg">
<path d="M59 438H79V458H59V438Z" fill="#949494"/>
<path d="M59 458H79V478H59V458Z" fill="#949494"/>
<path d="M79 478H99V498H79V478Z" fill="#949494"/>
<path d="M199 518H219V538H199V518Z" fill="#949494"/>
<path d="M259 518H299V538H259V518Z" fill="#949494"/>
<path d="M299 518H319V538H299V518Z" fill="#949494"/>
<path d="M259 518H279V538H259V518Z" fill="#949494"/>
<path d="M239 518H259V538H239V518Z" fill="#949494"/>
<path d="M219 518H239V538H219V518Z" fill="#949494"/>
<path d="M99 458H119V478H99V458Z" fill="#949494"/>
<path d="M179 518H199V538H179V518Z" fill="#949494"/>
<path d="M159 498H179V518H159V498Z" fill="#949494"/>
<path d="M159 518H179V538H159V518Z" fill="#949494"/>
<path d="M139 518H159V538H139V518Z" fill="#949494"/>
<path d="M119 518H139V538H119V518Z" fill="#949494"/>
<path d="M119 498H139V518H119V498Z" fill="#949494"/>
<path d="M99 498H119V518H99V498Z" fill="#949494"/>
<path d="M99 478H119V498H99V478Z" fill="#949494"/>
<path d="M79 498H99V518H79V498Z" fill="#949494"/>
<path d="M59 478H79V498H59V478Z" fill="#949494"/>
<path d="M139 498H159V518H139V498Z" fill="#949494"/>
<path d="M119 478H139V498H119V478Z" fill="#949494"/>
<path d="M79 458H99V478H79V458Z" fill="#949494"/>
<path d="M79 438H99V458H79V438Z" fill="#949494"/>
<path d="M59 418H79V438H59V418Z" fill="#949494"/>
<path d="M59 438H79M59 438V458M59 438V418H79V438M79 438V458M79 438H99V458M79 458H59M79 458V478M79 458H99M59 458V478M79 478H59M79 478H99M79 478V498M59 478V498H79M99 478V498M99 478H119M99 478V458M99 498H79M99 498H119M99 498V518M79 498V518H99M199 518H219M199 518V538M199 518H179M219 518V538M219 518H239M219 538H199M219 538H239M199 538H179M259 518H299M259 518V538M259 518H279V538H259M259 518H239M299 518V538M299 518H319V538H299M299 538H259M259 538H239M239 518V538M99 458H119V478M119 478V498M119 478H139V498M179 518V538M179 518V498H159M179 518H159M179 538H159M159 498V518M159 498H139M159 518V538M159 518H139M159 538H139M139 518V538M139 518H119M139 518V498M139 538H119V518M119 518V498M119 518H99M119 498H139" stroke="#949494" stroke-width="5"/>
<path d="M279 418H299V438H279V418Z" fill="#EDEDED"/>
<path d="M279 398H299V418H279V398Z" fill="#EDEDED"/>
<path d="M259 398H279V418H259V398Z" fill="#EDEDED"/>
<path d="M259 378H279V398H259V378Z" fill="#EDEDED"/>
<path d="M239 378H259V398H239V378Z" fill="#EDEDED"/>
<path d="M239 398H259V418H239V398Z" fill="#EDEDED"/>
<path d="M279 418H299M279 418V438H299V418M279 418V398M279 418H259M299 418V398H279M279 398H259M279 398V378H259M259 398V418M259 398V378M259 398H239M259 418H239V398M259 378H239V398" stroke="#EDEDED" stroke-width="5"/>
<path d="M79 418H99V438H79V418Z" fill="#D9D9D9"/>
<path d="M99 418H119V438H99V418Z" fill="#D9D9D9"/>
<path d="M79 398H99V418H79V398Z" fill="#D9D9D9"/>
<path d="M99 459H119V478H99V459Z" fill="#D9D9D9"/>
<path d="M119 459H139V478H119V459Z" fill="#D9D9D9"/>
<path d="M159 478H179V498H159V478Z" fill="#D9D9D9"/>
<path d="M179 478H199V498H179V478Z" fill="#D9D9D9"/>
<path d="M139 478H159V498H139V478Z" fill="#D9D9D9"/>
<path d="M199 478H219V498H199V478Z" fill="#D9D9D9"/>
<path d="M219 478H239V498H219V478Z" fill="#D9D9D9"/>
<path d="M279 498H299V518H279V498Z" fill="#D9D9D9"/>
<path d="M219 498H239V518H219V498Z" fill="#D9D9D9"/>
<path d="M239 498H259V518H239V498Z" fill="#D9D9D9"/>
<path d="M199 498H219V518H199V498Z" fill="#D9D9D9"/>
<path d="M259 498H279V518H259V498Z" fill="#D9D9D9"/>
<path d="M179 498H199V518H179V498Z" fill="#D9D9D9"/>
<path d="M299 498H319V518H299V498Z" fill="#D9D9D9"/>
<path d="M319 498H339V518H319V498Z" fill="#D9D9D9"/>
<path d="M339 498H359V518H339V498Z" fill="#D9D9D9"/>
<path d="M339 478H359V498H339V478Z" fill="#D9D9D9"/>
<path d="M159 459H179V478H159V459Z" fill="#D9D9D9"/>
<path d="M179 459H199V478H179V459Z" fill="#D9D9D9"/>
<path d="M139 459H159V478H139V459Z" fill="#D9D9D9"/>
<path d="M199 459H219V478H199V459Z" fill="#D9D9D9"/>
<path d="M219 459H239V478H219V459Z" fill="#D9D9D9"/>
<path d="M339 459H359V478H339V459Z" fill="#D9D9D9"/>
<path d="M159 438H179V459H159V438Z" fill="#D9D9D9"/>
<path d="M179 438H199V459H179V438Z" fill="#D9D9D9"/>
<path d="M139 438H159V459H139V438Z" fill="#D9D9D9"/>
<path d="M199 438H219V459H199V438Z" fill="#D9D9D9"/>
<path d="M219 438H239V459H219V438Z" fill="#D9D9D9"/>
<path d="M339 438H359V459H339V438Z" fill="#D9D9D9"/>
<path d="M159 418H179V438H159V418Z" fill="#D9D9D9"/>
<path d="M179 418H199V438H179V418Z" fill="#D9D9D9"/>
<path d="M139 418H159V438H139V418Z" fill="#D9D9D9"/>
<path d="M199 418H219V438H199V418Z" fill="#D9D9D9"/>
<path d="M219 418H239V438H219V418Z" fill="#D9D9D9"/>
<path d="M239 478H259V498H239V478Z" fill="#D9D9D9"/>
<path d="M319 478H339V498H319V478Z" fill="#D9D9D9"/>
<path d="M239 459H259V478H239V459Z" fill="#D9D9D9"/>
<path d="M319 459H339V478H319V459Z" fill="#D9D9D9"/>
<path d="M259 478H279V498H259V478Z" fill="#D9D9D9"/>
<path d="M279 478H299V498H279V478Z" fill="#D9D9D9"/>
<path d="M299 478H319V498H299V478Z" fill="#D9D9D9"/>
<path d="M259 459H279V478H259V459Z" fill="#D9D9D9"/>
<path d="M279 459H299V478H279V459Z" fill="#D9D9D9"/>
<path d="M299 459H319V478H299V459Z" fill="#D9D9D9"/>
<path d="M239 438H259V459H239V438Z" fill="#D9D9D9"/>
<path d="M259 438H279V459H259V438Z" fill="#D9D9D9"/>
<path d="M279 438H299V459H279V438Z" fill="#D9D9D9"/>
<path d="M319 438H339V459H319V438Z" fill="#D9D9D9"/>
<path d="M299 438H319V459H299V438Z" fill="#D9D9D9"/>
<path d="M239 418H259V438H239V418Z" fill="#D9D9D9"/>
<path d="M259 418H279V438H259V418Z" fill="#D9D9D9"/>
<path d="M319 418H339V438H319V418Z" fill="#D9D9D9"/>
<path d="M299 418H319V438H299V418Z" fill="#D9D9D9"/>
<path d="M339 418H359V438H339V418Z" fill="#D9D9D9"/>
<path d="M319 398H339V418H319V398Z" fill="#D9D9D9"/>
<path d="M299 398H319V418H299V398Z" fill="#D9D9D9"/>
<path d="M339 398H359V418H339V398Z" fill="#D9D9D9"/>
<path d="M299 377H319V398H299V377Z" fill="#D9D9D9"/>
<path d="M279 377H299V398H279V377Z" fill="#D9D9D9"/>
<path d="M319 377H339V398H319V377Z" fill="#D9D9D9"/>
<path d="M299 357H319V377H299V357Z" fill="#D9D9D9"/>
<path d="M279 357H299V377H279V357Z" fill="#D9D9D9"/>
<path d="M319 357H339V377H319V357Z" fill="#D9D9D9"/>
<path d="M239 357H259V377H239V357Z" fill="#D9D9D9"/>
<path d="M219 357H239V377H219V357Z" fill="#D9D9D9"/>
<path d="M259 357H279V377H259V357Z" fill="#D9D9D9"/>
<path d="M359 478H379V498H359V478Z" fill="#D9D9D9"/>
<path d="M359 459H379V478H359V459Z" fill="#D9D9D9"/>
<path d="M359 438H379V459H359V438Z" fill="#D9D9D9"/>
<path d="M359 418H379V438H359V418Z" fill="#D9D9D9"/>
<path d="M119 438H139V459H119V438Z" fill="#D9D9D9"/>
<path d="M119 418H139V438H119V418Z" fill="#D9D9D9"/>
<path d="M159 398H179V418H159V398Z" fill="#D9D9D9"/>
<path d="M179 398H199V418H179V398Z" fill="#D9D9D9"/>
<path d="M139 398H159V418H139V398Z" fill="#D9D9D9"/>
<path d="M199 398H219V418H199V398Z" fill="#D9D9D9"/>
<path d="M219 398H239V418H219V398Z" fill="#D9D9D9"/>
<path d="M119 398H139V418H119V398Z" fill="#D9D9D9"/>
<path d="M159 377H179V398H159V377Z" fill="#D9D9D9"/>
<path d="M179 377H199V398H179V377Z" fill="#D9D9D9"/>
<path d="M139 377H159V398H139V377Z" fill="#D9D9D9"/>
<path d="M199 377H219V398H199V377Z" fill="#D9D9D9"/>
<path d="M219 377H239V398H219V377Z" fill="#D9D9D9"/>
<path d="M119 377H139V398H119V377Z" fill="#D9D9D9"/>
<path d="M159 357H179V377H159V357Z" fill="#D9D9D9"/>
<path d="M179 357H199V377H179V357Z" fill="#D9D9D9"/>
<path d="M139 357H159V377H139V357Z" fill="#D9D9D9"/>
<path d="M199 357H219V377H199V357Z" fill="#D9D9D9"/>
<path d="M119 357H139V377H119V357Z" fill="#D9D9D9"/>
<path d="M99 377H119V398H99V377Z" fill="#D9D9D9"/>
<path d="M99 438H119V459H99V438Z" fill="#D9D9D9"/>
<path d="M99 398H119V418H99V398Z" fill="#D9D9D9"/>
<path d="M119 337H139V357H119V337Z" fill="#D9D9D9"/>
<path d="M199 337H219V357H199V337Z" fill="#D9D9D9"/>
<path d="M219 337H239V357H219V337Z" fill="#D9D9D9"/>
<path d="M179 337H199V357H179V337Z" fill="#D9D9D9"/>
<path d="M239 337H259V357H239V337Z" fill="#D9D9D9"/>
<path d="M279 337H299V357H279V337Z" fill="#D9D9D9"/>
<path d="M299 337H319V357H299V337Z" fill="#D9D9D9"/>
<path d="M259 337H279V357H259V337Z" fill="#D9D9D9"/>
<path d="M159 337H179V357H159V337Z" fill="#D9D9D9"/>
<path d="M139 337H159V357H139V337Z" fill="#D9D9D9"/>
<path d="M99 357H119V377H99V357Z" fill="#D9D9D9"/>
<path d="M79 418H99M79 418V438H99M79 418V398H99M99 418V438M99 418H119M99 418V398M99 438H119M99 438V459M119 418V438M119 418H139M119 418V398M119 438H139M119 438V459M99 398H119M99 398V377M99 459H119M99 459V478H119M119 459V478M119 459H139M119 478H139M139 459V478M139 459H159M139 459V438M139 478H159M139 478V498H159M159 478H179M159 478V498M159 478V459M179 478V498M179 478H199M179 478V459M179 498H159M179 498H199M179 498V518H199M199 478V498M199 478H219M199 478V459M199 498H219M199 498V518M219 478V498M219 478H239M219 478V459M219 498H239M219 498V518M239 478V498M239 478V459M239 478H259M239 498V518M239 498H259M279 498H299M279 498V518M279 498H259M279 498V478M299 498V518M299 498H319M299 498V478M299 518H279M299 518H319M279 518H259M239 518H219M239 518H259M219 518H199M259 498V518M259 498V478M319 498V518M319 498H339M319 498V478M319 518H339M339 498V518M339 498H359M339 498V478M339 518H359V498M359 498V478M359 498H379V478M339 478H359M339 478V459M339 478H319M359 478V459M359 478H379M159 459H179M159 459V438M179 459H199M179 459V438M199 459H219M199 459V438M219 459H239M219 459V438M239 459V438M239 459H259M339 459H359M339 459V438M339 459H319M359 459V438M359 459H379M159 438H179M159 438H139M159 438V418M179 438H199M179 438V418M199 438H219M199 438V418M139 438V418M219 438H239M219 438V418M239 438V418M239 438H259M339 438H359M339 438H319M339 438V418M359 438V418M359 438H379M159 418H179M159 418H139M159 418V398M179 418H199M179 418V398M199 418H219M199 418V398M139 418V398M219 418H239M219 418V398M239 418H259M239 418V398M259 478V459M259 478H279M319 478V459M319 478H299M259 459H279M259 459V438M319 459H299M319 459V438M279 478H299M279 478V459M299 478V459M279 459H299M279 459V438M299 459V438M259 438H279M259 438V418M279 438H299M279 438V418H259M299 438H319M299 438V418M319 438V418M319 418H339M319 418H299M319 418V398M339 418H359M339 418V398M299 418V398M359 418V398H339M359 418H379V438M319 398H339M319 398H299M319 398V377M339 398V377M299 398V377M299 398H279V377M299 377H319M299 377H279M299 377V357M319 377H339M319 377V357M279 377V357M279 377H259M339 377V357H319M299 357H319M299 357H279M299 357V337M319 357V337H299M279 357H259M279 357V337M239 357H259M239 357V377M239 357H219M239 357V337M259 357V377M259 357V337M259 377H239M239 377H219M239 377V398M219 357V377M219 357H199M219 357V337M219 377H199M219 377V398M379 478V459M379 459V438M159 398H179M159 398H139M159 398V377M179 398H199M179 398V377M199 398H219M199 398V377M139 398H119M139 398V377M219 398H239M119 398V377M159 377H179M159 377H139M159 377V357M179 377H199M179 377V357M199 377V357M139 377H119M139 377V357M119 377V357M119 377H99M159 357H179M159 357H139M159 357V337M179 357H199M179 357V337M199 357V337M139 357H119M139 357V337M119 357V337H139M119 357H99V377M139 337H159M199 337H219M199 337H179M219 337H239M239 337H259M179 337H159M259 337H279M279 337H299" stroke="#D9D9D9" stroke-width="5"/>
</svg>
