<svg width="437" height="676" viewBox="0 0 437 676" fill="none" xmlns="http://www.w3.org/2000/svg">
<path d="M374.824 459H394.549V478H374.824V459Z" fill="#EDEDED"/>
<path d="M356.084 439H374.824V459H356.084V439Z" fill="#EDEDED"/>
<path d="M316.634 419H336.359V439H316.634V419Z" fill="#EDEDED"/>
<path d="M296.908 399H316.634V419H296.908V399Z" fill="#EDEDED"/>
<path d="M316.634 399H336.359V419H316.634V399Z" fill="#EDEDED"/>
<path d="M336.359 439H356.084V459H336.359V439Z" fill="#EDEDED"/>
<path d="M336.359 419H356.084V439H336.359V419Z" fill="#EDEDED"/>
<path d="M316.634 439H336.359V459H316.634V439Z" fill="#EDEDED"/>
<path d="M374.824 439H394.549V459H374.824V439Z" fill="#EDEDED"/>
<path d="M356.084 459H374.824V478H356.084V459Z" fill="#EDEDED"/>
<path d="M374.824 459H394.549M374.824 459V478M374.824 459V439M374.824 459H356.084M394.549 459V478H374.824M394.549 459V439H374.824M374.824 478H356.084V459M356.084 439H374.824M356.084 439V459M356.084 439H336.359M356.084 439V419H336.359M356.084 459H336.359M316.634 419H336.359M316.634 419V439M316.634 419V399M316.634 419H296.908V399H316.634M336.359 419V439M336.359 419V399H316.634M336.359 439H316.634M336.359 439V459M316.634 439V459H336.359" stroke="#EDEDED" stroke-width="5"/>
<path d="M219.928 519H240.343V539H219.928V519Z" fill="#949494"/>
<path d="M200.485 519H219.928V539H200.485V519Z" fill="#949494"/>
<path d="M240.343 519H279.228V539H240.343V519Z" fill="#949494"/>
<path d="M279.228 519H298.671V539H279.228V519Z" fill="#949494"/>
<path d="M240.343 519H259.786V539H240.343V519Z" fill="#949494"/>
<path d="M181.042 519H200.485V539H181.042V519Z" fill="#949494"/>
<path d="M161.599 519H181.042V539H161.599V519Z" fill="#949494"/>
<path d="M64.3844 459H83.8273V480H64.3844V459Z" fill="#949494"/>
<path d="M44.9415 459H64.3844V480H44.9415V459Z" fill="#949494"/>
<path d="M25.4986 459H44.9415V480H25.4986V459Z" fill="#949494"/>
<path d="M25.4986 438H44.9415V459H25.4986V438Z" fill="#949494"/>
<path d="M25.4986 418.5H44.9415V438H25.4986V418.5Z" fill="#949494"/>
<path d="M142.156 500H161.599V519H142.156V500Z" fill="#949494"/>
<path d="M142.156 519H161.599V539H142.156V519Z" fill="#949494"/>
<path d="M122.713 519H142.156V539H122.713V519Z" fill="#949494"/>
<path d="M103.27 519H122.713V539H103.27V519Z" fill="#949494"/>
<path d="M83.8273 519H103.27V539H83.8273V519Z" fill="#949494"/>
<path d="M25.4986 480H44.9415V500H25.4986V480Z" fill="#949494"/>
<path d="M8 459H25.4986V480H8V459Z" fill="#949494"/>
<path d="M8 438H25.4986V459H8V438Z" fill="#949494"/>
<path d="M103.27 500H122.713V519H103.27V500Z" fill="#949494"/>
<path d="M83.8273 500H103.27V519H83.8273V500Z" fill="#949494"/>
<path d="M44.9415 500H64.3844V519H44.9415V500Z" fill="#949494"/>
<path d="M64.3844 500H83.8273V519H64.3844V500Z" fill="#949494"/>
<path d="M122.713 500H142.156V519H122.713V500Z" fill="#949494"/>
<path d="M64.3844 480H83.8273V500H64.3844V480Z" fill="#949494"/>
<path d="M83.8273 480H103.27V500H83.8273V480Z" fill="#949494"/>
<path d="M44.9415 480H64.3844V500H44.9415V480Z" fill="#949494"/>
<path d="M103.27 480H122.713V500H103.27V480Z" fill="#949494"/>
<path d="M44.9415 399H64.3844V418.5H44.9415V399Z" fill="#949494"/>
<path d="M318.114 519H337.557V539H318.114V519Z" fill="#949494"/>
<path d="M337.557 519H357V539H337.557V519Z" fill="#949494"/>
<path d="M298.671 519H318.114V539H298.671V519Z" fill="#949494"/>
<path d="M219.928 519H240.343M219.928 519V539M219.928 519H200.485M240.343 519V539M240.343 519H279.228M240.343 519H259.786V539H240.343M240.343 539H219.928M240.343 539H279.228M219.928 539H200.485M200.485 519V539M200.485 519H181.042M200.485 539H181.042M279.228 519V539M279.228 519H298.671M279.228 539H298.671M298.671 519V539M298.671 519H318.114M298.671 539H318.114M181.042 519V539M181.042 519H161.599M181.042 539H161.599M161.599 519V539M161.599 519V500H142.156M161.599 519H142.156M161.599 539H142.156M64.3844 459H83.8273V480M64.3844 459V480M64.3844 459H44.9415M83.8273 480H64.3844M83.8273 480V500M83.8273 480H103.27M64.3844 480H44.9415M64.3844 480V500M44.9415 459V480M44.9415 459H25.4986M44.9415 459V438M44.9415 480H25.4986M44.9415 480V500M25.4986 459V480M25.4986 459V438M25.4986 459H8M25.4986 480V500H44.9415M25.4986 480H8V459M25.4986 438H44.9415M25.4986 438V418.5H44.9415M25.4986 438H8V459M44.9415 438V418.5M44.9415 418.5H64.3844V399H44.9415V418.5ZM142.156 500V519M142.156 500H122.713M142.156 519V539M142.156 519H122.713M142.156 539H122.713M122.713 519V539M122.713 519H103.27M122.713 519V500M122.713 539H103.27M103.27 519V539M103.27 519H83.8273M103.27 519V500M103.27 539H83.8273V519M83.8273 519V500M83.8273 519H64.3844M44.9415 500H64.3844M44.9415 500V519H64.3844M103.27 500H122.713M103.27 500H83.8273M103.27 500V480M122.713 500V480H103.27M83.8273 500H64.3844M64.3844 500V519M318.114 519H337.557M318.114 519V539M337.557 519V539M337.557 519H357V539H337.557M337.557 539H318.114" stroke="#949494" stroke-width="5"/>
<path d="M99.0816 419H118.605V439H99.0816V419Z" fill="#D9D9D9"/>
<path d="M118.605 419H138.128V439H118.605V419Z" fill="#D9D9D9"/>
<path d="M99.0816 399H118.605V419H99.0816V399Z" fill="#D9D9D9"/>
<path d="M41 439H61.0113V460H41V439Z" fill="#D9D9D9"/>
<path d="M41 419H61.0113V439H41V419Z" fill="#D9D9D9"/>
<path d="M118.605 460H138.128V479H118.605V460Z" fill="#D9D9D9"/>
<path d="M138.128 460H157.651V479H138.128V460Z" fill="#D9D9D9"/>
<path d="M118.605 479H138.128V499H118.605V479Z" fill="#D9D9D9"/>
<path d="M79.5583 460H99.0816V479H79.5583V460Z" fill="#D9D9D9"/>
<path d="M99.0816 460H118.605V479H99.0816V460Z" fill="#D9D9D9"/>
<path d="M79.5583 439H99.0816V460H79.5583V439Z" fill="#D9D9D9"/>
<path d="M61.0113 439H79.5583V460H61.0113V439Z" fill="#D9D9D9"/>
<path d="M61.0113 419H79.5583V439H61.0113V419Z" fill="#D9D9D9"/>
<path d="M61.0113 399H79.5583V419H61.0113V399Z" fill="#D9D9D9"/>
<path d="M79.5583 399H99.0816V419H79.5583V399Z" fill="#D9D9D9"/>
<path d="M61.0113 379H79.5583V399H61.0113V379Z" fill="#D9D9D9"/>
<path d="M79.5583 379H99.0816V399H79.5583V379Z" fill="#D9D9D9"/>
<path d="M79.5583 419H99.0816V439H79.5583V419Z" fill="#D9D9D9"/>
<path d="M99.0816 439H118.605V460H99.0816V439Z" fill="#D9D9D9"/>
<path d="M138.128 479H157.651V499H138.128V479Z" fill="#D9D9D9"/>
<path d="M177.174 479H196.698V499H177.174V479Z" fill="#D9D9D9"/>
<path d="M196.698 479H217.197V499H196.698V479Z" fill="#D9D9D9"/>
<path d="M157.651 479H177.174V499H157.651V479Z" fill="#D9D9D9"/>
<path d="M217.197 479H236.72V499H217.197V479Z" fill="#D9D9D9"/>
<path d="M236.72 479H256.243V499H236.72V479Z" fill="#D9D9D9"/>
<path d="M256.243 479H275.767V499H256.243V479Z" fill="#D9D9D9"/>
<path d="M196.698 499H217.197V519H196.698V499Z" fill="#D9D9D9"/>
<path d="M177.174 499H196.698V519H177.174V499Z" fill="#D9D9D9"/>
<path d="M157.651 499H177.174V519H157.651V499Z" fill="#D9D9D9"/>
<path d="M373.383 479H392.906V499H373.383V479Z" fill="#D9D9D9"/>
<path d="M353.859 479H373.383V499H353.859V479Z" fill="#D9D9D9"/>
<path d="M392.906 459H412.429V479H392.906V459Z" fill="#D9D9D9"/>
<path d="M392.906 479H412.429V499H392.906V479Z" fill="#D9D9D9"/>
<path d="M373.383 499H392.906V519H373.383V499Z" fill="#D9D9D9"/>
<path d="M392.906 438H412.429V459H392.906V438Z" fill="#D9D9D9"/>
<path d="M412.429 459H430V479H412.429V459Z" fill="#D9D9D9"/>
<path d="M412.429 438H430V459H412.429V438Z" fill="#D9D9D9"/>
<path d="M392.906 418H412.429V438H392.906V418Z" fill="#D9D9D9"/>
<path d="M373.383 418H392.906V438H373.383V418Z" fill="#D9D9D9"/>
<path d="M353.859 399H373.383V418H353.859V399Z" fill="#D9D9D9"/>
<path d="M335.312 399H353.859V418H335.312V399Z" fill="#D9D9D9"/>
<path d="M353.859 418H373.383V438H353.859V418Z" fill="#D9D9D9"/>
<path d="M295.29 379H315.789V399H295.29V379Z" fill="#D9D9D9"/>
<path d="M275.767 379H295.29V399H275.767V379Z" fill="#D9D9D9"/>
<path d="M353.859 379H373.383V399H353.859V379Z" fill="#D9D9D9"/>
<path d="M335.312 379H353.859V399H335.312V379Z" fill="#D9D9D9"/>
<path d="M315.789 379H335.312V399H315.789V379Z" fill="#D9D9D9"/>
<path d="M295.29 479H314.813V499H295.29V479Z" fill="#D9D9D9"/>
<path d="M275.767 479H295.29V499H275.767V479Z" fill="#D9D9D9"/>
<path d="M314.813 479H334.336V499H314.813V479Z" fill="#D9D9D9"/>
<path d="M177.174 460H196.698V479H177.174V460Z" fill="#D9D9D9"/>
<path d="M196.698 460H217.197V479H196.698V460Z" fill="#D9D9D9"/>
<path d="M157.651 460H177.174V479H157.651V460Z" fill="#D9D9D9"/>
<path d="M217.197 460H236.72V479H217.197V460Z" fill="#D9D9D9"/>
<path d="M236.72 460H256.243V479H236.72V460Z" fill="#D9D9D9"/>
<path d="M256.243 460H275.767V479H256.243V460Z" fill="#D9D9D9"/>
<path d="M295.29 460H314.813V479H295.29V460Z" fill="#D9D9D9"/>
<path d="M275.767 460H295.29V479H275.767V460Z" fill="#D9D9D9"/>
<path d="M314.813 460H334.336V479H314.813V460Z" fill="#D9D9D9"/>
<path d="M177.174 439H196.698V460H177.174V439Z" fill="#D9D9D9"/>
<path d="M196.698 439H217.197V460H196.698V439Z" fill="#D9D9D9"/>
<path d="M157.651 439H177.174V460H157.651V439Z" fill="#D9D9D9"/>
<path d="M217.197 439H236.72V460H217.197V439Z" fill="#D9D9D9"/>
<path d="M236.72 439H256.243V460H236.72V439Z" fill="#D9D9D9"/>
<path d="M256.243 439H275.767V460H256.243V439Z" fill="#D9D9D9"/>
<path d="M275.767 439H295.29V460H275.767V439Z" fill="#D9D9D9"/>
<path d="M177.174 419H196.698V439H177.174V419Z" fill="#D9D9D9"/>
<path d="M196.698 419H217.197V439H196.698V419Z" fill="#D9D9D9"/>
<path d="M157.651 419H177.174V439H157.651V419Z" fill="#D9D9D9"/>
<path d="M217.197 419H236.72V439H217.197V419Z" fill="#D9D9D9"/>
<path d="M236.72 419H256.243V439H236.72V419Z" fill="#D9D9D9"/>
<path d="M275.767 419H295.29V439H275.767V419Z" fill="#D9D9D9"/>
<path d="M256.243 379H275.767V399H256.243V379Z" fill="#D9D9D9"/>
<path d="M217.197 379H236.72V399H217.197V379Z" fill="#D9D9D9"/>
<path d="M236.72 379H256.243V399H236.72V379Z" fill="#D9D9D9"/>
<path d="M256.243 419H275.767V439H256.243V419Z" fill="#D9D9D9"/>
<path d="M217.197 399H236.72V419H217.197V399Z" fill="#D9D9D9"/>
<path d="M236.72 399H256.243V419H236.72V399Z" fill="#D9D9D9"/>
<path d="M256.243 399H275.767V419H256.243V399Z" fill="#D9D9D9"/>
<path d="M334.336 460H353.859V479H334.336V460Z" fill="#D9D9D9"/>
<path d="M295.29 439H314.813V460H295.29V439Z" fill="#D9D9D9"/>
<path d="M295.29 419H314.813V439H295.29V419Z" fill="#D9D9D9"/>
<path d="M275.767 399H295.29V419H275.767V399Z" fill="#D9D9D9"/>
<path d="M334.336 479H353.859V499H334.336V479Z" fill="#D9D9D9"/>
<path d="M138.128 439H157.651V460H138.128V439Z" fill="#D9D9D9"/>
<path d="M138.128 419H157.651V439H138.128V419Z" fill="#D9D9D9"/>
<path d="M177.174 399H196.698V419H177.174V399Z" fill="#D9D9D9"/>
<path d="M196.698 399H217.197V419H196.698V399Z" fill="#D9D9D9"/>
<path d="M157.651 399H177.174V419H157.651V399Z" fill="#D9D9D9"/>
<path d="M138.128 399H157.651V419H138.128V399Z" fill="#D9D9D9"/>
<path d="M177.174 379H196.698V399H177.174V379Z" fill="#D9D9D9"/>
<path d="M196.698 379H217.197V399H196.698V379Z" fill="#D9D9D9"/>
<path d="M157.651 379H177.174V399H157.651V379Z" fill="#D9D9D9"/>
<path d="M138.128 379H157.651V399H138.128V379Z" fill="#D9D9D9"/>
<path d="M99.0816 379H118.605V399H99.0816V379Z" fill="#D9D9D9"/>
<path d="M118.605 379H138.128V399H118.605V379Z" fill="#D9D9D9"/>
<path d="M118.605 439H138.128V460H118.605V439Z" fill="#D9D9D9"/>
<path d="M118.605 399H138.128V419H118.605V399Z" fill="#D9D9D9"/>
<path d="M373.383 399H392.906V418H373.383V399Z" fill="#D9D9D9"/>
<path d="M256.243 499H275.767V519H256.243V499Z" fill="#D9D9D9"/>
<path d="M217.197 499H236.72V519H217.197V499Z" fill="#D9D9D9"/>
<path d="M236.72 499H256.243V519H236.72V499Z" fill="#D9D9D9"/>
<path d="M353.859 499H373.383V519H353.859V499Z" fill="#D9D9D9"/>
<path d="M334.336 499H353.859V519H334.336V499Z" fill="#D9D9D9"/>
<path d="M275.767 499H295.29V519H275.767V499Z" fill="#D9D9D9"/>
<path d="M295.29 499H314.813V519H295.29V499Z" fill="#D9D9D9"/>
<path d="M314.813 499H334.336V519H314.813V499Z" fill="#D9D9D9"/>
<path d="M99.0816 419H118.605M99.0816 419V439M99.0816 419V399M99.0816 419H79.5583M118.605 419V439M118.605 419H138.128M118.605 419V399M118.605 439H99.0816M118.605 439H138.128M118.605 439V460M99.0816 439H79.5583M99.0816 439V460M138.128 419V439M138.128 419H157.651M138.128 419V399M138.128 439H157.651M138.128 439V460M99.0816 399H118.605M99.0816 399H79.5583M99.0816 399V379M118.605 399V379M118.605 399H138.128M41 439H61.0113M41 439V460H61.0113M41 439V419H61.0113M61.0113 439V460M61.0113 439V419M61.0113 439H79.5583M61.0113 460H79.5583M61.0113 419H79.5583M61.0113 419V399M118.605 460H138.128M118.605 460V479M118.605 460H99.0816M138.128 460V479M138.128 460H157.651M138.128 479H118.605M138.128 479H157.651M138.128 479V499M118.605 479V499H138.128M118.605 479H99.0816M157.651 460V479M157.651 460H177.174M157.651 460V439M157.651 479V499M157.651 479H177.174M138.128 499H157.651M79.5583 460H99.0816M79.5583 460V479H99.0816M79.5583 460V439M99.0816 460V479M79.5583 439V419M79.5583 419V399M61.0113 399H79.5583M61.0113 399V379H79.5583M79.5583 399V379M79.5583 379H99.0816M99.0816 379H118.605M157.651 499H177.174M157.651 499V519H177.174M177.174 479H196.698M177.174 479V499M177.174 479V460M196.698 479V499M196.698 479H217.197M196.698 479V460M196.698 499H177.174M196.698 499H217.197M196.698 499V519M177.174 499V519M217.197 479V499M217.197 479H236.72M217.197 479V460M217.197 499H236.72M217.197 499V519M236.72 479V499M236.72 479H256.243M236.72 479V460M236.72 499H256.243M236.72 499V519M256.243 479V499M256.243 479H275.767M256.243 479V460M256.243 499H275.767M256.243 499V519M275.767 479V499M275.767 479H295.29M275.767 479V460M275.767 499H295.29M275.767 499V519M217.197 519H196.698M217.197 519H236.72M196.698 519H177.174M373.383 479H392.906M373.383 479V499M373.383 479H353.859M392.906 479V499M392.906 479H412.429M392.906 479V459M392.906 499H373.383M392.906 499H412.429V479M392.906 499V519H373.383M373.383 499H353.859M373.383 499V519M353.859 479V499M353.859 479V460H334.336M353.859 479H334.336M353.859 499H334.336M353.859 499V519M392.906 459H412.429M392.906 459V438M412.429 459V479M412.429 459V438M412.429 459H430M412.429 479H430V459M373.383 519H353.859M392.906 438H412.429M392.906 438V418M392.906 438H373.383M412.429 438H430V459M412.429 438V418H392.906M392.906 418H373.383M392.906 418V399H373.383M373.383 418V438M373.383 418V399M373.383 418H353.859M373.383 438H353.859V418M353.859 399H373.383M353.859 399V418M353.859 399H335.312M353.859 399V379M373.383 399V379H353.859M353.859 418H335.312V399M335.312 399V379M335.312 399H315.789M295.29 379H315.789M295.29 379V399M295.29 379H275.767M315.789 379V399M315.789 379H335.312M315.789 399H295.29M295.29 399H275.767M295.29 399V419M275.767 379V399M275.767 379H256.243M275.767 399H256.243M275.767 399V419M353.859 379H335.312M295.29 479H314.813M295.29 479V499M295.29 479V460M314.813 479V499M314.813 479H334.336M314.813 479V460M314.813 499H295.29M314.813 499H334.336M314.813 499V519M295.29 499V519M334.336 479V499M334.336 479V460M334.336 499V519M177.174 460H196.698M177.174 460V439M196.698 460H217.197M196.698 460V439M217.197 460H236.72M217.197 460V439M236.72 460H256.243M236.72 460V439M256.243 460H275.767M256.243 460V439M275.767 460H295.29M275.767 460V439M295.29 460H314.813M295.29 460V439M314.813 460H334.336M314.813 460V439M177.174 439H196.698M177.174 439H157.651M177.174 439V419M196.698 439H217.197M196.698 439V419M217.197 439H236.72M217.197 439V419M157.651 439V419M236.72 439H256.243M236.72 439V419M256.243 439H275.767M256.243 439V419M275.767 439H295.29M275.767 439V419M295.29 439V419M295.29 439H314.813M177.174 419H196.698M177.174 419H157.651M177.174 419V399M196.698 419H217.197M196.698 419V399M217.197 419H236.72M217.197 419V399M157.651 419V399M236.72 419H256.243M236.72 419V399M256.243 419H275.767M256.243 419V399M275.767 419H295.29M295.29 419H314.813V439M256.243 379V399M256.243 379H236.72M256.243 399H236.72M217.197 379H236.72M217.197 379V399M217.197 379H196.698M236.72 379V399M236.72 399H217.197M217.197 399H196.698M177.174 399H196.698M177.174 399H157.651M177.174 399V379M196.698 399V379M157.651 399H138.128M157.651 399V379M138.128 399V379M177.174 379H196.698M177.174 379H157.651M157.651 379H138.128M138.128 379H118.605M275.767 519H256.243M275.767 519H295.29M256.243 519H236.72M353.859 519H334.336M334.336 519H314.813M295.29 519H314.813" stroke="#D9D9D9" stroke-width="5"/>
</svg>
