<svg width="437" height="676" viewBox="0 0 437 676" fill="none" xmlns="http://www.w3.org/2000/svg">
<path d="M239 158H259V178H239V158Z" fill="#EDEDED"/>
<path d="M239 178H259V198H239V178Z" fill="#EDEDED"/>
<path d="M259 198H279V218H259V198Z" fill="#EDEDED"/>
<path d="M259 178H279V198H259V178Z" fill="#EDEDED"/>
<path d="M279 198H299V218H279V198Z" fill="#EDEDED"/>
<path d="M279 218H299V238H279V218Z" fill="#EDEDED"/>
<path d="M259 218H279V238H259V218Z" fill="#EDEDED"/>
<path d="M239 198H259V218H239V198Z" fill="#EDEDED"/>
<path d="M219 178H239V198H219V178Z" fill="#EDEDED"/>
<path d="M219 158H239V178H219V158Z" fill="#EDEDED"/>
<path d="M239 158H259V178M239 158V178M239 158H219V178M259 178H239M259 178V198M259 178H279V198M239 178V198M239 178H219M259 198H239M259 198H279M259 198V218M239 198V218H259M239 198H219V178M279 198V218M279 198H299V218M279 218H259M279 218H299M279 218V238M259 218V238H279M299 218V238H279" stroke="#EDEDED" stroke-width="5"/>
<path d="M119 178H139V198H119V178Z" fill="#949494"/>
<path d="M99 198H119V218H99V198Z" fill="#949494"/>
<path d="M99 258H119V278H99V258Z" fill="#949494"/>
<path d="M99 278H119V298H99V278Z" fill="#949494"/>
<path d="M99 298H119V318H99V298Z" fill="#949494"/>
<path d="M199 358H219V378H199V358Z" fill="#949494"/>
<path d="M259 358H279V378H259V358Z" fill="#949494"/>
<path d="M239 358H259V378H239V358Z" fill="#949494"/>
<path d="M219 358H239V378H219V358Z" fill="#949494"/>
<path d="M179 338H199V358H179V338Z" fill="#949494"/>
<path d="M179 358H199V378H179V358Z" fill="#949494"/>
<path d="M159 338H179V358H159V338Z" fill="#949494"/>
<path d="M159 358H179V378H159V358Z" fill="#949494"/>
<path d="M139 318H159V338H139V318Z" fill="#949494"/>
<path d="M139 338H159V358H139V338Z" fill="#949494"/>
<path d="M119 298H139V318H119V298Z" fill="#949494"/>
<path d="M119 318H139V338H119V318Z" fill="#949494"/>
<path d="M119 278H139V298H119V278Z" fill="#949494"/>
<path d="M99 238H119V258H99V238Z" fill="#949494"/>
<path d="M99 218H119V238H99V218Z" fill="#949494"/>
<path d="M119 198H139V178H119V198ZM119 198H99V218M119 198V218M119 218H99M119 218V238M99 218V238M99 258H119M99 258V278M99 258V238M119 258V278M119 258V238M119 278H99M119 278V298M119 278H139V298M99 278V298M119 298H99M119 298V318M119 298H139M99 298V318H119M119 318H139M119 318V338H139M199 358H219M199 358V378M199 358V338H179M199 358H179M219 358V378M219 358H239M219 378H199M219 378H239M199 378H179M259 358H279V378H259M259 358V378M259 358H239M259 378H239M239 358V378M179 338V358M179 338H159M179 358V378M179 358H159M179 378H159V358M159 338V358M159 338V318H139M159 338H139M159 358H139V338M139 318V338M139 318V298M99 238H119" stroke="#949494" stroke-width="5"/>
<path d="M139 158H159V178H139V158Z" fill="#D9D9D9"/>
<path d="M179 138H199V158H179V138Z" fill="#D9D9D9"/>
<path d="M179 158H199V178H179V158Z" fill="#D9D9D9"/>
<path d="M199 138H219V158H199V138Z" fill="#D9D9D9"/>
<path d="M239 138H259V158H239V138Z" fill="#D9D9D9"/>
<path d="M259 138H279V158H259V138Z" fill="#D9D9D9"/>
<path d="M259 158H279V178H259V158Z" fill="#D9D9D9"/>
<path d="M279 158H299V178H279V158Z" fill="#D9D9D9"/>
<path d="M279 178H299V198H279V178Z" fill="#D9D9D9"/>
<path d="M299 178H319V198H299V178Z" fill="#D9D9D9"/>
<path d="M299 238H319V258H299V238Z" fill="#D9D9D9"/>
<path d="M299 218H319V238H299V218Z" fill="#D9D9D9"/>
<path d="M299 258H319V278H299V258Z" fill="#D9D9D9"/>
<path d="M299 298H319V318H299V298Z" fill="#D9D9D9"/>
<path d="M299 198H319V218H299V198Z" fill="#D9D9D9"/>
<path d="M299 278H319V298H299V278Z" fill="#D9D9D9"/>
<path d="M319 238H339V258H319V238Z" fill="#D9D9D9"/>
<path d="M319 218H339V238H319V218Z" fill="#D9D9D9"/>
<path d="M319 258H339V278H319V258Z" fill="#D9D9D9"/>
<path d="M319 198H339V218H319V198Z" fill="#D9D9D9"/>
<path d="M319 278H339V298H319V278Z" fill="#D9D9D9"/>
<path d="M279 258H299V278H279V258Z" fill="#D9D9D9"/>
<path d="M279 238H299V258H279V238Z" fill="#D9D9D9"/>
<path d="M279 278H299V298H279V278Z" fill="#D9D9D9"/>
<path d="M279 318H299V338H279V318Z" fill="#D9D9D9"/>
<path d="M259 338H279V358H259V338Z" fill="#D9D9D9"/>
<path d="M319 298H339V318H319V298Z" fill="#D9D9D9"/>
<path d="M299 318H319V338H299V318Z" fill="#D9D9D9"/>
<path d="M279 338H299V358H279V338Z" fill="#D9D9D9"/>
<path d="M159 318H179V338H159V318Z" fill="#D9D9D9"/>
<path d="M199 338H219V358H199V338Z" fill="#D9D9D9"/>
<path d="M159 278H179V298H159V278Z" fill="#D9D9D9"/>
<path d="M139 278H159V298H139V278Z" fill="#D9D9D9"/>
<path d="M159 258H179V278H159V258Z" fill="#D9D9D9"/>
<path d="M139 238H159V258H139V238Z" fill="#D9D9D9"/>
<path d="M139 218H159V238H139V218Z" fill="#D9D9D9"/>
<path d="M159 218H179V238H159V218Z" fill="#D9D9D9"/>
<path d="M139 198H159V218H139V198Z" fill="#D9D9D9"/>
<path d="M159 198H179V218H159V198Z" fill="#D9D9D9"/>
<path d="M139 178H159V198H139V178Z" fill="#D9D9D9"/>
<path d="M159 238H179V258H159V238Z" fill="#D9D9D9"/>
<path d="M159 178H179V198H159V178Z" fill="#D9D9D9"/>
<path d="M119 198H139V218H119V198Z" fill="#D9D9D9"/>
<path d="M119 258H139V278H119V258Z" fill="#D9D9D9"/>
<path d="M119 238H139V258H119V238Z" fill="#D9D9D9"/>
<path d="M119 218H139V238H119V218Z" fill="#D9D9D9"/>
<path d="M139 258H159V278H139V258Z" fill="#D9D9D9"/>
<path d="M159 298H179V318H159V298Z" fill="#D9D9D9"/>
<path d="M139 298H159V318H139V298Z" fill="#D9D9D9"/>
<path d="M179 298H199V318H179V298Z" fill="#D9D9D9"/>
<path d="M179 318H199V338H179V318Z" fill="#D9D9D9"/>
<path d="M199 318H219V338H199V318Z" fill="#D9D9D9"/>
<path d="M219 338H239V358H219V338Z" fill="#D9D9D9"/>
<path d="M239 338H259V358H239V338Z" fill="#D9D9D9"/>
<path d="M279 298H299V318H279V298Z" fill="#D9D9D9"/>
<path d="M179 178H199V198H179V178Z" fill="#D9D9D9"/>
<path d="M179 218H199V238H179V218Z" fill="#D9D9D9"/>
<path d="M179 198H199V218H179V198Z" fill="#D9D9D9"/>
<path d="M179 238H199V258H179V238Z" fill="#D9D9D9"/>
<path d="M179 278H199V298H179V278Z" fill="#D9D9D9"/>
<path d="M179 258H199V278H179V258Z" fill="#D9D9D9"/>
<path d="M199 178H219V198H199V178Z" fill="#D9D9D9"/>
<path d="M199 198H219V218H199V198Z" fill="#D9D9D9"/>
<path d="M199 238H219V258H199V238Z" fill="#D9D9D9"/>
<path d="M199 218H219V238H199V218Z" fill="#D9D9D9"/>
<path d="M199 258H219V278H199V258Z" fill="#D9D9D9"/>
<path d="M199 298H219V318H199V298Z" fill="#D9D9D9"/>
<path d="M199 278H219V298H199V278Z" fill="#D9D9D9"/>
<path d="M219 198H239V218H219V198Z" fill="#D9D9D9"/>
<path d="M219 218H239V238H219V218Z" fill="#D9D9D9"/>
<path d="M219 258H239V278H219V258Z" fill="#D9D9D9"/>
<path d="M219 238H239V258H219V238Z" fill="#D9D9D9"/>
<path d="M219 278H239V298H219V278Z" fill="#D9D9D9"/>
<path d="M219 318H239V338H219V318Z" fill="#D9D9D9"/>
<path d="M219 298H239V318H219V298Z" fill="#D9D9D9"/>
<path d="M239 218H259V238H239V218Z" fill="#D9D9D9"/>
<path d="M239 238H259V258H239V238Z" fill="#D9D9D9"/>
<path d="M239 278H259V298H239V278Z" fill="#D9D9D9"/>
<path d="M239 258H259V278H239V258Z" fill="#D9D9D9"/>
<path d="M239 318H259V338H239V318Z" fill="#D9D9D9"/>
<path d="M239 298H259V318H239V298Z" fill="#D9D9D9"/>
<path d="M259 238H279V258H259V238Z" fill="#D9D9D9"/>
<path d="M259 258H279V278H259V258Z" fill="#D9D9D9"/>
<path d="M259 298H279V318H259V298Z" fill="#D9D9D9"/>
<path d="M259 318H279V338H259V318Z" fill="#D9D9D9"/>
<path d="M259 278H279V298H259V278Z" fill="#D9D9D9"/>
<path d="M199 158H219V178H199V158Z" fill="#D9D9D9"/>
<path d="M219 138H239V158H219V138Z" fill="#D9D9D9"/>
<path d="M159 138H179V158H159V138Z" fill="#D9D9D9"/>
<path d="M159 158H179V178H159V158Z" fill="#D9D9D9"/>
<path d="M159 158H139V178M159 158V178M159 158H179M159 158V138H179M159 178H139M159 178V198M159 178H179M139 178V198M179 138H199M179 138V158M199 138V158M199 138H219M199 158H179M199 158V178M199 158H219M179 158V178M199 178H179M199 178V198M199 178H219M179 178V198M219 138V158M219 138H239M219 158V178M219 158H239M239 138H259M239 138V158M259 138V158M259 138H279V158M259 158H239M259 158H279M259 158V178H279M279 158V178M279 158H299V178M279 178H299M279 178V198H299M299 178V198M299 178H319V198M299 198H319M299 198V218M319 198V218M319 198H339V218M299 238H319M299 238V258M299 238V218M299 238H279M319 238V258M319 238V218M319 238H339M319 258H299M319 258V278M319 258H339M299 258V278M299 258H279M299 218H319M319 218H339M319 278H299M319 278V298M319 278H339M299 278V298M299 278H279M299 298H319M299 298V318M299 298H279M319 298V318M319 298H339M319 318H299M319 318H339V298M319 318V338H299M299 318H279M299 318V338M339 238V258M339 238V218M339 258V278M339 278V298M279 258V278M279 258V238M279 258H259M279 278V298M279 278H259M279 238H259M279 298V318M279 298H259M279 318V338M279 318H259M299 338H279M299 338V358H279M279 338H259M279 338V358M259 338V358M259 338H239M259 338V318M279 358H259M259 358H239M159 318H179M159 318V338H179M159 318V298M159 318H139V298M179 318V338M179 318V298M179 318H199M179 338H199M199 338H219M199 338V358H219M199 338V318M219 338V358M219 338V318M219 338H239M219 358H239M159 278H179M159 278V298M159 278H139M159 278V258M179 278V298M179 278V258M179 278H199M179 298H159M179 298H199M159 298H139M139 278V298M139 278V258M139 278H119V258M159 258H179M159 258V238M159 258H139M179 258V238M179 258H199M139 238H159M139 238V258M139 238V218M139 238H119M159 238V218M159 238H179M139 258H119M139 218H159M139 218V198M139 218H119M159 218H179M159 218V198M179 218V238M179 218V198M179 218H199M179 238H199M139 198H159M139 198H119V218M159 198H179M179 198H199M119 218V238M119 258V238M199 298V318M199 298V278M199 298H219M199 318H219M219 318V298M219 318H239M239 338V358M239 338V318M199 198V218M199 198H219M199 218V238M199 218H219M199 238V258M199 238H219M199 258V278M199 258H219M199 278H219M219 178V198M219 198V218M219 198H239V218M219 218V238M219 218H239M219 238V258M219 238H239M219 258V278M219 258H239M219 278V298M219 278H239M219 298H239M239 218V238M239 218H259V238M239 238V258M239 238H259M239 258V278M239 258H259M239 278V298M239 278H259M239 298V318M239 298H259M239 318H259M259 238V258M259 258V278M259 278V298M259 298V318" stroke="#D9D9D9" stroke-width="5"/>
</svg>
