<svg width="437" height="676" viewBox="0 0 437 676" fill="none" xmlns="http://www.w3.org/2000/svg">
<path d="M239 238H259V258H239V238Z" fill="#EDEDED"/>
<path d="M239 258H259V278H239V258Z" fill="#EDEDED"/>
<path d="M259 278H279V298H259V278Z" fill="#EDEDED"/>
<path d="M259 258H279V278H259V258Z" fill="#EDEDED"/>
<path d="M279 278H299V298H279V278Z" fill="#EDEDED"/>
<path d="M279 298H299V318H279V298Z" fill="#EDEDED"/>
<path d="M259 298H279V318H259V298Z" fill="#EDEDED"/>
<path d="M239 278H259V298H239V278Z" fill="#EDEDED"/>
<path d="M219 258H239V278H219V258Z" fill="#EDEDED"/>
<path d="M219 238H239V258H219V238Z" fill="#EDEDED"/>
<path d="M239 238H259V258M239 238V258M239 238H219V258M259 258H239M259 258V278M259 258H279V278M239 258V278M239 258H219M259 278H239M259 278H279M259 278V298M239 278V298H259M239 278H219V258M279 278V298M279 278H299V298M279 298H259M279 298H299M279 298V318M259 298V318H279M299 298V318H279" stroke="#EDEDED" stroke-width="5"/>
<path d="M119 258H139V278H119V258Z" fill="#949494"/>
<path d="M99 278H119V298H99V278Z" fill="#949494"/>
<path d="M99 338H119V358H99V338Z" fill="#949494"/>
<path d="M99 358H119V378H99V358Z" fill="#949494"/>
<path d="M99 378H119V398H99V378Z" fill="#949494"/>
<path d="M199 438H219V458H199V438Z" fill="#949494"/>
<path d="M259 438H279V458H259V438Z" fill="#949494"/>
<path d="M239 438H259V458H239V438Z" fill="#949494"/>
<path d="M219 438H239V458H219V438Z" fill="#949494"/>
<path d="M179 418H199V438H179V418Z" fill="#949494"/>
<path d="M179 438H199V458H179V438Z" fill="#949494"/>
<path d="M159 418H179V438H159V418Z" fill="#949494"/>
<path d="M159 438H179V458H159V438Z" fill="#949494"/>
<path d="M139 398H159V418H139V398Z" fill="#949494"/>
<path d="M139 418H159V438H139V418Z" fill="#949494"/>
<path d="M119 378H139V398H119V378Z" fill="#949494"/>
<path d="M119 398H139V418H119V398Z" fill="#949494"/>
<path d="M119 358H139V378H119V358Z" fill="#949494"/>
<path d="M99 318H119V338H99V318Z" fill="#949494"/>
<path d="M99 298H119V318H99V298Z" fill="#949494"/>
<path d="M119 278H139V258H119V278ZM119 278H99V298M119 278V298M119 298H99M119 298V318M99 298V318M99 338H119M99 338V358M99 338V318M119 338V358M119 338V318M119 358H99M119 358V378M119 358H139V378M99 358V378M119 378H99M119 378V398M119 378H139M99 378V398H119M119 398H139M119 398V418H139M199 438H219M199 438V458M199 438V418H179M199 438H179M219 438V458M219 438H239M219 458H199M219 458H239M199 458H179M259 438H279V458H259M259 438V458M259 438H239M259 458H239M239 438V458M179 418V438M179 418H159M179 438V458M179 438H159M179 458H159V438M159 418V438M159 418V398H139M159 418H139M159 438H139V418M139 398V418M139 398V378M99 318H119" stroke="#949494" stroke-width="5"/>
<path d="M139 238H159V258H139V238Z" fill="#D9D9D9"/>
<path d="M179 218H199V238H179V218Z" fill="#D9D9D9"/>
<path d="M179 238H199V258H179V238Z" fill="#D9D9D9"/>
<path d="M199 218H219V238H199V218Z" fill="#D9D9D9"/>
<path d="M239 218H259V238H239V218Z" fill="#D9D9D9"/>
<path d="M259 218H279V238H259V218Z" fill="#D9D9D9"/>
<path d="M259 238H279V258H259V238Z" fill="#D9D9D9"/>
<path d="M279 238H299V258H279V238Z" fill="#D9D9D9"/>
<path d="M279 258H299V278H279V258Z" fill="#D9D9D9"/>
<path d="M299 258H319V278H299V258Z" fill="#D9D9D9"/>
<path d="M299 318H319V338H299V318Z" fill="#D9D9D9"/>
<path d="M299 298H319V318H299V298Z" fill="#D9D9D9"/>
<path d="M299 338H319V358H299V338Z" fill="#D9D9D9"/>
<path d="M299 378H319V398H299V378Z" fill="#D9D9D9"/>
<path d="M299 278H319V298H299V278Z" fill="#D9D9D9"/>
<path d="M299 358H319V378H299V358Z" fill="#D9D9D9"/>
<path d="M319 318H339V338H319V318Z" fill="#D9D9D9"/>
<path d="M319 298H339V318H319V298Z" fill="#D9D9D9"/>
<path d="M319 338H339V358H319V338Z" fill="#D9D9D9"/>
<path d="M319 278H339V298H319V278Z" fill="#D9D9D9"/>
<path d="M319 358H339V378H319V358Z" fill="#D9D9D9"/>
<path d="M279 338H299V358H279V338Z" fill="#D9D9D9"/>
<path d="M279 318H299V338H279V318Z" fill="#D9D9D9"/>
<path d="M279 358H299V378H279V358Z" fill="#D9D9D9"/>
<path d="M279 398H299V418H279V398Z" fill="#D9D9D9"/>
<path d="M259 418H279V438H259V418Z" fill="#D9D9D9"/>
<path d="M319 378H339V398H319V378Z" fill="#D9D9D9"/>
<path d="M299 398H319V418H299V398Z" fill="#D9D9D9"/>
<path d="M279 418H299V438H279V418Z" fill="#D9D9D9"/>
<path d="M159 398H179V418H159V398Z" fill="#D9D9D9"/>
<path d="M199 418H219V438H199V418Z" fill="#D9D9D9"/>
<path d="M159 358H179V378H159V358Z" fill="#D9D9D9"/>
<path d="M139 358H159V378H139V358Z" fill="#D9D9D9"/>
<path d="M159 338H179V358H159V338Z" fill="#D9D9D9"/>
<path d="M139 318H159V338H139V318Z" fill="#D9D9D9"/>
<path d="M139 298H159V318H139V298Z" fill="#D9D9D9"/>
<path d="M159 298H179V318H159V298Z" fill="#D9D9D9"/>
<path d="M139 278H159V298H139V278Z" fill="#D9D9D9"/>
<path d="M159 278H179V298H159V278Z" fill="#D9D9D9"/>
<path d="M139 258H159V278H139V258Z" fill="#D9D9D9"/>
<path d="M159 318H179V338H159V318Z" fill="#D9D9D9"/>
<path d="M159 258H179V278H159V258Z" fill="#D9D9D9"/>
<path d="M119 278H139V298H119V278Z" fill="#D9D9D9"/>
<path d="M119 338H139V358H119V338Z" fill="#D9D9D9"/>
<path d="M119 318H139V338H119V318Z" fill="#D9D9D9"/>
<path d="M119 298H139V318H119V298Z" fill="#D9D9D9"/>
<path d="M139 338H159V358H139V338Z" fill="#D9D9D9"/>
<path d="M159 378H179V398H159V378Z" fill="#D9D9D9"/>
<path d="M139 378H159V398H139V378Z" fill="#D9D9D9"/>
<path d="M179 378H199V398H179V378Z" fill="#D9D9D9"/>
<path d="M179 398H199V418H179V398Z" fill="#D9D9D9"/>
<path d="M199 398H219V418H199V398Z" fill="#D9D9D9"/>
<path d="M219 418H239V438H219V418Z" fill="#D9D9D9"/>
<path d="M239 418H259V438H239V418Z" fill="#D9D9D9"/>
<path d="M279 378H299V398H279V378Z" fill="#D9D9D9"/>
<path d="M179 258H199V278H179V258Z" fill="#D9D9D9"/>
<path d="M179 298H199V318H179V298Z" fill="#D9D9D9"/>
<path d="M179 278H199V298H179V278Z" fill="#D9D9D9"/>
<path d="M179 318H199V338H179V318Z" fill="#D9D9D9"/>
<path d="M179 358H199V378H179V358Z" fill="#D9D9D9"/>
<path d="M179 338H199V358H179V338Z" fill="#D9D9D9"/>
<path d="M199 258H219V278H199V258Z" fill="#D9D9D9"/>
<path d="M199 278H219V298H199V278Z" fill="#D9D9D9"/>
<path d="M199 318H219V338H199V318Z" fill="#D9D9D9"/>
<path d="M199 298H219V318H199V298Z" fill="#D9D9D9"/>
<path d="M199 338H219V358H199V338Z" fill="#D9D9D9"/>
<path d="M199 378H219V398H199V378Z" fill="#D9D9D9"/>
<path d="M199 358H219V378H199V358Z" fill="#D9D9D9"/>
<path d="M219 278H239V298H219V278Z" fill="#D9D9D9"/>
<path d="M219 298H239V318H219V298Z" fill="#D9D9D9"/>
<path d="M219 338H239V358H219V338Z" fill="#D9D9D9"/>
<path d="M219 318H239V338H219V318Z" fill="#D9D9D9"/>
<path d="M219 358H239V378H219V358Z" fill="#D9D9D9"/>
<path d="M219 398H239V418H219V398Z" fill="#D9D9D9"/>
<path d="M219 378H239V398H219V378Z" fill="#D9D9D9"/>
<path d="M239 298H259V318H239V298Z" fill="#D9D9D9"/>
<path d="M239 318H259V338H239V318Z" fill="#D9D9D9"/>
<path d="M239 358H259V378H239V358Z" fill="#D9D9D9"/>
<path d="M239 338H259V358H239V338Z" fill="#D9D9D9"/>
<path d="M239 398H259V418H239V398Z" fill="#D9D9D9"/>
<path d="M239 378H259V398H239V378Z" fill="#D9D9D9"/>
<path d="M259 318H279V338H259V318Z" fill="#D9D9D9"/>
<path d="M259 338H279V358H259V338Z" fill="#D9D9D9"/>
<path d="M259 378H279V398H259V378Z" fill="#D9D9D9"/>
<path d="M259 398H279V418H259V398Z" fill="#D9D9D9"/>
<path d="M259 358H279V378H259V358Z" fill="#D9D9D9"/>
<path d="M199 238H219V258H199V238Z" fill="#D9D9D9"/>
<path d="M219 218H239V238H219V218Z" fill="#D9D9D9"/>
<path d="M159 218H179V238H159V218Z" fill="#D9D9D9"/>
<path d="M159 238H179V258H159V238Z" fill="#D9D9D9"/>
<path d="M159 238H139V258M159 238V258M159 238H179M159 238V218H179M159 258H139M159 258V278M159 258H179M139 258V278M179 218H199M179 218V238M199 218V238M199 218H219M199 238H179M199 238V258M199 238H219M179 238V258M199 258H179M199 258V278M199 258H219M179 258V278M219 218V238M219 218H239M219 238V258M219 238H239M239 218H259M239 218V238M259 218V238M259 218H279V238M259 238H239M259 238H279M259 238V258H279M279 238V258M279 238H299V258M279 258H299M279 258V278H299M299 258V278M299 258H319V278M299 278H319M299 278V298M319 278V298M319 278H339V298M299 318H319M299 318V338M299 318V298M299 318H279M319 318V338M319 318V298M319 318H339M319 338H299M319 338V358M319 338H339M299 338V358M299 338H279M299 298H319M319 298H339M319 358H299M319 358V378M319 358H339M299 358V378M299 358H279M299 378H319M299 378V398M299 378H279M319 378V398M319 378H339M319 398H299M319 398H339V378M319 398V418H299M299 398H279M299 398V418M339 318V338M339 318V298M339 338V358M339 358V378M279 338V358M279 338V318M279 338H259M279 358V378M279 358H259M279 318H259M279 378V398M279 378H259M279 398V418M279 398H259M299 418H279M299 418V438H279M279 418H259M279 418V438M259 418V438M259 418H239M259 418V398M279 438H259M259 438H239M159 398H179M159 398V418H179M159 398V378M159 398H139V378M179 398V418M179 398V378M179 398H199M179 418H199M199 418H219M199 418V438H219M199 418V398M219 418V438M219 418V398M219 418H239M219 438H239M159 358H179M159 358V378M159 358H139M159 358V338M179 358V378M179 358V338M179 358H199M179 378H159M179 378H199M159 378H139M139 358V378M139 358V338M139 358H119V338M159 338H179M159 338V318M159 338H139M179 338V318M179 338H199M139 318H159M139 318V338M139 318V298M139 318H119M159 318V298M159 318H179M139 338H119M139 298H159M139 298V278M139 298H119M159 298H179M159 298V278M179 298V318M179 298V278M179 298H199M179 318H199M139 278H159M139 278H119V298M159 278H179M179 278H199M119 298V318M119 338V318M199 378V398M199 378V358M199 378H219M199 398H219M219 398V378M219 398H239M239 418V438M239 418V398M199 278V298M199 278H219M199 298V318M199 298H219M199 318V338M199 318H219M199 338V358M199 338H219M199 358H219M219 258V278M219 278V298M219 278H239V298M219 298V318M219 298H239M219 318V338M219 318H239M219 338V358M219 338H239M219 358V378M219 358H239M219 378H239M239 298V318M239 298H259V318M239 318V338M239 318H259M239 338V358M239 338H259M239 358V378M239 358H259M239 378V398M239 378H259M239 398H259M259 318V338M259 338V358M259 358V378M259 378V398" stroke="#D9D9D9" stroke-width="5"/>
</svg>
